<?xml version="1.0" standalone="no"?>
<!DOCTYPE svg PUBLIC "-//W3C//DTD SVG 20010904//EN"
 "http://www.w3.org/TR/2001/REC-SVG-20010904/DTD/svg10.dtd">
<svg version="1.0" xmlns="http://www.w3.org/2000/svg"
 width="632.000000pt" height="632.000000pt" viewBox="0 0 632.000000 632.000000"
 preserveAspectRatio="xMidYMid meet">
<metadata>
Created by potrace 1.14, written by Peter Selinger 2001-2017
</metadata>
<g transform="translate(0.000000,632.000000) scale(0.100000,-0.100000)"
fill="#000000" stroke="none">
<path d="M3207 5652 c-26 -2 -35 -7 -30 -15 4 -8 1 -7 -9 1 -14 11 -18 10 -27
-5 -10 -17 -10 -17 -11 2 0 11 -3 16 -8 10 -4 -6 -14 -10 -22 -10 -8 0 -18 -4
-22 -10 -5 -6 -8 -6 -8 2 0 7 -7 10 -15 7 -8 -4 -12 -11 -8 -18 4 -8 3 -8 -6
0 -13 12 -82 8 -91 -5 -3 -4 -17 -6 -32 -6 -16 1 -28 -2 -29 -5 -3 -25 -9 -43
-14 -48 -3 -4 -4 6 -1 21 4 25 3 27 -17 21 -12 -4 -31 -8 -42 -10 -11 -1 -20
-3 -20 -4 0 -3 -65 -18 -83 -19 -8 -1 -10 -6 -6 -13 6 -10 5 -10 -7 -1 -12 10
-18 10 -27 1 -7 -7 -12 -8 -12 -4 0 5 -12 1 -26 -9 -15 -9 -23 -12 -20 -6 11
18 -5 13 -21 -6 -8 -10 -12 -12 -8 -5 9 18 -6 15 -22 -5 -8 -10 -12 -12 -8 -5
5 10 0 11 -22 6 -15 -4 -30 -10 -33 -13 -3 -3 -9 -6 -15 -6 -19 0 -110 -28
-122 -38 -7 -5 -10 -14 -6 -20 3 -6 1 -7 -6 -3 -6 4 -9 12 -6 17 4 5 1 9 -4 9
-6 0 -11 -5 -11 -11 0 -5 -4 -7 -10 -4 -5 3 -10 1 -10 -5 0 -7 -7 -10 -15 -6
-8 3 -15 1 -15 -4 0 -6 -3 -9 -7 -8 -12 2 -64 -14 -92 -28 -14 -8 -31 -14 -37
-14 -6 0 -17 -7 -24 -15 -7 -8 -16 -13 -20 -10 -5 3 -11 1 -15 -4 -3 -6 -12
-8 -20 -4 -8 3 -15 0 -15 -5 0 -6 -16 -16 -35 -23 -19 -7 -35 -17 -35 -23 0
-5 -3 -7 -6 -3 -4 3 -13 -1 -21 -9 -8 -8 -19 -12 -24 -9 -5 4 -9 2 -9 -2 0 -5
-23 -19 -50 -32 -28 -13 -54 -29 -57 -34 -4 -6 -1 -7 7 -2 9 5 11 4 6 -4 -4
-6 -11 -9 -16 -6 -10 6 -140 -82 -140 -96 0 -5 -6 -8 -12 -6 -7 1 -12 -3 -11
-10 2 -8 -4 -10 -14 -6 -9 4 -14 2 -10 -3 3 -6 -7 -18 -24 -28 -16 -9 -29 -21
-29 -27 0 -5 -6 -9 -12 -9 -7 0 -22 -13 -33 -29 -10 -16 -23 -27 -27 -25 -4 3
-8 2 -8 -3 0 -4 -14 -23 -31 -41 -28 -30 -30 -34 -14 -45 15 -12 15 -13 -4
-13 -11 0 -17 4 -15 8 3 4 0 8 -5 8 -6 0 -11 -4 -11 -10 0 -5 -10 -18 -22 -30
-12 -11 -18 -20 -14 -20 9 0 -44 -50 -55 -51 -11 -2 -19 -4 -39 -11 -8 -3 -42
-13 -75 -24 -79 -24 -122 -44 -165 -74 -42 -30 -116 -100 -105 -100 4 0 -4 -9
-19 -21 -14 -11 -24 -25 -21 -30 4 -5 2 -9 -3 -9 -11 0 -85 -144 -85 -165 0
-8 -3 -15 -7 -15 -4 0 -7 -6 -8 -12 0 -7 -7 -34 -15 -60 -9 -25 -13 -49 -10
-52 4 -3 0 -6 -7 -6 -7 0 -11 -3 -8 -6 4 -3 2 -19 -2 -35 -8 -27 -17 -86 -26
-164 -2 -16 -6 -52 -9 -80 -11 -91 -12 -180 -3 -192 5 -6 5 -13 0 -17 -13 -8
-4 -106 11 -125 10 -12 9 -13 -2 -6 -11 6 -13 4 -6 -11 4 -10 9 -26 10 -34 3
-25 26 -102 35 -119 14 -26 47 -119 81 -226 18 -55 37 -106 43 -114 9 -12 8
-13 -4 -6 -12 6 -13 5 -2 -6 6 -7 12 -19 12 -25 0 -7 5 -25 12 -41 6 -15 12
-30 12 -33 1 -3 5 -11 9 -17 5 -7 6 -13 3 -13 -5 0 11 -51 34 -105 5 -11 14
-38 21 -60 7 -22 17 -44 21 -49 4 -6 8 -18 8 -28 0 -10 5 -18 11 -18 5 0 8 -4
5 -8 -2 -4 2 -21 9 -37 8 -17 21 -47 29 -68 11 -26 20 -36 28 -31 10 5 10 4 1
-6 -8 -9 -5 -23 12 -59 25 -49 89 -187 120 -258 10 -24 23 -43 28 -43 4 0 5
-5 1 -11 -3 -6 -2 -14 3 -18 6 -3 27 -39 47 -79 20 -40 41 -70 45 -67 5 3 8
-3 7 -12 -3 -19 15 -43 26 -36 4 2 5 -2 2 -10 -3 -8 2 -21 10 -30 8 -8 12 -17
9 -21 -4 -3 -1 -6 5 -6 7 0 12 -7 12 -15 0 -8 12 -22 28 -30 15 -9 19 -14 9
-11 -17 5 -17 5 0 -19 10 -13 22 -25 26 -25 5 0 5 -5 1 -12 -5 -8 -1 -9 12 -4
14 5 16 4 7 -4 -11 -13 -3 -27 42 -73 11 -11 14 -17 7 -12 -11 6 -11 3 0 -14
16 -25 30 -28 22 -3 -5 13 -4 14 4 3 6 -8 8 -20 5 -28 -3 -7 0 -13 7 -13 6 0
9 -4 6 -8 -2 -4 13 -27 35 -52 21 -24 39 -50 39 -58 0 -9 6 -12 17 -8 10 4 14
4 11 0 -11 -10 21 -64 38 -64 8 0 13 -4 10 -8 -7 -12 52 -75 63 -67 6 3 8 0 5
-9 -6 -16 24 -56 43 -56 7 0 12 -3 11 -7 -4 -13 54 -73 64 -67 5 3 7 0 6 -8
-2 -7 3 -12 10 -10 8 1 11 -1 8 -6 -6 -11 40 -53 48 -45 3 4 6 0 6 -8 0 -8 9
-21 21 -29 11 -8 32 -25 46 -38 23 -21 27 -22 43 -7 14 13 20 14 26 3 4 -7 4
-10 -1 -6 -4 4 -14 3 -22 -3 -14 -13 -18 -33 -4 -25 5 3 11 -1 15 -9 3 -9 12
-12 23 -8 10 3 15 3 11 -2 -8 -8 15 -35 30 -35 6 0 12 -4 14 -8 6 -15 125 -91
132 -85 3 4 6 1 6 -6 0 -8 6 -11 16 -7 8 3 13 2 10 -2 -3 -5 30 -26 72 -48
104 -52 114 -56 107 -41 -4 6 0 4 8 -5 8 -10 21 -18 29 -18 8 0 19 -5 26 -12
9 -9 12 -9 12 2 0 9 5 8 16 -6 13 -16 15 -16 10 -2 -3 10 0 20 7 24 7 4 9 4 5
-1 -12 -13 11 -45 27 -39 8 4 15 1 15 -5 0 -7 6 -11 13 -10 6 1 20 -1 31 -6
12 -5 21 -3 27 6 7 11 9 11 9 -3 0 -13 6 -17 23 -14 12 2 21 9 19 16 -1 6 2 9
8 5 6 -3 8 -10 5 -15 -8 -13 6 -18 73 -24 48 -4 61 -3 57 7 -4 6 0 4 8 -6 20
-24 21 -24 42 -7 14 11 17 12 11 1 -6 -9 -5 -12 5 -9 8 3 13 11 11 17 -1 7 2
10 8 6 6 -3 8 -11 5 -16 -4 -5 -1 -9 4 -9 6 0 11 6 11 13 0 8 3 9 8 1 7 -11
142 -14 142 -4 0 3 21 5 46 5 25 -1 47 2 50 6 2 4 14 5 26 1 15 -3 19 -2 14 7
-6 9 0 10 20 5 17 -5 25 -3 21 3 -4 6 1 17 11 24 15 13 16 12 4 -3 -9 -11 -10
-18 -2 -23 5 -3 10 -2 10 4 0 5 8 8 18 6 9 -1 22 0 27 4 6 3 15 6 20 8 37 8
58 14 120 34 71 23 89 35 78 53 -3 5 -1 6 6 2 6 -4 9 -12 5 -17 -4 -7 0 -7 12
0 11 5 66 33 124 61 58 29 107 55 110 59 3 3 18 12 33 19 15 7 25 17 22 22 -3
5 0 7 8 4 19 -7 30 35 14 55 -11 14 -10 14 6 2 12 -9 15 -21 11 -35 -6 -18 -5
-19 9 -7 9 7 14 17 11 22 -3 5 2 6 10 3 10 -4 16 -1 16 7 0 7 3 9 7 6 3 -4 17
6 31 21 14 15 26 25 27 22 1 -7 88 65 130 107 18 18 30 35 27 38 -3 3 1 5 9 6
12 0 72 68 104 117 28 43 70 82 96 87 16 4 27 10 25 14 -3 4 5 7 16 6 28 -2
80 24 72 36 -3 5 -9 7 -13 5 -4 -3 -8 1 -8 9 0 12 3 12 16 2 9 -6 19 -16 24
-22 4 -6 10 -5 16 3 4 8 11 13 15 13 11 -2 198 80 206 90 3 3 28 19 57 34 29
16 49 33 46 38 -4 6 0 8 10 4 10 -3 17 -3 17 2 0 5 8 12 18 15 26 10 68 36 58
36 -6 0 -1 6 9 14 11 8 23 12 27 10 5 -3 8 2 8 10 0 9 3 15 8 14 11 -4 52 35
46 44 -3 4 3 5 12 1 12 -4 15 -2 12 8 -3 8 -10 14 -16 14 -5 0 -13 3 -17 7 -9
9 16 5 33 -5 16 -10 32 0 32 20 0 9 3 13 7 10 10 -10 34 14 26 27 -3 6 -2 8 2
3 8 -7 45 20 45 33 0 9 -52 7 -68 -4 -11 -7 -11 -4 -1 12 7 12 18 18 24 14 16
-10 55 -10 55 0 0 5 5 6 10 3 9 -6 14 8 11 28 -1 5 3 5 9 2 7 -4 14 2 17 14 3
11 9 18 14 15 5 -3 9 1 9 9 0 7 9 23 20 35 12 12 17 22 12 22 -5 0 -19 -11
-32 -25 -13 -14 -30 -25 -38 -25 -8 0 -12 -6 -9 -14 4 -10 0 -12 -14 -9 -11 3
-19 0 -19 -7 0 -7 -7 -10 -16 -6 -13 5 -15 2 -11 -16 6 -21 5 -22 -8 -5 -7 11
-16 14 -19 8 -4 -5 -31 -15 -61 -22 -31 -7 -52 -16 -48 -22 4 -6 1 -7 -8 -1
-19 11 -99 12 -91 0 3 -5 -3 -6 -13 -3 -9 4 -24 2 -32 -5 -11 -9 -13 -9 -11 2
2 8 -9 14 -31 17 -18 2 -45 9 -60 15 -14 6 -28 12 -31 13 -26 7 -89 40 -127
66 -48 32 -153 137 -153 152 0 10 -80 126 -129 187 -205 256 -555 394 -874
343 -234 -37 -424 -127 -550 -262 -26 -27 -90 -116 -144 -198 -53 -81 -103
-154 -110 -161 -7 -7 -13 -17 -13 -22 0 -22 -116 -122 -173 -149 -199 -97
-417 -81 -592 44 -100 72 -150 136 -200 260 -22 56 -28 89 -31 165 -5 149 19
220 157 453 35 59 75 127 88 150 13 23 48 85 78 137 31 52 79 136 108 185 29
50 86 146 126 215 41 69 78 135 82 148 5 12 13 22 18 22 5 0 9 4 9 9 0 4 43
82 96 172 53 90 134 229 179 309 45 80 122 213 170 295 49 83 103 175 120 206
16 31 42 78 57 104 15 26 25 52 21 58 -3 5 -2 7 4 4 6 -4 19 10 29 31 10 20
28 48 39 61 11 13 14 21 8 17 -7 -4 -13 -3 -13 2 0 5 10 12 22 15 l21 6 -24
21 c-21 18 -21 19 -2 9 19 -12 26 -8 67 34 26 26 47 46 49 45 1 0 27 13 57 30
30 17 58 31 63 31 4 0 20 7 35 15 62 32 206 42 310 20 152 -31 249 -100 366
-259 33 -44 65 -87 72 -95 8 -8 31 -35 51 -59 21 -24 47 -53 58 -65 108 -119
169 -189 188 -213 12 -15 27 -34 34 -41 40 -42 109 -153 129 -207 19 -51 23
-81 21 -152 -2 -78 -6 -96 -38 -163 -45 -92 -104 -154 -187 -193 -73 -34 -149
-39 -200 -13 -17 9 -103 88 -189 175 -196 196 -230 216 -356 208 -122 -8 -173
-22 -259 -74 -103 -61 -179 -173 -194 -285 -10 -70 -9 -83 4 -146 41 -183 203
-321 381 -323 49 -1 88 11 267 79 239 92 304 110 412 119 323 24 562 -33 797
-190 52 -35 265 -237 265 -252 0 -3 18 -28 40 -56 22 -28 37 -56 33 -62 -4 -6
-1 -8 8 -5 10 4 15 -1 16 -15 1 -11 6 -23 10 -26 5 -3 14 -19 21 -34 7 -17 17
-25 24 -21 6 4 8 3 4 -4 -6 -10 21 -80 35 -92 8 -6 24 -53 21 -62 -1 -5 3 -8
9 -8 5 0 8 -4 5 -9 -4 -5 -1 -22 4 -37 6 -15 11 -48 12 -73 1 -40 2 -43 10
-21 5 14 7 35 5 47 -2 12 -1 20 3 18 5 -3 8 5 8 18 1 12 3 48 5 80 2 37 0 57
-7 57 -8 0 -8 2 0 8 13 9 13 102 0 102 -6 0 -5 5 2 12 6 6 8 18 3 27 -4 9 -7
32 -6 51 1 19 -1 39 -4 45 -2 5 -6 23 -8 40 -2 16 -4 36 -5 43 -1 7 -8 10 -17
7 -13 -4 -13 -2 1 8 10 8 15 16 12 19 -5 5 -14 54 -16 86 -1 6 -8 12 -17 13
-12 0 -11 3 4 9 17 7 17 9 3 9 -10 1 -18 6 -18 12 0 5 4 8 9 4 6 -3 8 4 4 17
-3 13 -7 35 -10 50 -3 17 -10 25 -19 21 -8 -3 -12 -8 -9 -12 2 -4 -3 -8 -12
-8 -12 0 -10 6 9 22 18 15 23 27 17 37 -8 14 -20 61 -21 86 -1 6 -8 12 -17 12
-12 0 -13 2 -3 8 9 7 8 20 -7 64 -11 31 -17 59 -14 62 4 3 1 6 -5 6 -6 0 -9 7
-5 17 5 11 3 14 -6 8 -10 -5 -11 -2 -6 14 4 13 2 21 -5 21 -6 0 -8 5 -5 10 4
6 1 17 -5 25 -7 8 -9 15 -5 15 4 0 0 11 -9 25 -9 14 -14 25 -12 25 4 0 -28 95
-51 150 -3 8 -5 18 -5 23 1 4 -2 7 -8 7 -6 0 -9 3 -9 8 3 18 -2 32 -17 46 -12
12 -12 16 -2 16 10 0 9 3 -2 10 -8 5 -15 17 -15 27 0 10 -5 17 -11 16 -6 -1
-10 8 -10 20 1 13 -4 21 -12 19 -8 -1 -11 2 -7 8 11 18 -15 80 -33 80 -11 0
-13 3 -6 8 14 8 -23 95 -36 87 -5 -3 -6 4 -3 15 3 11 0 20 -6 20 -6 0 -11 11
-11 25 0 14 -4 25 -9 25 -5 0 -12 12 -16 27 -5 22 -8 24 -17 12 -8 -11 -9 -11
-4 4 6 20 -13 69 -25 61 -5 -3 -6 2 -3 10 3 9 1 16 -5 16 -6 0 -10 3 -9 8 1 8
-13 45 -21 52 -3 3 -17 25 -30 50 -14 25 -32 51 -40 58 -9 8 -10 11 -3 7 7 -3
-2 14 -19 39 -17 25 -35 46 -40 46 -5 0 -9 6 -7 13 5 22 -40 70 -59 63 -15 -5
-15 -4 1 9 18 13 15 20 -6 16 -5 0 -8 9 -8 21 0 21 0 21 -22 2 -13 -10 -17
-12 -10 -4 18 21 15 40 -13 66 -14 13 -25 27 -25 32 0 15 -36 43 -45 35 -4 -5
-5 -3 -1 4 8 14 -63 95 -76 87 -5 -3 -7 0 -6 8 2 7 -4 12 -13 12 -11 -1 -15 5
-12 17 4 13 0 19 -11 19 -10 0 -14 5 -11 10 3 6 2 10 -2 10 -5 0 -32 23 -61
50 -29 28 -56 50 -60 50 -4 0 -14 9 -22 19 -7 11 -17 18 -22 15 -4 -3 -8 3 -8
13 0 15 -2 16 -10 3 -8 -13 -10 -13 -10 1 0 15 -18 29 -36 28 -3 0 -13 10 -23
23 -16 19 -21 20 -34 10 -13 -11 -15 -10 -11 5 4 14 -8 25 -53 47 -32 16 -61
34 -64 38 -3 5 -12 11 -20 12 -35 8 -79 29 -79 38 0 6 -11 8 -25 6 -13 -3 -23
-2 -20 2 2 3 -18 16 -45 27 -44 19 -49 19 -53 4 -4 -15 -5 -15 -6 0 -2 24 -42
32 -58 11 -12 -16 -12 -15 -6 2 5 16 3 18 -11 13 -9 -4 -15 -3 -12 2 3 5 -1
11 -9 15 -8 3 -15 1 -15 -5 0 -6 -7 -6 -19 1 -11 5 -29 10 -40 10 -10 0 -21 3
-23 8 -5 12 -78 42 -78 32 0 -6 -5 -10 -12 -10 -6 0 -8 3 -4 7 9 10 -79 33
-105 28 -10 -2 -19 1 -19 8 0 8 -3 8 -11 0 -9 -9 -18 -7 -37 5 -24 16 -26 16
-20 0 7 -17 -18 -19 -30 -2 -9 12 -112 12 -131 0 -9 -6 -12 -5 -8 1 4 6 -4 11
-18 11 -14 0 -22 -4 -20 -9 3 -4 1 -11 -5 -14 -6 -4 -9 -2 -8 3 2 6 -1 10 -7
10 -5 0 -9 -5 -7 -11 1 -7 -3 -5 -10 3 -9 10 -26 14 -51 12z m200 -20 c0 -10
-7 -19 -14 -19 -9 0 -10 4 -3 12 5 7 7 15 3 18 -3 4 -1 7 5 7 6 0 10 -8 9 -18z
m39 -17 c1 -9 -4 -11 -14 -7 -10 4 -12 7 -4 10 7 2 9 9 5 15 -3 7 -2 8 2 4 5
-4 10 -14 11 -22z m-199 9 c-3 -3 -12 -4 -19 -1 -8 3 -5 6 6 6 11 1 17 -2 13
-5z m119 -16 c10 -12 13 -18 6 -14 -7 4 -21 2 -30 -6 -15 -12 -16 -11 -4 4 8
9 11 22 7 28 -11 17 1 11 21 -12z m136 8 c10 6 11 4 0 -7 -10 -11 -15 -10 -30
6 -15 17 -15 18 0 6 9 -7 23 -9 30 -5z m-332 0 c0 -2 -6 -9 -14 -15 -11 -9
-16 -9 -22 0 -4 7 -3 9 4 5 6 -3 13 -2 17 4 6 10 15 14 15 6z m96 -5 c-4 -5
-1 -11 6 -13 8 -3 6 -6 -4 -10 -11 -5 -15 -2 -13 10 5 23 4 22 11 22 3 0 3 -4
0 -9z m-276 -9 c0 -5 -7 -9 -15 -9 -8 0 -12 4 -9 9 3 4 9 8 15 8 5 0 9 -4 9
-8z m231 -9 c13 -16 12 -17 -3 -4 -10 7 -18 15 -18 17 0 8 8 3 21 -13z m86 2
c0 -8 -4 -12 -9 -9 -5 3 -6 10 -3 15 9 13 12 11 12 -6z m232 -8 c0 -9 -2 -8
-6 1 -2 6 -10 9 -15 6 -7 -4 -8 -2 -4 5 9 13 26 5 25 -12z m32 -4 c13 -16 12
-17 -3 -4 -10 7 -18 15 -18 17 0 8 8 3 21 -13z m155 2 c-1 -8 -5 -17 -8 -21
-5 -4 -4 16 1 34 3 9 9 -1 7 -13z m-664 -10 c7 4 5 0 -4 -8 -14 -11 -15 -16
-5 -27 10 -12 9 -12 -6 -1 -9 8 -15 16 -12 19 3 3 -1 12 -8 21 -10 14 -10 14
5 3 9 -8 23 -11 30 -7z m68 9 c0 -8 -19 -13 -24 -6 -3 5 1 9 9 9 8 0 15 -2 15
-3z m477 -1 c-4 -3 -1 -13 6 -22 11 -14 10 -14 -5 -2 -16 12 -16 31 -1 31 4 0
3 -3 0 -7z m41 -10 c-6 -7 -12 -13 -13 -13 -2 0 -5 6 -8 13 -3 7 3 13 14 13
13 0 15 -3 7 -13z m116 9 c3 -5 -1 -9 -9 -9 -8 0 -12 4 -9 9 3 4 7 8 9 8 2 0
6 -4 9 -8z m-614 -6 c0 -2 -8 -10 -17 -17 -16 -13 -17 -12 -4 4 13 16 21 21
21 13z m-133 -28 c-3 -8 -6 -5 -6 6 -1 11 2 17 5 13 3 -3 4 -12 1 -19z m284
-1 c-10 -9 -11 -8 -5 6 3 10 9 15 12 12 3 -3 0 -11 -7 -18z m43 7 c3 -8 2 -12
-4 -9 -6 3 -10 10 -10 16 0 14 7 11 14 -7z m216 10 c0 -8 -19 -13 -24 -6 -3 5
1 9 9 9 8 0 15 -2 15 -3z m-395 -13 c3 -5 2 -12 -3 -15 -5 -3 -9 1 -9 9 0 17
3 19 12 6z m-357 -21 c-7 -10 -14 -17 -17 -15 -4 4 18 35 25 35 2 0 -1 -9 -8
-20z m125 0 c-3 -12 -8 -19 -11 -16 -5 6 5 36 12 36 2 0 2 -9 -1 -20z m42 10
c3 -6 -1 -7 -9 -4 -18 7 -21 14 -7 14 6 0 13 -4 16 -10z m512 4 c-3 -3 -12 -4
-19 -1 -8 3 -5 6 6 6 11 1 17 -2 13 -5z m-710 -26 c-3 -8 -6 -5 -6 6 -1 11 2
17 5 13 3 -3 4 -12 1 -19z m354 13 c-8 -5 -10 -14 -6 -22 6 -11 5 -11 -5 -2
-14 12 -6 33 13 33 8 0 7 -3 -2 -9z m255 -10 c0 -16 -3 -17 -14 -9 -12 10 -7
19 13 28 1 0 1 -9 1 -19z m38 -11 c-6 -6 -10 -3 -10 10 0 13 4 16 10 10 7 -7
7 -13 0 -20z m79 15 c-3 -9 -8 -14 -10 -11 -3 3 -2 9 2 15 9 16 15 13 8 -4z
m-828 -4 c-9 -8 -36 -10 -30 -2 2 4 11 8 20 8 8 0 13 -3 10 -6z m146 -14 c-10
-9 -11 -8 -5 6 3 10 9 15 12 12 3 -3 0 -11 -7 -18z m169 -3 c0 -3 -5 -2 -10 1
-6 4 -19 1 -28 -7 -15 -11 -15 -11 -5 3 7 9 9 19 5 24 -4 4 3 2 16 -4 12 -6
22 -14 22 -17z m50 21 c0 -2 -6 -8 -13 -14 -10 -8 -14 -7 -14 2 0 8 6 14 14
14 7 0 13 -1 13 -2z m190 -7 c0 -6 -3 -8 -7 -5 -3 4 -11 2 -18 -3 -8 -7 -12
-6 -12 3 0 7 9 14 19 14 10 1 18 -3 18 -9z m97 6 c-8 -8 -48 -13 -43 -6 2 4
14 8 26 9 12 1 20 0 17 -3z m125 -12 c3 -11 0 -19 -7 -19 -7 0 -10 8 -7 19 2
10 6 18 7 18 1 0 5 -8 7 -18z m509 -5 c-10 -9 -11 -8 -5 6 3 10 9 15 12 12 3
-3 0 -11 -7 -18z m-1074 -19 c4 -28 -6 -18 -12 12 -2 12 -1 20 2 16 4 -4 8
-16 10 -28z m-262 -16 c-17 -15 -18 -15 -6 0 7 9 9 23 5 30 -6 10 -4 11 7 0
11 -10 10 -15 -6 -30z m300 20 c-3 -3 -11 0 -18 7 -9 10 -8 11 6 5 10 -3 15
-9 12 -12z m127 11 c-10 -4 -9 -10 5 -27 l18 -21 -22 19 c-23 19 -22 37 0 35
8 0 8 -2 -1 -6z m48 2 c0 -2 -6 -8 -13 -14 -10 -8 -14 -7 -14 2 0 8 6 14 14
14 7 0 13 -1 13 -2z m68 -12 c-6 -7 -12 -13 -13 -13 -2 0 -5 6 -8 13 -3 7 3
13 14 13 13 0 15 -3 7 -13z m97 -21 c-17 -15 -18 -15 -6 0 7 9 9 23 5 30 -6
10 -4 11 7 0 11 -10 10 -15 -6 -30z m100 20 c-3 -3 -11 0 -18 7 -9 10 -8 11 6
5 10 -3 15 -9 12 -12z m-571 -11 c15 -17 15 -19 1 -25 -10 -3 -14 -2 -10 5 4
5 1 16 -5 24 -18 22 -6 18 14 -4z m1193 0 c0 -11 -5 -18 -9 -15 -4 3 -5 11 -1
19 7 21 12 19 10 -4z m-1290 -13 c-3 -8 -6 -5 -6 6 -1 11 2 17 5 13 3 -3 4
-12 1 -19z m640 0 c-3 -8 -6 -5 -6 6 -1 11 2 17 5 13 3 -3 4 -12 1 -19z m44
-1 c-10 -9 -11 -8 -5 6 3 10 9 15 12 12 3 -3 0 -11 -7 -18z m43 7 c3 -8 2 -12
-4 -9 -6 3 -10 10 -10 16 0 14 7 11 14 -7z m103 -4 c-1 -11 -5 -20 -9 -20 -3
0 -6 9 -5 20 1 11 5 20 9 20 3 0 6 -9 5 -20z m513 -5 c-7 -8 -16 -15 -21 -15
-5 0 -1 8 9 18 20 22 31 19 12 -3z m-1554 0 c-1 -8 -5 -17 -8 -21 -5 -4 -4 16
1 34 3 9 9 -1 7 -13z m47 2 c3 -7 -3 -13 -14 -13 -13 0 -15 3 -7 13 6 7 12 13
13 13 2 0 5 -6 8 -13z m-106 -12 c0 -8 -4 -12 -9 -9 -5 3 -6 10 -3 15 9 13 12
11 12 -6z m420 9 c-3 -3 -12 -4 -19 -1 -8 3 -5 6 6 6 11 1 17 -2 13 -5z m83 2
c0 -2 -7 -7 -16 -10 -8 -3 -12 -2 -9 4 6 10 25 14 25 6z m40 -2 c0 -8 -19 -13
-24 -6 -3 5 1 9 9 9 8 0 15 -2 15 -3z m1126 -6 c3 -4 -1 -5 -10 -4 -8 1 -18 5
-22 8 -3 4 1 5 10 4 8 -1 18 -5 22 -8z m-1464 -27 c-4 -11 -7 -11 -10 -2 -3 9
-10 7 -26 -6 -21 -18 -21 -18 -3 3 20 24 48 28 39 5z m137 4 c3 -3 -7 -4 -23
-1 -16 3 -31 8 -35 11 -3 3 7 4 23 1 16 -3 31 -8 35 -11z m267 2 c4 -3 -4 -4
-16 -2 -30 6 -40 16 -12 12 12 -2 24 -6 28 -10z m236 -6 c-4 -11 -7 -11 -10
-2 -3 9 -10 7 -26 -6 -21 -18 -21 -18 -3 3 20 24 48 28 39 5z m138 9 c0 -5 -4
-10 -10 -10 -5 0 -10 5 -10 10 0 6 5 10 10 10 6 0 10 -4 10 -10z m-437 -13 c7
3 8 2 4 -2 -14 -16 -36 -14 -29 3 4 10 7 12 10 4 2 -7 9 -9 15 -5z m532 4 c3
-5 2 -12 -3 -15 -5 -3 -9 1 -9 9 0 17 3 19 12 6z m581 -9 c-3 -3 2 -15 11 -26
14 -15 14 -18 2 -8 -9 6 -20 8 -24 4 -5 -4 -5 -1 -1 6 4 7 2 12 -6 13 -10 0
-10 2 0 6 6 2 9 10 6 15 -5 7 -2 8 5 4 7 -5 10 -11 7 -14z m-1752 0 c3 -5 -1
-9 -9 -9 -8 0 -12 4 -9 9 3 4 7 8 9 8 2 0 6 -4 9 -8z m41 -2 c-3 -5 -12 -10
-18 -10 -7 0 -6 4 3 10 19 12 23 12 15 0z m32 -10 c-1 -11 -5 -20 -9 -20 -3 0
-6 9 -5 20 1 11 5 20 9 20 3 0 6 -9 5 -20z m479 -10 c1 -16 -1 -30 -5 -30 -3
0 -7 14 -7 30 -1 17 1 30 5 30 3 0 7 -13 7 -30z m1242 13 c-12 -15 -22 -18
-14 -4 4 5 0 11 -6 14 -7 3 -3 4 9 4 17 -1 19 -4 11 -14z m85 0 c-4 -10 -9
-11 -19 -2 -18 15 -18 15 5 15 11 0 17 -5 14 -13z m-1705 -18 c-3 -3 -9 2 -12
12 -6 14 -5 15 5 6 7 -7 10 -15 7 -18z m35 10 c-3 -9 -8 -14 -10 -11 -3 3 -2
9 2 15 9 16 15 13 8 -4z m205 -10 c-3 -3 -9 2 -12 12 -6 14 -5 15 5 6 7 -7 10
-15 7 -18z m35 10 c-3 -9 -8 -14 -10 -11 -3 3 -2 9 2 15 9 16 15 13 8 -4z
m368 -2 c8 -9 9 -14 2 -10 -6 4 -13 1 -16 -5 -3 -7 -4 -3 -4 10 1 26 1 26 18
5z m237 -8 c-3 -3 -9 2 -12 12 -6 14 -5 15 5 6 7 -7 10 -15 7 -18z m35 10 c-3
-9 -8 -14 -10 -11 -3 3 -2 9 2 15 9 16 15 13 8 -4z m-862 -18 c-10 -9 -11 -8
-5 6 3 10 9 15 12 12 3 -3 0 -11 -7 -18z m66 6 c0 -9 -4 -10 -14 -2 -7 6 -13
12 -13 14 0 1 6 2 13 2 8 0 14 -6 14 -14z m360 -5 c-3 -8 -6 -5 -6 6 -1 11 2
17 5 13 3 -3 4 -12 1 -19z m223 12 c0 -5 -4 -10 -10 -10 -5 0 -10 5 -10 10 0
6 5 10 10 10 6 0 10 -4 10 -10z m57 -7 c0 -9 -4 -10 -14 -2 -7 6 -13 12 -13
14 0 1 6 2 13 2 8 0 14 -6 14 -14z m-927 -6 c0 -2 -10 -13 -23 -25 l-23 -22
-1 23 c-2 14 1 17 6 9 6 -10 10 -10 21 3 12 14 20 19 20 12z m145 -23 c0 -25
-10 -23 -17 4 -3 10 0 19 6 19 6 0 11 -10 11 -23z m234 4 c-5 -10 -11 -18 -12
-18 -2 0 -3 8 -3 18 0 10 6 19 13 19 8 0 9 -6 2 -19z m97 2 c0 -20 -21 -20
-39 0 -9 11 -8 11 7 0 18 -13 19 -13 14 1 -3 9 -1 16 6 16 6 0 12 -8 12 -17z
m157 -20 c7 -29 1 -24 -17 11 -12 23 -12 28 -2 20 8 -7 16 -21 19 -31z m77 36
c0 -2 -7 -7 -16 -10 -8 -3 -12 -2 -9 4 6 10 25 14 25 6z m47 -13 c5 3 9 -3 9
-14 0 -10 -1 -19 -1 -19 -1 0 -12 12 -26 27 -13 15 -16 22 -7 14 9 -7 21 -10
25 -8z m270 11 c-3 -3 -12 -4 -19 -1 -8 3 -5 6 6 6 11 1 17 -2 13 -5z m86 -14
c-3 -12 -8 -19 -11 -16 -5 6 5 36 12 36 2 0 2 -9 -1 -20z m-1270 -5 c-3 -9 -8
-14 -10 -11 -3 3 -2 9 2 15 9 16 15 13 8 -4z m48 0 c5 4 6 -2 2 -11 -4 -12 -8
-14 -11 -5 -3 9 -10 7 -25 -6 l-21 -18 20 27 c10 14 21 22 22 17 2 -5 8 -7 13
-4z m32 0 c-3 -9 -8 -14 -10 -11 -3 3 -2 9 2 15 9 16 15 13 8 -4z m244 0 c0
-8 -4 -12 -9 -9 -5 3 -6 10 -3 15 9 13 12 11 12 -6z m47 -4 c15 -17 15 -19 1
-25 -10 -3 -14 -2 -10 5 4 5 1 16 -5 24 -18 22 -6 18 14 -4z m192 4 c-1 -8 -5
-17 -8 -21 -5 -4 -4 16 1 34 3 9 9 -1 7 -13z m424 11 c0 -2 -6 -9 -14 -15 -11
-9 -16 -9 -22 0 -4 7 -3 9 4 5 6 -3 13 -2 17 4 6 10 15 14 15 6z m212 -8 c-14
-14 -44 -20 -36 -7 3 5 9 7 14 4 5 -3 11 -1 15 5 3 5 9 10 13 10 3 0 1 -5 -6
-12z m44 -14 c1 -9 0 -13 -4 -10 -3 4 -7 14 -8 22 -1 9 0 13 4 10 3 -4 7 -14
8 -22z m841 11 c0 -8 -3 -13 -5 -10 -3 3 -15 -3 -26 -12 -15 -13 -14 -10 3 10
29 32 28 31 28 12z m-1902 -13 c-3 -3 -11 0 -18 7 -9 10 -8 11 6 5 10 -3 15
-9 12 -12z m302 3 c0 -8 -4 -12 -9 -9 -5 3 -6 10 -3 15 9 13 12 11 12 -6z
m190 -7 c-3 -8 -6 -5 -6 6 -1 11 2 17 5 13 3 -3 4 -12 1 -19z m88 13 c3 -5 2
-12 -3 -15 -5 -3 -9 1 -9 9 0 17 3 19 12 6z m101 -17 c-3 -15 -8 -29 -11 -32
-3 -3 -3 5 -1 19 2 13 5 27 5 32 1 4 3 7 6 7 3 0 3 -12 1 -26z m261 11 c0 -8
-4 -12 -9 -9 -5 3 -6 10 -3 15 9 13 12 11 12 -6z m823 11 c0 -2 -7 -7 -16 -10
-8 -3 -12 -2 -9 4 6 10 25 14 25 6z m85 -6 c3 -6 -1 -7 -9 -4 -18 7 -21 14 -7
14 6 0 13 -4 16 -10z m-1442 -13 c3 -8 -1 -14 -8 -14 -7 0 -11 6 -8 14 3 7 6
13 8 13 2 0 5 -6 8 -13z m-608 -15 c-3 -3 -11 0 -18 7 -9 10 -8 11 6 5 10 -3
15 -9 12 -12z m850 8 c-3 -5 -12 -10 -18 -10 -7 0 -6 4 3 10 19 12 23 12 15 0z
m1155 0 c0 -5 -4 -10 -10 -10 -5 0 -10 5 -10 10 0 6 5 10 10 10 6 0 10 -4 10
-10z m155 -8 c-3 -3 -11 0 -18 7 -9 10 -8 11 6 5 10 -3 15 -9 12 -12z m-2220
-2 c-3 -5 -12 -10 -18 -10 -7 0 -6 4 3 10 19 12 23 12 15 0z m164 -4 c9 -10 8
-15 -2 -19 -8 -3 -13 3 -13 14 0 23 0 23 15 5z m198 1 c0 -8 -6 -14 -14 -14
-9 0 -10 4 -2 14 6 7 12 13 14 13 1 0 2 -6 2 -13z m240 -9 c0 -13 -1 -17 -4
-10 -3 6 -10 9 -16 5 -7 -4 -6 1 2 10 17 21 17 21 18 -5z m429 3 c-13 -14 -14
-20 -5 -23 9 -3 8 -6 -3 -10 -10 -4 -15 -2 -14 7 2 14 25 45 34 45 3 0 -3 -9
-12 -19z m211 -3 c0 -13 -1 -17 -4 -10 -3 6 -10 9 -16 5 -7 -4 -6 1 2 10 17
21 17 21 18 -5z m920 0 c-3 -8 -6 -5 -6 6 -1 11 2 17 5 13 3 -3 4 -12 1 -19z
m-2037 6 c0 -8 -19 -13 -24 -6 -3 5 1 9 9 9 8 0 15 -2 15 -3z m186 -6 c-10 -6
-22 -6 -26 -2 -5 5 3 10 18 11 22 1 24 0 8 -9z m234 2 c0 -5 -5 -10 -11 -10
-5 0 -7 5 -4 10 3 6 8 10 11 10 2 0 4 -4 4 -10z m294 -6 c3 -8 2 -12 -4 -9 -6
3 -10 10 -10 16 0 14 7 11 14 -7z m346 6 c0 -5 -5 -10 -11 -10 -5 0 -7 5 -4
10 3 6 8 10 11 10 2 0 4 -4 4 -10z m1099 -13 c0 -9 -2 -8 -6 1 -2 6 -10 9 -15
6 -7 -4 -8 -2 -4 5 9 13 26 5 25 -12z m-2016 0 c3 -7 -3 -13 -14 -13 -13 0
-15 3 -7 13 6 7 12 13 13 13 2 0 5 -6 8 -13z m235 0 c8 -10 6 -13 -7 -13 -11
0 -17 6 -14 13 3 7 6 13 8 13 1 0 7 -6 13 -13z m557 4 c3 -5 2 -12 -3 -15 -5
-3 -9 1 -9 9 0 17 3 19 12 6z m83 -4 c8 -10 6 -13 -7 -13 -11 0 -17 6 -14 13
3 7 6 13 8 13 1 0 7 -6 13 -13z m-1203 -17 c-18 -20 -45 -22 -38 -2 5 11 7 11
14 0 8 -11 13 -5 11 13 -1 3 6 6 14 6 12 0 12 -3 -1 -17z m50 10 c3 -6 -1 -7
-9 -4 -18 7 -21 14 -7 14 6 0 13 -4 16 -10z m367 -9 c3 9 6 9 10 -2 9 -23 -19
-19 -39 5 -18 21 -18 21 3 3 16 -13 23 -15 26 -6z m103 1 c-3 -3 -11 0 -18 7
-9 10 -8 11 6 5 10 -3 15 -9 12 -12z m531 -2 c0 -12 -4 -16 -9 -11 -5 5 -6 14
-3 20 10 15 12 14 12 -9z m328 11 c4 -5 -3 -7 -14 -4 -23 6 -26 13 -6 13 8 0
17 -4 20 -9z m833 -6 c5 -4 2 -5 -6 0 -11 6 -13 4 -8 -8 3 -9 -1 -21 -11 -28
-14 -11 -15 -11 -5 1 8 9 9 19 3 31 -7 13 -6 17 5 15 8 -1 18 -6 22 -11z
m-1470 -10 c0 -8 -4 -12 -9 -9 -5 3 -6 10 -3 15 9 13 12 11 12 -6z m415 3 c-6
-6 -22 -13 -34 -15 -18 -2 -19 -1 -8 6 8 5 17 8 21 5 4 -2 10 0 14 6 3 5 9 10
13 10 3 0 1 -5 -6 -12z m203 0 c5 4 5 1 1 -6 -4 -7 -11 -10 -16 -7 -4 3 -10
-1 -13 -7 -3 -7 -4 -3 -4 9 1 15 5 19 13 13 6 -6 15 -6 19 -2z m980 0 c5 4 5
1 1 -6 -6 -10 -11 -10 -22 -1 -8 6 -14 14 -14 16 0 3 6 0 13 -6 8 -6 18 -7 22
-3z m-2130 -7 c-9 -8 -36 -10 -30 -2 2 4 11 8 20 8 8 0 13 -3 10 -6z m475 3
c0 -8 -19 -13 -24 -6 -3 5 1 9 9 9 8 0 15 -2 15 -3z m197 0 c-3 -3 -11 -6 -19
-8 -7 -1 -20 -6 -28 -11 -12 -7 -13 -6 -3 6 6 8 22 15 34 16 11 1 19 0 16 -3z
m-156 -21 c13 -16 12 -17 -3 -5 -9 8 -23 10 -29 6 -8 -4 -9 -3 -5 4 10 17 21
15 37 -5z m-749 -7 c10 6 11 4 0 -7 -10 -11 -15 -10 -30 6 -15 17 -15 18 0 6
9 -7 23 -9 30 -5z m106 -3 c-6 -7 -12 -13 -13 -13 -2 0 -5 6 -8 13 -3 7 3 13
14 13 13 0 15 -3 7 -13z m444 5 c-9 -9 -7 -15 6 -25 9 -8 11 -12 4 -8 -7 4
-21 1 -30 -7 -15 -12 -16 -11 -3 5 7 9 10 17 6 17 -4 0 -2 7 5 15 7 8 15 15
18 15 3 0 1 -5 -6 -12z m235 5 c-4 -3 1 -16 10 -27 18 -21 18 -21 -4 -2 -20
16 -23 36 -6 36 4 0 3 -3 0 -7z m41 -10 c-12 -15 -22 -18 -14 -4 4 5 0 11 -6
14 -7 3 -3 4 9 4 17 -1 19 -4 11 -14z m123 -1 c-7 -2 -18 1 -23 6 -8 8 -4 9
13 5 13 -4 18 -8 10 -11z m1196 -4 c2 -17 0 -19 -7 -8 -5 8 -6 18 -4 22 8 12
10 10 11 -14z m38 4 c-3 -3 -11 0 -18 7 -9 10 -8 11 6 5 10 -3 15 -9 12 -12z
m82 3 c0 -8 -4 -12 -9 -9 -5 3 -6 10 -3 15 9 13 12 11 12 -6z m133 9 c0 -8
-19 -13 -24 -6 -3 5 1 9 9 9 8 0 15 -2 15 -3z m-2473 -26 c-3 -8 -6 -5 -6 6
-1 11 2 17 5 13 3 -3 4 -12 1 -19z m280 3 c-1 -15 -4 -17 -14 -9 -15 12 -17
22 -3 13 6 -3 10 -1 10 4 0 6 2 11 4 11 3 0 4 -9 3 -19z m42 6 c8 -10 7 -14
-2 -14 -8 0 -14 6 -14 14 0 7 1 13 2 13 2 0 8 -6 14 -13z m202 -29 c-11 -11
-13 -10 -7 0 4 7 2 21 -5 30 -12 15 -11 15 6 0 16 -15 17 -20 6 -30z m66 20
c-3 -8 -6 -5 -6 6 -1 11 2 17 5 13 3 -3 4 -12 1 -19z m508 1 c-3 -12 -7 -24
-10 -27 -3 -3 -3 5 -1 19 6 30 5 29 10 29 3 0 3 -10 1 -21z m138 6 c-3 -9 -8
-14 -10 -11 -3 3 -2 9 2 15 9 16 15 13 8 -4z m1208 -2 c13 -16 12 -17 -3 -4
-10 7 -18 15 -18 17 0 8 8 3 21 -13z m104 -3 c3 -5 -4 -6 -15 -3 -11 3 -22 9
-25 13 -3 5 4 6 15 3 11 -3 22 -9 25 -13z m-2325 0 c0 -5 -2 -10 -4 -10 -3 0
-8 5 -11 10 -3 6 -1 10 4 10 6 0 11 -4 11 -10z m534 2 c3 -5 -1 -9 -9 -9 -8 0
-12 4 -9 9 3 4 7 8 9 8 2 0 6 -4 9 -8z m56 2 c0 -8 -19 -13 -24 -6 -3 5 1 9 9
9 8 0 15 -2 15 -3z m200 -9 c0 -2 -6 -5 -13 -8 -8 -3 -14 1 -14 8 0 7 6 11 14
8 7 -3 13 -6 13 -8z m384 7 c3 -5 -1 -9 -9 -9 -8 0 -12 4 -9 9 3 4 7 8 9 8 2
0 6 -4 9 -8z m976 4 c0 -2 -8 -10 -17 -17 -16 -13 -17 -12 -4 4 13 16 21 21
21 13z m-1920 -10 c0 -2 -7 -7 -16 -10 -8 -3 -12 -2 -9 4 6 10 25 14 25 6z
m824 -5 c4 -5 -3 -7 -14 -4 -23 6 -26 13 -6 13 8 0 17 -4 20 -9z m1143 -6 c0
-8 -4 -12 -9 -9 -5 3 -6 10 -3 15 9 13 12 11 12 -6z m-2474 -10 c-3 -9 -8 -14
-10 -11 -3 3 -2 9 2 15 9 16 15 13 8 -4z m42 5 c3 -6 -1 -7 -9 -4 -18 7 -21
14 -7 14 6 0 13 -4 16 -10z m365 6 c0 -2 -8 -10 -17 -17 -16 -13 -17 -12 -4 4
13 16 21 21 21 13z m350 0 c0 -2 -7 -7 -16 -10 -8 -3 -12 -2 -9 4 6 10 25 14
25 6z m53 -14 c4 9 6 9 6 1 2 -22 -16 -23 -35 0 l-19 22 21 -18 c17 -14 23
-15 27 -5z m424 12 c-3 -3 -12 -4 -19 -1 -8 3 -5 6 6 6 11 1 17 -2 13 -5z
m163 2 c0 -2 -7 -7 -16 -10 -8 -3 -12 -2 -9 4 6 10 25 14 25 6z m39 -30 c-3
-3 -11 5 -18 17 -13 21 -12 21 5 5 10 -10 16 -20 13 -22z m876 25 c3 -5 2 -12
-3 -15 -5 -3 -9 1 -9 9 0 17 3 19 12 6z m-2337 -26 c-3 -3 -9 2 -12 12 -6 14
-5 15 5 6 7 -7 10 -15 7 -18z m214 13 c-6 -6 -22 -13 -34 -15 -18 -2 -19 -1
-8 6 8 5 17 8 21 5 4 -2 10 0 14 6 3 5 9 10 13 10 3 0 1 -5 -6 -12z m1119 -6
c-7 -2 -18 1 -23 6 -8 8 -4 9 13 5 13 -4 18 -8 10 -11z m153 2 c3 -8 2 -12 -4
-9 -6 3 -10 10 -10 16 0 14 7 11 14 -7z m1046 2 c-1 -5 4 -13 12 -18 11 -8 11
-9 0 -6 -8 2 -13 7 -12 12 1 5 -4 13 -12 18 -11 8 -11 9 0 6 8 -2 13 -7 12
-12z m108 -11 c-3 -3 -9 2 -12 12 -6 14 -5 15 5 6 7 -7 10 -15 7 -18z m-2533
6 c-9 -8 -36 -10 -30 -2 2 4 11 8 20 8 8 0 13 -3 10 -6z m155 -1 c0 -5 -4 -10
-10 -10 -5 0 -10 5 -10 10 0 6 5 10 10 10 6 0 10 -4 10 -10z m117 -32 c2 -12
1 -19 -3 -16 -3 3 -6 12 -8 20 -1 7 -5 20 -10 28 -7 12 -6 13 4 3 8 -7 15 -23
17 -35z m238 32 c-3 -5 -1 -10 6 -10 7 0 10 -3 6 -6 -9 -9 -28 6 -22 17 4 5 8
9 11 9 3 0 2 -4 -1 -10z m82 -5 c0 -8 -4 -12 -9 -9 -5 3 -6 10 -3 15 9 13 12
11 12 -6z m160 -4 c0 -11 -5 -18 -9 -15 -4 3 -5 11 -1 19 7 21 12 19 10 -4z
m123 15 c0 -3 -4 -8 -10 -11 -5 -3 -10 -1 -10 4 0 6 5 11 10 11 6 0 10 -2 10
-4z m94 -12 c3 -9 2 -12 -5 -9 -5 4 -18 1 -27 -6 -13 -11 -12 -8 2 9 23 26 22
26 30 6z m62 -6 c19 -23 19 -23 -2 -5 -11 9 -24 14 -29 10 -4 -5 -5 -2 -1 5 9
16 10 16 32 -10z m120 -14 c3 -16 2 -26 -1 -23 -3 4 -8 19 -11 35 -3 16 -2 26
1 23 3 -4 8 -19 11 -35z m179 27 c3 -5 2 -12 -3 -15 -5 -3 -9 1 -9 9 0 17 3
19 12 6z m-1455 -5 c0 -2 -8 -10 -17 -17 -16 -13 -17 -12 -4 4 13 16 21 21 21
13z m480 0 c0 -2 -8 -10 -17 -17 -16 -13 -17 -12 -4 4 13 16 21 21 21 13z
m320 -17 c0 -5 -4 -9 -8 -9 -5 0 -9 7 -9 15 0 8 4 12 9 9 4 -3 8 -9 8 -15z
m-237 -2 c-2 -4 1 -14 7 -22 20 -24 6 -17 -18 8 -20 21 -20 23 -2 23 10 0 16
-4 13 -9z m127 8 c0 -2 -6 -8 -13 -14 -10 -8 -14 -7 -14 2 0 8 6 14 14 14 7 0
13 -1 13 -2z m625 -13 c-3 -3 -11 0 -18 7 -9 10 -8 11 6 5 10 -3 15 -9 12 -12z
m45 14 c0 -2 -7 -7 -16 -10 -8 -3 -12 -2 -9 4 6 10 25 14 25 6z m1120 -10 c-7
-7 -13 -7 -20 0 -6 6 -3 10 10 10 13 0 16 -4 10 -10z m130 9 c0 -2 -6 -8 -13
-14 -10 -8 -14 -7 -14 2 0 8 6 14 14 14 7 0 13 -1 13 -2z m-2593 -27 c-3 -8
-6 -5 -6 6 -1 11 2 17 5 13 3 -3 4 -12 1 -19z m300 -22 c0 -9 -6 -12 -16 -8
-11 4 -11 7 -2 10 9 3 7 10 -6 26 -18 21 -18 21 3 3 11 -9 21 -23 21 -31z
m180 22 c-3 -8 -6 -5 -6 6 -1 11 2 17 5 13 3 -3 4 -12 1 -19z m420 16 c-3 -3
-12 -4 -19 -1 -8 3 -5 6 6 6 11 1 17 -2 13 -5z m62 -8 c9 -10 8 -15 -2 -19 -8
-3 -13 3 -13 14 0 23 0 23 15 5z m54 -1 c-3 -9 -8 -14 -10 -11 -3 3 -2 9 2 15
9 16 15 13 8 -4z m108 1 c14 8 11 -2 -4 -14 -10 -8 -13 -6 -14 11 0 12 1 16 4
9 3 -6 9 -10 14 -6z m346 8 c-3 -3 -12 -4 -19 -1 -8 3 -5 6 6 6 11 1 17 -2 13
-5z m928 -4 c-3 -5 -12 -10 -18 -10 -7 0 -6 4 3 10 19 12 23 12 15 0z m240 0
c-3 -5 -12 -10 -18 -10 -7 0 -6 4 3 10 19 12 23 12 15 0z m-2689 -12 c4 -7 3
-8 -5 -4 -6 4 -19 2 -27 -5 -12 -10 -13 -9 -8 5 7 19 30 21 40 4z m31 5 c-4
-3 -1 -13 6 -22 11 -14 10 -14 -5 -2 -16 12 -16 31 -1 31 4 0 3 -3 0 -7z m130
-15 c-3 -8 -6 -5 -6 6 -1 11 2 17 5 13 3 -3 4 -12 1 -19z m524 5 c13 -16 12
-17 -3 -4 -17 13 -22 21 -14 21 2 0 10 -8 17 -17z m449 11 c0 -8 -19 -13 -24
-6 -3 5 1 9 9 9 8 0 15 -2 15 -3z m94 -10 c3 -8 2 -12 -4 -9 -6 3 -10 10 -10
16 0 14 7 11 14 -7z m62 4 c3 -4 -1 -5 -10 -4 -8 1 -18 5 -22 8 -3 4 1 5 10 4
8 -1 18 -5 22 -8z m1315 -5 c13 -16 12 -17 -3 -4 -10 7 -18 15 -18 17 0 8 8 3
21 -13z m-2294 -6 c0 -8 -6 -14 -14 -14 -9 0 -10 4 -2 14 6 7 12 13 14 13 1 0
2 -6 2 -13z m2218 3 c3 -6 -1 -7 -9 -4 -18 7 -21 14 -7 14 6 0 13 -4 16 -10z
m-2123 -14 c10 6 11 4 0 -7 -10 -11 -15 -10 -30 6 -15 17 -15 18 0 6 9 -7 23
-9 30 -5z m115 -1 c4 -4 3 -5 -4 -2 -6 4 -13 2 -15 -5 -3 -8 -6 -6 -10 4 -7
17 15 19 29 3z m762 0 c7 3 8 0 5 -9 -8 -20 -7 -20 -30 6 -14 17 -15 20 -2 9
9 -7 22 -10 27 -6z m71 11 c0 -2 -7 -7 -16 -10 -8 -3 -12 -2 -9 4 6 10 25 14
25 6z m42 -3 c-10 -4 -9 -10 5 -26 12 -15 13 -18 2 -9 -9 6 -20 8 -25 4 -5 -4
-6 -3 -2 2 4 5 4 14 -2 20 -6 8 -2 12 13 13 12 0 16 -1 9 -4z m1043 -3 c3 -6
-1 -7 -9 -4 -18 7 -21 14 -7 14 6 0 13 -4 16 -10z m-2501 -16 c3 -8 2 -12 -4
-9 -6 3 -10 10 -10 16 0 14 7 11 14 -7z m70 -14 c-6 -6 -10 -3 -10 10 0 13 4
16 10 10 7 -7 7 -13 0 -20z m271 10 c3 -5 -4 -6 -15 -3 -11 3 -22 9 -25 13 -3
5 4 6 15 3 11 -3 22 -9 25 -13z m531 11 c-4 -5 -1 -11 6 -13 8 -3 6 -6 -4 -10
-11 -5 -15 -2 -13 10 5 23 4 22 11 22 3 0 3 -4 0 -9z m40 -17 c1 -9 0 -13 -4
-10 -3 4 -7 14 -8 22 -1 9 0 13 4 10 3 -4 7 -14 8 -22z m82 1 c-3 -3 -9 2 -12
12 -6 14 -5 15 5 6 7 -7 10 -15 7 -18z m516 13 c-5 -7 -2 -9 9 -5 9 3 21 -1
28 -11 11 -14 11 -15 -1 -5 -9 8 -19 9 -31 3 -14 -8 -17 -6 -14 8 5 23 4 22
11 22 3 0 2 -5 -2 -12z m-1338 -23 c1 -7 -8 -22 -19 -32 l-22 -18 19 23 c15
17 16 22 5 23 -10 0 -11 2 -1 6 6 2 9 10 5 16 -3 7 -2 8 2 4 5 -4 10 -14 11
-22z m58 9 c3 -8 2 -12 -4 -9 -6 3 -10 10 -10 16 0 14 7 11 14 -7z m416 6
c-18 -12 -30 -13 -30 -2 0 4 10 9 22 9 18 2 20 0 8 -7z m21 -13 c-10 -9 -11
-8 -5 6 3 10 9 15 12 12 3 -3 0 -11 -7 -18z m106 8 c0 -8 -4 -12 -9 -9 -4 3
-8 9 -8 15 0 5 4 9 8 9 5 0 9 -7 9 -15z m54 -2 c13 -16 12 -17 -3 -4 -10 7
-18 15 -18 17 0 8 8 3 21 -13z m145 5 c4 -7 4 -10 -1 -6 -4 4 -15 2 -24 -5
-14 -11 -14 -10 -2 6 16 20 18 21 27 5z m119 2 c3 -5 1 -10 -4 -10 -6 0 -11 5
-11 10 0 6 2 10 4 10 3 0 8 -4 11 -10z m332 -12 c-3 -8 -6 -5 -6 6 -1 11 2 17
5 13 3 -3 4 -12 1 -19z m1150 16 c-2 -3 -17 -7 -33 -10 -17 -2 -24 -1 -17 4
13 8 58 14 50 6z m14 -17 c-10 -9 -11 -8 -5 6 3 10 9 15 12 12 3 -3 0 -11 -7
-18z m100 6 c12 -16 12 -17 -2 -6 -9 7 -20 9 -24 5 -5 -4 -5 -1 -1 6 9 16 11
15 27 -5z m-2490 -16 c-10 -9 -11 -8 -5 6 3 10 9 15 12 12 3 -3 0 -11 -7 -18z
m296 -9 c4 -28 -6 -18 -12 12 -2 12 -1 20 2 16 4 -4 8 -16 10 -28z m2363 28
c0 -2 -8 -10 -17 -17 -16 -13 -17 -12 -4 4 13 16 21 21 21 13z m-2723 -23 c0
-9 -4 -10 -14 -2 -7 6 -13 12 -13 14 0 1 6 2 13 2 8 0 14 -6 14 -14z m158 -1
c-3 -3 -11 0 -18 7 -9 10 -8 11 6 5 10 -3 15 -9 12 -12z m39 10 c3 -5 -1 -9
-9 -9 -8 0 -12 4 -9 9 3 4 7 8 9 8 2 0 6 -4 9 -8z m201 -10 c-3 -3 -11 0 -18
7 -9 10 -8 11 6 5 10 -3 15 -9 12 -12z m39 10 c3 -5 -1 -9 -9 -9 -8 0 -12 4
-9 9 3 4 7 8 9 8 2 0 6 -4 9 -8z m731 -1 c-9 -8 -36 -10 -30 -2 2 4 11 8 20 8
8 0 13 -3 10 -6z m1478 -8 c-4 -10 -9 -11 -19 -2 -18 15 -18 15 5 15 11 0 17
-5 14 -13z m31 8 c3 -5 -2 -15 -12 -22 -15 -12 -16 -12 -5 2 7 9 10 19 6 22
-3 4 -4 7 0 7 3 0 8 -4 11 -9z m-2775 -15 c9 -10 8 -15 -2 -19 -8 -3 -13 3
-13 14 0 23 0 23 15 5z m731 -1 c0 -1 -6 -7 -13 -13 -10 -8 -13 -6 -13 7 0 11
6 17 13 14 7 -3 13 -6 13 -8z m43 0 c-3 -9 -8 -14 -10 -11 -3 3 -2 9 2 15 9
16 15 13 8 -4z m177 0 c-6 -8 -8 -20 -4 -27 5 -10 4 -10 -6 -1 -11 10 -11 15
0 28 7 8 15 15 17 15 3 0 0 -7 -7 -15z m90 11 c0 -2 -8 -10 -17 -17 -16 -13
-17 -12 -4 4 13 16 21 21 21 13z m80 0 c0 -2 -8 -10 -17 -17 -16 -13 -17 -12
-4 4 13 16 21 21 21 13z m187 -18 c-3 -8 -6 -5 -6 6 -1 11 2 17 5 13 3 -3 4
-12 1 -19z m1343 7 c0 -1 -6 -7 -13 -13 -10 -8 -13 -6 -13 7 0 11 6 17 13 14
7 -3 13 -6 13 -8z m-2433 -15 c-2 -11 -9 -26 -17 -33 -10 -10 -11 -9 -4 3 9
15 10 20 13 40 0 6 3 10 6 10 3 0 3 -9 2 -20z m617 4 c3 -8 2 -12 -4 -9 -6 3
-10 10 -10 16 0 14 7 11 14 -7z m37 -7 c-10 -9 -11 -8 -5 6 3 10 9 15 12 12 3
-3 0 -11 -7 -18z m105 8 c-1 -8 -5 -17 -8 -21 -5 -4 -4 16 1 34 3 9 9 -1 7
-13z m498 -1 c3 -8 2 -12 -4 -9 -6 3 -10 10 -10 16 0 14 7 11 14 -7z m37 -7
c-10 -9 -11 -8 -5 6 3 10 9 15 12 12 3 -3 0 -11 -7 -18z m1326 6 c0 -9 -4 -10
-14 -2 -7 6 -13 12 -13 14 0 1 6 2 13 2 8 0 14 -6 14 -14z m-1779 -6 c8 -10 6
-13 -11 -14 -12 0 -16 1 -9 4 6 3 10 9 6 14 -8 14 2 11 14 -4z m80 0 c8 -10 6
-13 -11 -14 -12 0 -16 1 -9 4 6 3 10 9 6 14 -8 14 2 11 14 -4z m85 0 c3 -7 -3
-13 -14 -13 -13 0 -15 3 -7 13 6 7 12 13 13 13 2 0 5 -6 8 -13z m-1323 -1 c0
-2 -7 -7 -16 -10 -8 -3 -12 -2 -9 4 6 10 25 14 25 6z m49 -11 c7 3 8 0 5 -9
-8 -20 -7 -20 -30 6 -14 17 -15 20 -2 9 9 -7 22 -10 27 -6z m311 11 c0 -2 -7
-7 -16 -10 -8 -3 -12 -2 -9 4 6 10 25 14 25 6z m49 -12 c11 7 8 -20 -4 -31 -4
-5 -5 -2 0 6 6 11 4 13 -11 7 -10 -4 -15 -4 -11 0 4 4 1 14 -6 23 -10 14 -10
14 5 3 9 -8 21 -11 27 -8z m108 10 c-3 -3 -12 -4 -19 -1 -8 3 -5 6 6 6 11 1
17 -2 13 -5z m83 2 c0 -2 -7 -7 -16 -10 -8 -3 -12 -2 -9 4 6 10 25 14 25 6z
m39 -30 c-3 -3 -11 5 -18 17 -13 21 -12 21 5 5 10 -10 16 -20 13 -22z m118 28
c-3 -3 -12 -4 -19 -1 -8 3 -5 6 6 6 11 1 17 -2 13 -5z m1920 0 c-3 -3 -12 -4
-19 -1 -8 3 -5 6 6 6 11 1 17 -2 13 -5z m-2206 -19 c3 2 5 -5 6 -15 1 -11 -3
-20 -9 -20 -6 0 -8 3 -5 7 4 3 -1 16 -10 27 -14 15 -14 18 -2 8 9 -6 18 -10
20 -7z m62 0 c-3 -9 -8 -14 -10 -11 -3 3 -2 9 2 15 9 16 15 13 8 -4z m583 0
c-1 -8 -5 -17 -8 -21 -5 -4 -4 16 1 34 3 9 9 -1 7 -13z m80 0 c-1 -8 -5 -17
-8 -21 -5 -4 -4 16 1 34 3 9 9 -1 7 -13z m182 -1 c8 -2 17 -5 20 -8 3 -4 -4
-5 -16 -3 -12 2 -28 9 -35 17 -10 10 -9 11 3 4 8 -5 21 -9 28 -10z m1197 6
c-3 -5 -12 -10 -18 -10 -7 0 -6 4 3 10 19 12 23 12 15 0z m39 -20 c-6 -6 -10
-3 -10 10 0 13 4 16 10 10 7 -7 7 -13 0 -20z m79 15 c-3 -9 -8 -14 -10 -11 -3
3 -2 9 2 15 9 16 15 13 8 -4z m85 -10 c-3 -3 -9 2 -12 12 -6 14 -5 15 5 6 7
-7 10 -15 7 -18z m-2782 -16 c1 -19 -1 -26 -6 -19 -4 7 -6 20 -5 29 7 32 10
29 11 -10z m98 15 c3 -9 2 -12 -5 -9 -5 4 -18 1 -27 -6 -13 -11 -12 -8 2 9 23
26 22 26 30 6z m37 -7 c-10 -9 -11 -8 -5 6 3 10 9 15 12 12 3 -3 0 -11 -7 -18z
m83 7 c3 -8 2 -12 -4 -9 -6 3 -10 10 -10 16 0 14 7 11 14 -7z m483 1 c0 -8 -4
-12 -9 -9 -5 3 -15 2 -21 -3 -7 -4 -4 0 6 10 23 21 24 21 24 2z m138 5 c3 -5
1 -10 -4 -10 -6 0 -11 5 -11 10 0 6 2 10 4 10 3 0 8 -4 11 -10z m109 -1 c3 -3
-6 -5 -19 -5 -14 0 -25 4 -25 8 0 8 36 6 44 -3z m89 -9 c10 -10 9 -11 -3 -4
-8 5 -21 9 -28 10 -8 2 -17 5 -20 8 -3 4 4 5 16 3 12 -2 28 -9 35 -17z m447 8
c0 -3 -9 -6 -20 -5 -11 1 -20 5 -20 9 0 3 9 6 20 5 11 -1 20 -5 20 -9z m80 2
c0 -5 -4 -10 -10 -10 -5 0 -10 5 -10 10 0 6 5 10 10 10 6 0 10 -4 10 -10z
m1083 -10 c3 -11 1 -18 -4 -14 -5 3 -9 12 -9 20 0 20 7 17 13 -6z m84 -2 c-3
-8 -6 -5 -6 6 -1 11 2 17 5 13 3 -3 4 -12 1 -19z m118 12 c3 -6 -1 -7 -9 -4
-18 7 -21 14 -7 14 6 0 13 -4 16 -10z m121 -8 c1 -7 0 -8 -3 -2 -2 5 -9 8 -14
4 -5 -3 -9 0 -9 6 0 15 23 7 26 -8z m-2685 -9 c13 -16 12 -17 -3 -4 -10 7 -18
15 -18 17 0 8 8 3 21 -13z m279 13 c0 -2 -8 -10 -17 -17 -16 -13 -17 -12 -4 4
13 16 21 21 21 13z m715 -6 c-3 -5 -12 -10 -18 -10 -7 0 -6 4 3 10 19 12 23
12 15 0z m1486 -7 c13 -16 12 -17 -3 -4 -10 7 -18 15 -18 17 0 8 8 3 21 -13z
m240 0 c13 -16 12 -17 -3 -4 -10 7 -18 15 -18 17 0 8 8 3 21 -13z m-2966 -11
c-3 -3 -11 0 -18 7 -9 10 -8 11 6 5 10 -3 15 -9 12 -12z m600 0 c-3 -3 -11 0
-18 7 -9 10 -8 11 6 5 10 -3 15 -9 12 -12z m250 9 c-9 -8 -36 -10 -30 -2 2 4
11 8 20 8 8 0 13 -3 10 -6z m198 -8 c-4 -10 -9 -11 -19 -2 -18 15 -18 15 5 15
11 0 17 -5 14 -13z m79 10 c-6 -3 -9 -10 -5 -16 4 -7 -1 -6 -10 2 -21 17 -21
17 6 18 12 0 16 -1 9 -4z m75 -10 c0 -9 -4 -10 -14 -2 -7 6 -13 12 -13 14 0 1
6 2 13 2 8 0 14 -6 14 -14z m98 -21 c-17 -15 -18 -15 -6 0 7 9 9 23 5 30 -6
10 -4 11 7 0 11 -10 10 -15 -6 -30z m1470 28 c-3 -5 -12 -10 -18 -10 -7 0 -6
4 3 10 19 12 23 12 15 0z m-2608 -6 c-3 -3 -12 -4 -19 -1 -8 3 -5 6 6 6 11 1
17 -2 13 -5z m188 -12 c-3 -3 -11 0 -18 7 -9 10 -8 11 6 5 10 -3 15 -9 12 -12z
m192 -4 c-3 -8 -6 -5 -6 6 -1 11 2 17 5 13 3 -3 4 -12 1 -19z m801 -3 c-3 -3
-9 2 -12 12 -6 14 -5 15 5 6 7 -7 10 -15 7 -18z m35 10 c-3 -9 -8 -14 -10 -11
-3 3 -2 9 2 15 9 16 15 13 8 -4z m125 -10 c-3 -3 -9 2 -12 12 -6 14 -5 15 5 6
7 -7 10 -15 7 -18z m1327 7 c-3 -3 -11 0 -18 7 -9 10 -8 11 6 5 10 -3 15 -9
12 -12z m-2595 3 c0 -2 -6 -8 -13 -14 -10 -8 -14 -7 -14 2 0 8 6 14 14 14 7 0
13 -1 13 -2z m474 -3 c3 -5 -1 -9 -9 -9 -8 0 -12 4 -9 9 3 4 7 8 9 8 2 0 6 -4
9 -8z m57 -5 c-6 -8 -7 -18 -3 -22 4 -5 1 -5 -6 -1 -10 6 -10 11 -1 22 6 8 14
14 16 14 3 0 0 -6 -6 -13z m176 0 c0 -7 -9 -13 -19 -13 -18 0 -18 1 -2 13 10
7 18 13 19 13 1 0 2 -6 2 -13z m213 9 c0 -2 -8 -10 -17 -17 -16 -13 -17 -12
-4 4 13 16 21 21 21 13z m80 0 c0 -2 -8 -10 -17 -17 -16 -13 -17 -12 -4 4 13
16 21 21 21 13z m1344 -12 c3 -8 2 -12 -4 -9 -6 3 -10 10 -10 16 0 14 7 11 14
-7z m101 -14 c2 -12 1 -20 -2 -16 -4 4 -8 16 -10 28 -2 12 -1 19 2 16 3 -3 8
-16 10 -28z m35 24 c0 -8 -19 -13 -24 -6 -3 5 1 9 9 9 8 0 15 -2 15 -3z m240
0 c0 -8 -19 -13 -24 -6 -3 5 1 9 9 9 8 0 15 -2 15 -3z m56 -14 c0 -12 -4 -16
-9 -11 -5 5 -6 14 -3 20 10 15 12 14 12 -9z m-3163 -3 c3 -7 -3 -13 -14 -13
-13 0 -15 3 -7 13 6 7 12 13 13 13 2 0 5 -6 8 -13z m33 -13 c1 -9 0 -13 -4
-10 -3 4 -7 14 -8 22 -1 9 0 13 4 10 3 -4 7 -14 8 -22z m922 13 c8 -10 6 -13
-11 -14 -12 0 -16 1 -9 4 6 3 10 9 6 14 -8 14 2 11 14 -4z m-869 -12 c7 3 8 0
5 -9 -8 -20 -7 -20 -30 6 -14 17 -15 20 -2 9 9 -7 22 -10 27 -6z m71 11 c0 -2
-7 -7 -16 -10 -8 -3 -12 -2 -9 4 6 10 25 14 25 6z m40 -2 c0 -8 -19 -13 -24
-6 -3 5 1 9 9 9 8 0 15 -2 15 -3z m320 2 c0 -2 -7 -7 -16 -10 -8 -3 -12 -2 -9
4 6 10 25 14 25 6z m37 -2 c-3 -3 -12 -4 -19 -1 -8 3 -5 6 6 6 11 1 17 -2 13
-5z m125 -5 c2 -2 1 -3 -1 -2 -2 1 -11 -6 -20 -15 -9 -10 -12 -12 -8 -5 5 6 6
16 3 22 -3 5 1 8 9 7 8 -1 16 -4 17 -7z m208 7 c0 -2 -8 -10 -17 -17 -16 -13
-17 -12 -4 4 13 16 21 21 21 13z m275 -5 c-9 -8 -36 -10 -30 -2 2 4 11 8 20 8
8 0 13 -3 10 -6z m1845 5 c0 -2 -9 -6 -20 -9 -11 -3 -18 -1 -14 4 5 9 34 13
34 5z m-2434 -15 c-4 -5 -1 -11 6 -13 8 -3 6 -6 -4 -10 -11 -5 -15 -2 -13 10
5 23 4 22 11 22 3 0 3 -4 0 -9z m272 -2 c-2 -6 -7 -10 -12 -9 -5 1 -13 -4 -18
-12 -8 -10 -9 -10 -5 2 2 8 10 14 16 13 6 -2 11 2 11 7 0 6 3 10 6 10 3 0 4
-5 2 -11z m169 -11 c-3 -8 -6 -5 -6 6 -1 11 2 17 5 13 3 -3 4 -12 1 -19z m473
7 c-6 -8 -9 -19 -5 -25 3 -5 4 -10 1 -10 -3 0 -10 10 -17 21 -7 13 -7 19 -1
15 6 -3 13 -2 17 4 3 5 9 10 12 10 3 0 0 -7 -7 -15z m45 6 c3 -5 2 -12 -3 -15
-5 -3 -9 1 -9 9 0 17 3 19 12 6z m45 6 c0 -2 -9 -12 -20 -22 -24 -21 -27 -14
-4 9 15 15 24 20 24 13z m-1376 -18 c-7 -12 -41 -16 -41 -5 0 6 10 11 23 11
12 0 20 -3 18 -6z m161 1 c3 -6 -1 -7 -9 -4 -18 7 -21 14 -7 14 6 0 13 -4 16
-10z m166 -7 c13 -16 12 -17 -3 -4 -10 7 -18 15 -18 17 0 8 8 3 21 -13z m86 2
c0 -8 -4 -12 -9 -9 -5 3 -6 10 -3 15 9 13 12 11 12 -6z m280 0 c0 -8 -4 -12
-9 -9 -5 3 -6 10 -3 15 9 13 12 11 12 -6z m219 -7 c14 -17 15 -20 2 -9 -9 7
-22 10 -27 6 -7 -3 -8 0 -5 9 8 20 7 20 30 -6z m244 13 c0 -6 -4 -12 -8 -15
-5 -3 -9 1 -9 9 0 8 4 15 9 15 4 0 8 -4 8 -9z m94 -7 c3 -8 2 -12 -4 -9 -6 3
-10 10 -10 16 0 14 7 11 14 -7z m1266 6 c0 -4 -7 -7 -15 -6 -23 3 -26 12 -5
13 11 1 20 -2 20 -7z m57 -12 c-3 -8 -6 -5 -6 6 -1 11 2 17 5 13 3 -3 4 -12 1
-19z m-2500 -3 c0 -8 -10 -23 -21 -32 -21 -18 -21 -18 -2 5 14 16 16 22 5 22
-11 0 -11 2 1 10 8 5 15 10 16 10 0 0 1 -7 1 -15z m59 3 c4 -7 3 -8 -5 -4 -6
4 -20 2 -29 -6 -15 -12 -16 -11 -3 5 16 20 27 22 37 5z m464 8 c0 -2 -8 -10
-17 -17 -16 -13 -17 -12 -4 4 13 16 21 21 21 13z m-755 -16 c-3 -5 -12 -10
-18 -10 -7 0 -6 4 3 10 19 12 23 12 15 0z m192 -7 c0 -9 -4 -10 -14 -2 -7 6
-13 12 -13 14 0 1 6 2 13 2 8 0 14 -6 14 -14z m246 0 c-4 -10 -9 -11 -19 -2
-18 15 -18 15 5 15 11 0 17 -5 14 -13z m31 8 c3 -5 -2 -15 -12 -22 -15 -12
-16 -12 -5 2 7 9 10 19 6 22 -3 4 -4 7 0 7 3 0 8 -4 11 -9z m163 -6 c0 -8 -4
-12 -9 -9 -5 3 -6 10 -3 15 9 13 12 11 12 -6z m46 -2 c-4 -10 -9 -11 -19 -2
-18 15 -18 15 5 15 11 0 17 -5 14 -13z m283 5 c3 -4 -1 -5 -10 -4 -8 1 -18 5
-22 8 -3 4 1 5 10 4 8 -1 18 -5 22 -8z m1954 -2 c-7 -7 -13 -7 -20 0 -6 6 -3
10 10 10 13 0 16 -4 10 -10z m45 4 c3 -6 -1 -7 -9 -4 -18 7 -21 14 -7 14 6 0
13 -4 16 -10z m40 0 c-3 -5 -12 -10 -18 -10 -7 0 -6 4 3 10 19 12 23 12 15 0z
m152 -7 c0 -9 -4 -10 -14 -2 -7 6 -13 12 -13 14 0 1 6 2 13 2 8 0 14 -6 14
-14z m-3110 -15 c-3 -8 -6 -5 -6 6 -1 11 2 17 5 13 3 -3 4 -12 1 -19z m303 7
c0 -1 -6 -7 -13 -13 -10 -8 -13 -6 -13 7 0 11 6 17 13 14 7 -3 13 -6 13 -8z
m768 -10 c-3 -3 -9 2 -12 12 -6 14 -5 15 5 6 7 -7 10 -15 7 -18z m59 3 c0 -13
-1 -17 -4 -10 -3 6 -10 9 -16 5 -7 -4 -6 1 2 10 17 21 17 21 18 -5z m159 3 c0
-16 -3 -17 -14 -9 -12 10 -7 19 13 28 1 0 1 -9 1 -19z m203 6 c8 -10 7 -14 -2
-14 -8 0 -14 6 -14 14 0 7 1 13 2 13 2 0 8 -6 14 -13z m1522 -1 c14 8 11 -2
-4 -14 -10 -8 -13 -6 -14 11 0 12 1 16 4 9 3 -6 9 -10 14 -6z m-2490 -19 c-10
-9 -11 -8 -5 6 3 10 9 15 12 12 3 -3 0 -11 -7 -18z m43 7 c3 -8 2 -12 -4 -9
-6 3 -10 10 -10 16 0 14 7 11 14 -7z m106 8 c0 -5 -7 -9 -15 -9 -8 0 -12 4 -9
9 3 4 9 8 15 8 5 0 9 -4 9 -8z m57 -9 c0 -9 -4 -10 -14 -2 -7 6 -13 12 -13 14
0 1 6 2 13 2 8 0 14 -6 14 -14z m259 -19 c3 -16 2 -26 -1 -23 -3 4 -8 19 -11
35 -3 16 -2 26 1 23 3 -4 8 -19 11 -35z m34 30 c0 -8 -19 -13 -24 -6 -3 5 1 9
9 9 8 0 15 -2 15 -3z m165 -3 c-9 -8 -36 -10 -30 -2 2 4 11 8 20 8 8 0 13 -3
10 -6z m36 -14 c-10 -9 -11 -8 -5 6 3 10 9 15 12 12 3 -3 0 -11 -7 -18z m1929
19 c0 -2 -7 -7 -16 -10 -8 -3 -12 -2 -9 4 6 10 25 14 25 6z m-3315 -24 c-3 -3
-11 0 -18 7 -9 10 -8 11 6 5 10 -3 15 -9 12 -12z m955 -12 c-13 -24 -14 -24
-31 -2 -13 15 -12 16 2 4 14 -10 18 -10 23 3 3 8 8 15 11 15 3 0 1 -9 -5 -20z
m125 10 c-4 -6 -1 -18 7 -27 12 -15 11 -15 -9 -3 -16 11 -19 17 -11 27 13 16
22 17 13 3z m40 0 c3 -6 -1 -7 -9 -4 -18 7 -21 14 -7 14 6 0 13 -4 16 -10z
m168 -13 c4 3 7 4 7 0 0 -17 -20 -14 -36 6 -19 22 -19 22 2 4 11 -9 24 -14 27
-10z m77 20 c0 -2 -8 -12 -19 -21 -16 -15 -19 -15 -24 -2 -4 10 -1 13 7 10 8
-3 17 -1 21 5 6 11 15 15 15 8z m157 -3 c-3 -3 -12 -4 -19 -1 -8 3 -5 6 6 6
11 1 17 -2 13 -5z m31 -13 c-7 -9 -13 -18 -15 -20 -1 -2 -1 5 0 16 0 11 7 20
14 20 10 0 10 -4 1 -16z m1719 12 c-4 -3 1 -16 10 -27 18 -21 18 -21 -4 -2
-25 21 -30 36 -11 36 6 0 8 -3 5 -7z m47 -1 c3 -5 -1 -9 -9 -9 -8 0 -12 4 -9
9 3 4 7 8 9 8 2 0 6 -4 9 -8z m-3200 -16 c42 -8 41 -13 -2 -12 -23 1 -39 6
-39 13 0 7 3 10 7 8 3 -2 19 -6 34 -9z m374 -11 c-3 -3 -9 2 -12 12 -6 14 -5
15 5 6 7 -7 10 -15 7 -18z m549 3 c-3 -8 -6 -5 -6 6 -1 11 2 17 5 13 3 -3 4
-12 1 -19z m-776 -5 c13 -16 12 -17 -3 -4 -10 7 -18 15 -18 17 0 8 8 3 21 -13z
m49 13 c0 -3 -4 -8 -10 -11 -5 -3 -10 -1 -10 4 0 6 5 11 10 11 6 0 10 -2 10
-4z m237 -16 c1 -11 -2 -20 -5 -20 -4 0 -8 9 -9 20 -1 11 2 20 5 20 4 0 8 -9
9 -20z m83 8 c0 -3 -9 -6 -20 -5 -11 1 -20 5 -20 9 0 3 9 6 20 5 11 -1 20 -5
20 -9z m106 -1 c4 -3 -4 -4 -16 -2 -30 6 -40 16 -12 12 12 -2 24 -6 28 -10z
m171 -7 c10 -13 8 -16 -6 -16 -13 0 -17 6 -13 19 2 10 5 16 6 15 1 -2 7 -10
13 -18z m523 10 c0 -5 -5 -10 -11 -10 -5 0 -7 5 -4 10 3 6 8 10 11 10 2 0 4
-4 4 -10z m144 2 c3 -5 -1 -9 -9 -9 -8 0 -12 4 -9 9 3 4 7 8 9 8 2 0 6 -4 9
-8z m-1221 -15 c3 -8 -1 -14 -8 -14 -7 0 -11 6 -8 14 3 7 6 13 8 13 2 0 5 -6
8 -13z m-326 -17 c1 -11 -2 -20 -5 -20 -4 0 -8 9 -9 20 -1 11 2 20 5 20 4 0 8
-9 9 -20z m38 2 c-3 -3 -11 0 -18 7 -9 10 -8 11 6 5 10 -3 15 -9 12 -12z m175
13 c0 -2 -6 -8 -13 -14 -10 -8 -14 -7 -14 2 0 8 6 14 14 14 7 0 13 -1 13 -2z
m625 -13 c-3 -3 -11 0 -18 7 -9 10 -8 11 6 5 10 -3 15 -9 12 -12z m90 8 c-3
-5 -12 -10 -18 -10 -7 0 -6 4 3 10 19 12 23 12 15 0z m271 -20 c0 -16 -4 -30
-8 -30 -4 0 -6 10 -4 23 3 12 5 25 5 30 1 4 3 7 5 7 2 0 3 -13 2 -30z m170 18
c3 -4 -1 -5 -10 -4 -8 1 -18 5 -22 8 -3 4 1 5 10 4 8 -1 18 -5 22 -8z m1952
-5 c-6 -7 -12 -13 -13 -13 -2 0 -5 6 -8 13 -3 7 3 13 14 13 13 0 15 -3 7 -13z
m-3220 -18 c-3 -3 -9 2 -12 12 -6 14 -5 15 5 6 7 -7 10 -15 7 -18z m35 10 c-3
-9 -8 -14 -10 -11 -3 3 -2 9 2 15 9 16 15 13 8 -4z m297 0 c0 -12 -19 -12 -23
0 -4 9 -1 12 9 8 7 -3 14 -7 14 -8z m148 -10 c-3 -3 -9 2 -12 12 -6 14 -5 15
5 6 7 -7 10 -15 7 -18z m199 3 c0 -13 -1 -17 -4 -10 -3 6 -10 9 -16 5 -7 -4
-6 1 2 10 17 21 17 21 18 -5z m350 16 c-3 -3 -12 -4 -19 -1 -8 3 -5 6 6 6 11
1 17 -2 13 -5z m170 -16 c-3 -8 -6 -5 -6 6 -1 11 2 17 5 13 3 -3 4 -12 1 -19z
m242 8 c9 -10 8 -15 -2 -19 -8 -3 -13 3 -13 14 0 23 0 23 15 5z m-882 -18 c-3
-8 -6 -5 -6 6 -1 11 2 17 5 13 3 -3 4 -12 1 -19z m49 -6 c-17 -16 -18 -16 -5
5 7 12 15 20 18 17 3 -2 -3 -12 -13 -22z m254 18 c0 -5 -4 -10 -10 -10 -5 0
-10 5 -10 10 0 6 5 10 10 10 6 0 10 -4 10 -10z m91 -13 c-10 -9 -11 -8 -5 6 3
10 9 15 12 12 3 -3 0 -11 -7 -18z m378 9 c9 -11 9 -16 -1 -22 -7 -4 -10 -4 -6
1 4 4 3 14 -3 22 -6 7 -9 13 -6 13 2 0 10 -6 16 -14z m65 6 c3 -5 -1 -9 -9 -9
-8 0 -12 4 -9 9 3 4 7 8 9 8 2 0 6 -4 9 -8z m106 4 c0 -3 -4 -8 -10 -11 -5 -3
-10 -1 -10 4 0 6 5 11 10 11 6 0 10 -2 10 -4z m1691 -13 c13 -16 12 -17 -3 -4
-17 13 -22 21 -14 21 2 0 10 -8 17 -17z m-3258 -8 c-3 -9 -8 -14 -10 -11 -3 3
-2 9 2 15 9 16 15 13 8 -4z m482 6 c3 -5 2 -12 -3 -15 -5 -3 -9 1 -9 9 0 17 3
19 12 6z m881 0 c-4 -5 0 -11 6 -14 7 -3 3 -4 -9 -4 -17 1 -19 4 -11 14 12 15
22 18 14 4z m-1431 -11 c3 -6 -1 -7 -9 -4 -18 7 -21 14 -7 14 6 0 13 -4 16
-10z m915 -4 c-7 -7 -13 -7 -20 0 -6 6 -3 10 10 10 13 0 16 -4 10 -10z m120
10 c0 -2 -7 -7 -16 -10 -8 -3 -12 -2 -9 4 6 10 25 14 25 6z m59 -19 c14 2 22
0 18 -3 -4 -4 -17 -8 -29 -8 -13 -1 -30 -6 -38 -11 -13 -8 -13 -6 -2 8 8 9 11
22 7 29 -4 7 -1 6 7 -3 7 -9 23 -14 37 -12z m225 14 c4 -5 -3 -7 -14 -4 -23 6
-26 13 -6 13 8 0 17 -4 20 -9z m187 -8 c13 -16 12 -17 -3 -4 -17 13 -22 21
-14 21 2 0 10 -8 17 -17z m-1573 -18 c-3 -3 -9 2 -12 12 -6 14 -5 15 5 6 7 -7
10 -15 7 -18z m1454 13 c-6 -6 -22 -13 -34 -15 -18 -2 -19 -1 -8 6 8 5 17 8
21 5 4 -2 10 0 14 6 3 5 9 10 13 10 3 0 1 -5 -6 -12z m152 -4 c3 -8 2 -12 -4
-9 -6 3 -10 10 -10 16 0 14 7 11 14 -7z m52 -2 c0 -10 -8 -18 -16 -18 -9 0
-17 6 -17 13 0 7 4 10 8 7 4 -2 10 0 14 6 9 14 11 13 11 -8z m-709 -14 c-3 -8
-6 -5 -6 6 -1 11 2 17 5 13 3 -3 4 -12 1 -19z m50 0 c-3 -8 -6 -5 -6 6 -1 11
2 17 5 13 3 -3 4 -12 1 -19z m252 4 c7 -13 6 -19 -2 -19 -7 0 -13 9 -13 19 0
10 1 18 3 18 1 0 7 -8 12 -18z m306 9 c3 -5 2 -12 -3 -15 -5 -3 -9 1 -9 9 0
17 3 19 12 6z m-695 -21 c0 -5 -2 -10 -4 -10 -3 0 -8 5 -11 10 -3 6 -1 10 4
10 6 0 11 -4 11 -10z m317 -5 c0 -8 -4 -12 -9 -9 -5 3 -6 10 -3 15 9 13 12 11
12 -6z m43 0 c0 -1 -10 -10 -22 -21 -17 -14 -20 -15 -9 -2 7 9 10 22 6 27 -3
7 0 8 9 5 9 -3 16 -7 16 -9z m115 -3 c-3 -3 -11 0 -18 7 -9 10 -8 11 6 5 10
-3 15 -9 12 -12z m39 10 c3 -5 -1 -9 -9 -9 -8 0 -12 4 -9 9 3 4 7 8 9 8 2 0 6
-4 9 -8z m-284 -16 c0 -2 -8 -10 -17 -17 -16 -13 -17 -12 -4 4 13 16 21 21 21
13z m24 -12 c3 -8 2 -12 -4 -9 -6 3 -10 10 -10 16 0 14 7 11 14 -7z m182 -10
c-3 -15 -8 -29 -11 -32 -3 -3 -3 5 -1 19 2 13 5 27 5 32 1 4 3 7 6 7 3 0 3
-12 1 -26z m181 4 c-3 -8 -6 -5 -6 6 -1 11 2 17 5 13 3 -3 4 -12 1 -19z m173
16 c0 -8 -19 -13 -24 -6 -3 5 1 9 9 9 8 0 15 -2 15 -3z m-310 -18 c0 -2 -7 -7
-16 -10 -8 -3 -12 -2 -9 4 6 10 25 14 25 6z m49 -12 c10 7 9 -20 -2 -29 -4 -3
-5 -2 -2 1 2 4 -4 14 -13 23 -10 9 -12 12 -5 8 6 -5 16 -6 22 -3z m201 -1 c12
10 12 9 1 -5 -18 -24 -28 -23 -34 5 -5 20 -5 20 7 5 10 -14 15 -15 26 -5z
m-137 -6 c4 3 7 1 7 -5 0 -17 -16 -15 -31 6 -12 15 -12 16 2 5 9 -7 19 -10 22
-6z m-259 -5 c3 -5 -1 -9 -9 -9 -8 0 -12 4 -9 9 3 4 7 8 9 8 2 0 6 -4 9 -8z
m287 -39 c13 -16 12 -17 -3 -4 -17 13 -22 21 -14 21 2 0 10 -8 17 -17z m39 3
c0 -3 -4 -8 -10 -11 -5 -3 -10 -1 -10 4 0 6 5 11 10 11 6 0 10 -2 10 -4z
m-2000 -282 c0 -8 -19 -13 -24 -6 -3 5 1 9 9 9 8 0 15 -2 15 -3z m4303 -218
c4 -10 1 -13 -8 -9 -8 3 -12 9 -9 14 7 12 11 11 17 -5z m-4483 -66 c0 -5 -5
-10 -11 -10 -5 0 -7 5 -4 10 3 6 8 10 11 10 2 0 4 -4 4 -10z m4510 6 c0 -2 -8
-10 -17 -17 -16 -13 -17 -12 -4 4 13 16 21 21 21 13z m-4353 -81 c0 -8 -4 -12
-9 -9 -5 3 -6 10 -3 15 9 13 12 11 12 -6z m-73 -3 c3 -5 -1 -9 -9 -9 -8 0 -12
4 -9 9 3 4 7 8 9 8 2 0 6 -4 9 -8z m4436 -1 c0 -6 -4 -12 -8 -15 -5 -3 -9 1
-9 9 0 8 4 15 9 15 4 0 8 -4 8 -9z m43 -94 c3 -7 -3 -13 -14 -13 -13 0 -15 3
-7 13 6 7 12 13 13 13 2 0 5 -6 8 -13z m0 -54 c-4 -10 -9 -10 -18 -3 -6 5 -16
6 -20 2 -5 -4 -6 -2 -2 3 8 16 46 13 40 -2z m-4553 -9 c0 -8 -19 -13 -24 -6
-3 5 1 9 9 9 8 0 15 -2 15 -3z m4590 2 c0 -2 -7 -7 -16 -10 -8 -3 -12 -2 -9 4
6 10 25 14 25 6z m-32 -49 c8 -10 6 -13 -7 -13 -11 0 -17 6 -14 13 3 7 6 13 8
13 1 0 7 -6 13 -13z m-4372 -23 c1 -9 0 -13 -4 -10 -3 4 -7 14 -8 22 -1 9 0
13 4 10 3 -4 7 -14 8 -22z m4434 22 c0 -2 -7 -7 -16 -10 -8 -3 -12 -2 -9 4 6
10 25 14 25 6z m-50 -32 c0 -8 -19 -13 -24 -6 -3 5 1 9 9 9 8 0 15 -2 15 -3z
m64 -3 c3 -4 -4 -7 -14 -6 -27 2 -33 10 -10 12 11 1 22 -2 24 -6z m-44 -41 c0
-5 -4 -10 -10 -10 -5 0 -10 5 -10 10 0 6 5 10 10 10 6 0 10 -4 10 -10z m-4360
-40 c0 -5 -5 -10 -11 -10 -5 0 -7 5 -4 10 3 6 8 10 11 10 2 0 4 -4 4 -10z
m4334 2 c3 -5 -1 -9 -9 -9 -8 0 -12 4 -9 9 3 4 7 8 9 8 2 0 6 -4 9 -8z m61 -1
c-9 -8 -36 -10 -30 -2 2 4 11 8 20 8 8 0 13 -3 10 -6z m-4599 -16 c-1 -8 -5
-17 -8 -21 -5 -4 -4 16 1 34 3 9 9 -1 7 -13z m4614 2 c0 -2 -8 -12 -19 -21
-16 -15 -19 -15 -24 -2 -4 10 -1 13 7 10 8 -3 17 -1 21 5 6 11 15 15 15 8z
m-78 -39 c-8 -8 -9 -4 -5 13 4 13 8 18 11 10 2 -7 -1 -18 -6 -23z m103 -16
c-3 -3 -11 0 -18 7 -9 10 -8 11 6 5 10 -3 15 -9 12 -12z m-58 -6 c0 -9 -6 -12
-16 -8 -13 5 -14 3 -4 -9 10 -12 9 -15 -5 -15 -10 0 -18 8 -18 17 0 10 3 16 6
14 3 -2 12 0 20 6 8 5 15 9 16 9 0 0 1 -6 1 -14z m-4457 -6 c0 -5 -5 -10 -11
-10 -5 0 -7 5 -4 10 3 6 8 10 11 10 2 0 4 -4 4 -10z m74 2 c3 -5 -1 -9 -9 -9
-8 0 -12 4 -9 9 3 4 7 8 9 8 2 0 6 -4 9 -8z m4461 -32 c-3 -5 -14 -10 -23 -9
-14 0 -13 2 3 9 27 11 27 11 20 0z m-53 -27 c-6 -3 -9 -10 -5 -16 4 -7 -1 -6
-10 2 -21 17 -21 17 6 18 12 0 16 -1 9 -4z m43 -3 c3 -6 -1 -7 -9 -4 -18 7
-21 14 -7 14 6 0 13 -4 16 -10z m-80 -40 c-3 -5 -12 -10 -18 -10 -7 0 -6 4 3
10 19 12 23 12 15 0z m77 3 c-10 -4 -9 -10 5 -27 l18 -21 -22 19 c-23 19 -22
37 0 35 8 0 8 -2 -1 -6z m53 -22 c3 -5 2 -12 -3 -15 -5 -3 -9 1 -9 9 0 17 3
19 12 6z m-111 -39 c3 -5 -1 -9 -9 -9 -8 0 -12 4 -9 9 3 4 7 8 9 8 2 0 6 -4 9
-8z m110 -8 c3 -8 2 -12 -4 -9 -6 3 -10 10 -10 16 0 14 7 11 14 -7z m-84 -8
c0 -2 -8 -10 -17 -17 -16 -13 -17 -12 -4 4 13 16 21 21 21 13z m-47 -27 c-8
-8 -13 -7 -18 2 -5 8 -4 10 3 5 7 -4 12 -2 12 5 0 7 3 9 7 6 4 -4 2 -12 -4
-18z m117 1 c0 -5 -4 -10 -10 -10 -5 0 -10 5 -10 10 0 6 5 10 10 10 6 0 10 -4
10 -10z m-22 -45 c-3 -3 -9 2 -12 12 -6 14 -5 15 5 6 7 -7 10 -15 7 -18z m35
10 c-3 -9 -8 -14 -10 -11 -3 3 -2 9 2 15 9 16 15 13 8 -4z m-100 -34 c-12 -10
-20 -21 -18 -25 3 -3 2 -4 -2 -1 -13 10 -11 34 2 29 7 -3 16 -1 20 5 3 6 9 11
13 11 4 -1 -3 -9 -15 -19z m67 5 c0 -2 -6 -9 -14 -15 -11 -9 -16 -9 -22 0 -4
7 -3 9 4 5 6 -3 13 -2 17 4 6 10 15 14 15 6z m35 -5 c3 -5 2 -12 -3 -15 -5 -3
-9 1 -9 9 0 17 3 19 12 6z m41 -6 c-1 -8 -6 -18 -11 -22 -4 -4 -5 -2 -1 5 4 7
2 12 -6 12 -9 0 -9 3 2 10 19 12 19 13 16 -5z m-95 -33 c-7 -2 -18 1 -23 6 -8
8 -4 9 13 5 13 -4 18 -8 10 -11z m-4606 -12 c3 -5 1 -10 -4 -10 -6 0 -11 5
-11 10 0 6 2 10 4 10 3 0 8 -4 11 -10z m4685 -20 c0 -5 -4 -10 -10 -10 -5 0
-10 5 -10 10 0 6 5 10 10 10 6 0 10 -4 10 -10z m-84 -15 c-1 -8 -5 -17 -8 -21
-5 -4 -4 16 1 34 3 9 9 -1 7 -13z m-33 -32 c-4 -10 -9 -11 -19 -2 -18 15 -18
15 5 15 11 0 17 -5 14 -13z m112 -1 c-3 -3 -11 0 -18 7 -9 10 -8 11 6 5 10 -3
15 -9 12 -12z m-58 -14 c-3 -8 -6 -5 -6 6 -1 11 2 17 5 13 3 -3 4 -12 1 -19z
m-4617 2 c0 -5 -2 -10 -4 -10 -3 0 -8 5 -11 10 -3 6 -1 10 4 10 6 0 11 -4 11
-10z m160 0 c0 -5 -5 -10 -11 -10 -5 0 -7 5 -4 10 3 6 8 10 11 10 2 0 4 -4 4
-10z m4440 6 c0 -2 -7 -7 -16 -10 -8 -3 -12 -2 -9 4 6 10 25 14 25 6z m4 -24
c3 -5 -1 -9 -9 -9 -8 0 -12 4 -9 9 3 4 7 8 9 8 2 0 6 -4 9 -8z m100 -22 c-6
-6 -10 -3 -10 10 0 13 4 16 10 10 7 -7 7 -13 0 -20z m31 21 c3 -5 2 -12 -3
-15 -5 -3 -9 1 -9 9 0 17 3 19 12 6z m-202 -16 c-3 -9 -8 -14 -10 -11 -3 3 -2
9 2 15 9 16 15 13 8 -4z m144 -1 c-2 -3 -17 -7 -33 -10 -17 -2 -24 -1 -17 4
13 8 58 14 50 6z m-59 -49 c-3 -3 -9 2 -12 12 -6 14 -5 15 5 6 7 -7 10 -15 7
-18z m-78 -15 c0 -5 -2 -10 -4 -10 -3 0 -8 5 -11 10 -3 6 -1 10 4 10 6 0 11
-4 11 -10z m44 -20 c-6 -6 -10 -3 -10 10 0 13 4 16 10 10 7 -7 7 -13 0 -20z
m103 24 c-3 -3 -12 -4 -19 -1 -8 3 -5 6 6 6 11 1 17 -2 13 -5z m-11 -16 c5 4
5 3 1 -2 -12 -15 -34 -15 -34 0 0 9 4 11 12 4 7 -5 16 -6 21 -2z m-119 -5 c-4
-3 -2 -11 3 -18 7 -8 5 -12 -4 -12 -8 0 -12 7 -11 16 5 22 4 21 12 21 3 0 3
-3 0 -7z m153 3 c0 -2 -8 -10 -17 -17 -16 -13 -17 -12 -4 4 13 16 21 21 21 13z
m46 -32 c1 -9 0 -13 -4 -10 -3 4 -7 14 -8 22 -1 9 0 13 4 10 3 -4 7 -14 8 -22z
m-92 -13 c15 -17 15 -19 1 -25 -10 -3 -14 -2 -10 5 4 5 1 16 -5 24 -18 22 -6
18 14 -4z m-28 -17 c1 -9 0 -13 -4 -10 -3 4 -7 14 -8 22 -1 9 0 13 4 10 3 -4
7 -14 8 -22z m81 0 c-3 -3 -12 -4 -19 -1 -8 3 -5 6 6 6 11 1 17 -2 13 -5z
m-183 -30 c3 -8 2 -12 -4 -9 -6 3 -10 10 -10 16 0 14 7 11 14 -7z m104 1 c3
-3 -4 -4 -16 -2 -12 2 -24 6 -28 10 -4 3 4 4 16 2 12 -2 25 -7 28 -10z m122
-37 c0 -19 -16 -5 -17 14 -2 18 0 20 7 8 5 -8 10 -18 10 -22z m-142 -3 c-3 -3
-9 2 -12 12 -6 14 -5 15 5 6 7 -7 10 -15 7 -18z m35 10 c-3 -9 -8 -14 -10 -11
-3 3 -2 9 2 15 9 16 15 13 8 -4z m-4498 -4 c3 -5 2 -12 -3 -15 -5 -3 -9 1 -9
9 0 17 3 19 12 6z m85 3 c0 -8 -19 -13 -24 -6 -3 5 1 9 9 9 8 0 15 -2 15 -3z
m4447 -20 c-3 -3 -12 -4 -19 -1 -8 3 -5 6 6 6 11 1 17 -2 13 -5z m-77 -19 c-6
-8 -8 -20 -4 -27 5 -10 4 -10 -6 -1 -11 10 -11 15 0 28 7 8 15 15 17 15 3 0 0
-7 -7 -15z m116 -17 c0 -17 -2 -17 -11 -4 -9 12 -15 13 -25 3 -12 -10 -12 -9
-2 4 16 22 38 20 38 -3z m-81 -8 c-3 -5 -12 -10 -18 -10 -7 0 -6 4 3 10 19 12
23 12 15 0z m30 -40 c2 -12 1 -20 -2 -16 -4 4 -8 16 -10 28 -4 28 6 18 12 -12z
m120 20 c3 -5 1 -10 -4 -10 -6 0 -11 5 -11 10 0 6 2 10 4 10 3 0 8 -4 11 -10z
m-4560 -39 c3 -5 2 -12 -3 -15 -5 -3 -9 1 -9 9 0 17 3 19 12 6z m4521 -33 c5
4 6 3 2 -2 -4 -5 -4 -14 2 -20 6 -8 2 -12 -13 -13 -12 0 -16 1 -9 4 10 4 9 10
-5 26 -12 15 -13 18 -2 9 9 -6 20 -8 25 -4z m21 -10 c-3 -8 -6 -5 -6 6 -1 11
2 17 5 13 3 -3 4 -12 1 -19z m-60 -11 c0 -8 -6 -14 -14 -14 -9 0 -10 4 -2 14
6 7 12 13 14 13 1 0 2 -6 2 -13z m44 -84 c13 -16 12 -17 -3 -4 -10 7 -18 15
-18 17 0 8 8 3 21 -13z m-5 -35 c1 -8 -5 -15 -12 -15 -10 0 -11 4 -5 10 7 7 5
15 -7 24 -16 13 -15 14 2 5 11 -5 20 -16 22 -24z m53 9 c-2 -1 -13 -9 -24 -17
-19 -14 -19 -14 -6 3 7 9 18 17 24 17 6 0 8 -1 6 -3z m-11 -62 c-3 -3 -9 2
-12 12 -6 14 -5 15 5 6 7 -7 10 -15 7 -18z m-20 -20 c-3 -3 -9 2 -12 12 -6 14
-5 15 5 6 7 -7 10 -15 7 -18z m-401 -767 c-3 -8 -6 -5 -6 6 -1 11 2 17 5 13 3
-3 4 -12 1 -19z m-302 -28 c1 -10 -2 -17 -6 -14 -4 2 -7 13 -6 24 2 23 10 17
12 -10z m85 -2 c0 -19 -16 -5 -17 14 -2 18 0 20 7 8 5 -8 10 -18 10 -22z m116
-8 c0 -42 -4 -47 -11 -11 -3 18 2 51 9 51 1 0 2 -18 2 -40z m69 -7 c-18 -17
-18 -17 -6 0 11 14 11 20 0 35 -12 16 -12 16 6 0 19 -18 19 -18 0 -35z m32 5
c-3 -8 -6 -5 -6 6 -1 11 2 17 5 13 3 -3 4 -12 1 -19z m38 13 c3 -5 2 -12 -3
-15 -5 -3 -9 1 -9 9 0 17 3 19 12 6z m-345 -36 c0 -1 -6 -7 -13 -13 -10 -8
-13 -6 -13 7 0 11 6 17 13 14 7 -3 13 -6 13 -8z m127 -29 c0 -9 -6 -12 -16 -8
-11 4 -11 7 -2 10 9 3 7 10 -6 26 -18 21 -18 21 3 3 11 -9 21 -23 21 -31z
m-40 11 c0 -8 -6 -14 -14 -14 -9 0 -10 4 -2 14 6 7 12 13 14 13 1 0 2 -6 2
-13z m95 -11 c10 6 11 4 0 -7 -10 -11 -15 -10 -30 6 -15 17 -15 18 0 6 9 -7
23 -9 30 -5z m68 10 c0 -2 -7 -7 -16 -10 -8 -3 -12 -2 -9 4 6 10 25 14 25 6z
m-342 -31 c-3 -3 -9 2 -12 12 -6 14 -5 15 5 6 7 -7 10 -15 7 -18z m-24 -1 c3
-8 2 -12 -4 -9 -6 3 -10 10 -10 16 0 14 7 11 14 -7z m121 6 c3 -5 1 -10 -4
-10 -6 0 -11 5 -11 10 0 6 2 10 4 10 3 0 8 -4 11 -10z m242 -3 c0 -7 -9 -13
-19 -13 -18 0 -18 1 -2 13 10 7 18 13 19 13 1 0 2 -6 2 -13z m-203 -15 c3 -5
-1 -9 -9 -9 -8 0 -12 4 -9 9 3 4 7 8 9 8 2 0 6 -4 9 -8z m-149 -22 c-13 -14
-14 -20 -5 -20 7 0 11 -3 7 -6 -3 -3 -11 -3 -17 1 -8 5 -6 13 6 26 9 10 19 19
22 19 3 0 -3 -9 -13 -20z m30 -9 c3 -5 2 -12 -3 -15 -5 -3 -9 1 -9 9 0 17 3
19 12 6z m83 -4 c8 -10 6 -13 -11 -14 -12 0 -16 1 -9 4 6 3 10 9 6 14 -8 14 2
11 14 -4z m159 -3 c-3 -3 -12 -4 -19 -1 -8 3 -5 6 6 6 11 1 17 -2 13 -5z
m-341 -19 c-1 -8 -5 -17 -8 -21 -5 -4 -4 16 1 34 3 9 9 -1 7 -13z m137 0 c-3
-9 -8 -14 -10 -11 -3 3 -2 9 2 15 9 16 15 13 8 -4z m103 -7 c0 -11 -4 -14 -12
-8 -6 6 -13 8 -16 5 -2 -3 -5 1 -5 8 0 7 8 13 17 13 8 0 16 -8 16 -18z m38 -8
c-6 -6 -10 -3 -10 10 0 13 4 16 10 10 7 -7 7 -13 0 -20z m28 2 c3 -11 0 -19
-7 -19 -7 0 -10 8 -7 19 2 10 6 18 7 18 1 0 5 -8 7 -18z m-278 -8 c3 -8 2 -12
-4 -9 -6 3 -10 10 -10 16 0 14 7 11 14 -7z m41 -4 c-3 -5 -12 -10 -18 -10 -7
0 -6 4 3 10 19 12 23 12 15 0z m12 -32 c-3 -8 -6 -5 -6 6 -1 11 2 17 5 13 3
-3 4 -12 1 -19z m154 -1 c-10 -9 -11 -8 -5 6 3 10 9 15 12 12 3 -3 0 -11 -7
-18z m-75 1 c4 -7 3 -8 -5 -4 -6 4 -20 2 -29 -6 -15 -12 -16 -11 -3 5 16 20
27 22 37 5z m-123 -23 c-3 -9 -8 -14 -10 -11 -3 3 -2 9 2 15 9 16 15 13 8 -4z
m-103 -5 c8 -5 11 -10 5 -10 -5 0 -17 5 -25 10 -8 5 -10 10 -5 10 6 0 17 -5
25 -10z m135 -20 c3 -6 -1 -7 -9 -4 -18 7 -21 14 -7 14 6 0 13 -4 16 -10z m75
3 c0 -5 -5 -15 -10 -23 -7 -12 -9 -10 -7 8 1 19 17 33 17 15z m-83 -47 c0 -9
-6 -12 -16 -8 -11 4 -11 7 -2 10 9 3 7 10 -6 26 -18 21 -18 21 3 3 11 -9 21
-23 21 -31z m-168 16 c7 -13 6 -19 -2 -19 -7 0 -13 9 -13 19 0 10 1 18 3 18 1
0 7 -8 12 -18z m47 -1 c-4 -5 0 -11 6 -14 7 -3 3 -4 -9 -4 -17 1 -19 4 -11 14
12 15 22 18 14 4z m81 -6 c0 -8 -4 -12 -9 -9 -5 3 -6 10 -3 15 9 13 12 11 12
-6z m72 -17 c-5 -10 -11 -18 -12 -18 -2 0 -3 8 -3 18 0 10 6 19 13 19 8 0 9
-6 2 -19z m-3125 -10 c-4 -5 -9 -7 -12 -4 -3 3 -12 0 -21 -7 -14 -10 -14 -10
-4 4 13 16 46 23 37 7z m13 -28 c1 -11 -2 -20 -7 -20 -6 0 -7 17 -1 38 3 8 7
-1 8 -18z m2998 12 c-3 -3 0 -10 5 -17 7 -8 5 -12 -5 -12 -8 0 -13 3 -10 5 3
3 0 10 -5 17 -7 8 -5 12 5 12 8 0 13 -3 10 -5z m43 -9 c-12 -15 -22 -18 -14
-4 4 5 0 11 -6 14 -7 3 -3 4 9 4 17 -1 19 -4 11 -14z m-145 -8 c-3 -9 -8 -14
-10 -11 -3 3 -2 9 2 15 9 16 15 13 8 -4z m-36 -9 c0 -8 -6 -12 -15 -9 -11 5
-11 7 0 14 7 5 13 9 14 9 0 0 1 -6 1 -14z m110 -8 c-3 -8 -6 -5 -6 6 -1 11 2
17 5 13 3 -3 4 -12 1 -19z m-42 -8 c3 -6 -1 -7 -9 -4 -18 7 -21 14 -7 14 6 0
13 -4 16 -10z m-2865 -4 c0 -2 -8 -10 -17 -17 -16 -13 -17 -12 -4 4 13 16 21
21 21 13z m2775 -24 c-3 -3 -11 0 -18 7 -9 10 -8 11 6 5 10 -3 15 -9 12 -12z
m-2758 -18 c-3 -3 -12 -4 -19 -1 -8 3 -5 6 6 6 11 1 17 -2 13 -5z m73 -10 c0
-8 -19 -13 -24 -6 -3 5 1 9 9 9 8 0 15 -2 15 -3z m25 -4 c3 -5 1 -10 -4 -10
-6 0 -11 5 -11 10 0 6 2 10 4 10 3 0 8 -4 11 -10z m59 -18 c3 -5 -1 -9 -9 -9
-8 0 -12 4 -9 9 3 4 7 8 9 8 2 0 6 -4 9 -8z m183 -7 c0 -8 -4 -12 -9 -9 -5 3
-6 10 -3 15 9 13 12 11 12 -6z m-356 -12 c13 -16 12 -17 -3 -4 -10 7 -18 15
-18 17 0 8 8 3 21 -13z m291 5 c-6 -6 -22 -13 -34 -15 -18 -2 -19 -1 -8 6 8 5
17 8 21 5 4 -2 10 0 14 6 3 5 9 10 13 10 3 0 1 -5 -6 -12z m-233 -1 c-2 -1
-13 -9 -24 -17 -19 -14 -19 -14 -6 3 7 9 18 17 24 17 6 0 8 -1 6 -3z m276 -7
c3 -5 1 -10 -4 -10 -6 0 -11 5 -11 10 0 6 2 10 4 10 3 0 8 -4 11 -10z m-211
-39 c14 -15 15 -21 4 -27 -7 -4 -10 -3 -5 1 4 5 0 17 -10 27 -9 10 -14 18 -11
18 3 0 13 -9 22 -19z m149 4 c-3 -9 -8 -14 -10 -11 -3 3 -2 9 2 15 9 16 15 13
8 -4z m91 -4 c14 -15 15 -21 4 -27 -7 -4 -10 -3 -5 1 4 5 0 17 -10 27 -9 10
-14 18 -11 18 3 0 13 -9 22 -19z m117 2 c8 -9 9 -14 2 -10 -6 4 -13 1 -16 -5
-3 -7 -4 -3 -4 10 1 26 1 26 18 5z m-47 -1 c3 -5 -1 -9 -9 -9 -8 0 -12 4 -9 9
3 4 7 8 9 8 2 0 6 -4 9 -8z m2176 3 c0 -2 -6 -8 -13 -14 -10 -8 -14 -7 -14 2
0 8 6 14 14 14 7 0 13 -1 13 -2z m-2514 -14 c-4 -5 0 -11 6 -14 7 -3 3 -4 -9
-4 -17 1 -19 4 -11 14 12 15 22 18 14 4z m240 0 c-4 -5 0 -11 6 -14 7 -3 3 -4
-9 -4 -17 1 -19 4 -11 14 12 15 22 18 14 4z m-277 -35 c-3 -3 -11 5 -18 17
-13 21 -12 21 5 5 10 -10 16 -20 13 -22z m373 20 c10 6 11 4 0 -7 -10 -11 -15
-10 -30 6 -15 17 -15 18 0 6 9 -7 23 -9 30 -5z m78 10 c0 -2 -8 -10 -17 -17
-16 -13 -17 -12 -4 4 13 16 21 21 21 13z m-317 -26 c3 -11 1 -18 -4 -14 -5 3
-9 12 -9 20 0 20 7 17 13 -6z m111 -15 c3 3 4 2 1 -2 -9 -11 -36 -12 -29 -2 3
6 2 16 -3 22 -4 7 -1 5 8 -5 9 -9 19 -15 23 -13z m336 31 c0 -2 -8 -10 -17
-17 -16 -13 -17 -12 -4 4 13 16 21 21 21 13z m35 -5 c3 -5 2 -12 -3 -15 -5 -3
-9 1 -9 9 0 17 3 19 12 6z m-534 -14 c-6 -8 -9 -16 -6 -19 3 -3 -3 -11 -12
-19 -16 -13 -17 -12 -4 4 7 9 10 17 6 17 -4 0 -2 7 5 15 7 8 15 15 17 15 3 0
0 -6 -6 -13z m254 4 c3 -5 2 -12 -3 -15 -5 -3 -9 1 -9 9 0 17 3 19 12 6z m70
-1 c-3 -5 -12 -10 -18 -10 -7 0 -6 4 3 10 19 12 23 12 15 0z m2059 1 c-8 -9
-44 -11 -44 -3 0 4 11 8 25 8 13 0 22 -2 19 -5z m79 -9 c-5 -11 -7 -11 -14 0
-8 11 -13 5 -11 -13 1 -3 -6 -6 -14 -6 -12 0 -12 3 1 17 18 20 45 22 38 2z
m-2430 -5 c3 -8 -1 -14 -8 -14 -7 0 -11 6 -8 14 3 7 6 13 8 13 2 0 5 -6 8 -13z
m82 -15 c-3 -3 -11 0 -18 7 -9 10 -8 11 6 5 10 -3 15 -9 12 -12z m366 0 c-7
-2 -18 1 -23 6 -8 8 -4 9 13 5 13 -4 18 -8 10 -11z m75 -12 c0 -16 -4 -30 -7
-30 -4 0 -6 14 -5 30 0 17 4 30 7 30 4 0 6 -13 5 -30z m118 21 c3 -5 -2 -15
-12 -22 -15 -12 -16 -12 -5 2 7 9 10 19 6 22 -3 4 -4 7 0 7 3 0 8 -4 11 -9z
m1463 -6 c0 -8 -4 -12 -9 -9 -5 3 -6 10 -3 15 9 13 12 11 12 -6z m63 11 c0 -2
-7 -7 -16 -10 -8 -3 -12 -2 -9 4 6 10 25 14 25 6z m16 -25 c0 -11 -5 -17 -13
-14 -10 4 -11 9 -2 19 15 18 15 18 15 -5z m-2140 -13 c-2 -13 0 -30 5 -39 5
-11 4 -16 -6 -16 -8 0 -11 7 -7 16 5 14 4 14 -14 1 -18 -14 -18 -13 1 9 11 13
19 25 18 27 -5 7 -3 24 2 24 3 0 3 -10 1 -22z m279 13 c-9 -8 -36 -10 -30 -2
2 4 11 8 20 8 8 0 13 -3 10 -6z m92 -13 c-3 -8 -6 -5 -6 6 -1 11 2 17 5 13 3
-3 4 -12 1 -19z m330 5 c0 -9 -4 -10 -13 -2 -7 6 -19 7 -25 3 -7 -4 -9 -3 -5
4 9 15 43 11 43 -5z m78 7 c3 -5 1 -10 -4 -10 -6 0 -11 5 -11 10 0 6 2 10 4
10 3 0 8 -4 11 -10z m1175 6 c0 -2 -8 -10 -17 -17 -16 -13 -17 -12 -4 4 13 16
21 21 21 13z m-55 -16 c3 -6 -1 -7 -9 -4 -18 7 -21 14 -7 14 6 0 13 -4 16 -10z
m-1824 -17 c13 -16 12 -17 -3 -4 -17 13 -22 21 -14 21 2 0 10 -8 17 -17z m111
-19 c-9 -16 -10 -14 -9 8 1 15 6 23 11 18 4 -4 4 -16 -2 -26z m92 6 c-9 -16
-18 -30 -20 -30 -3 0 -2 5 1 10 4 6 1 18 -6 26 -10 12 -9 13 4 9 8 -4 18 -2
22 4 14 23 13 10 -1 -19z m51 20 c3 -6 -1 -7 -9 -4 -18 7 -21 14 -7 14 6 0 13
-4 16 -10z m227 -9 c-5 -14 -4 -14 14 -1 18 14 18 14 5 -2 -17 -23 -27 -23
-33 0 -3 11 0 19 7 19 8 0 11 -7 7 -16z m313 9 c3 -6 -1 -7 -9 -4 -18 7 -21
14 -7 14 6 0 13 -4 16 -10z m848 -15 c-7 -21 -12 -19 -10 4 0 11 5 18 9 15 4
-3 5 -11 1 -19z m524 19 c-3 -3 -12 -4 -19 -1 -8 3 -5 6 6 6 11 1 17 -2 13 -5z
m80 -11 c-14 -14 -19 -15 -29 -4 -11 10 -10 11 3 6 10 -4 20 -2 24 4 3 6 9 11
13 11 3 0 -1 -8 -11 -17z m-2100 -8 c0 -8 -4 -12 -9 -9 -5 3 -6 10 -3 15 9 13
12 11 12 -6z m183 12 c0 -2 -8 -11 -18 -20 -15 -14 -19 -15 -19 -2 0 8 4 12 8
9 4 -2 10 0 14 6 6 10 15 14 15 7z m531 -6 c0 10 2 11 6 1 2 -6 10 -9 16 -5 7
3 9 3 5 -2 -4 -4 -2 -15 4 -24 9 -11 6 -10 -9 2 -12 11 -22 14 -24 8 -2 -6
-10 -1 -18 11 -13 21 -13 22 2 9 14 -11 17 -11 18 0z m105 -28 c-7 -38 -14
-38 -12 1 0 19 4 32 9 29 4 -2 5 -16 3 -30z m418 7 c-6 -6 -10 -3 -10 10 0 13
4 16 10 10 7 -7 7 -13 0 -20z m62 -21 c1 -22 -1 -38 -4 -35 -3 3 -6 24 -7 46
-1 22 1 38 4 35 3 -3 6 -24 7 -46z m140 36 c-1 -8 -5 -17 -8 -21 -5 -4 -4 16
1 34 3 9 9 -1 7 -13z m30 -8 c0 -13 -6 -24 -13 -24 -8 0 -8 7 0 24 13 29 15
29 13 0z m506 8 c3 0 9 -3 13 -7 4 -3 0 -5 -9 -4 -9 1 -22 8 -29 16 -10 10 -9
11 3 4 8 -5 18 -9 22 -9z m61 0 c-3 -9 -8 -14 -10 -11 -3 3 -2 9 2 15 9 16 15
13 8 -4z m-2107 -23 c-17 -16 -18 -16 -5 5 7 12 15 20 18 17 3 -2 -3 -12 -13
-22z m289 10 c-3 -3 -11 0 -18 7 -9 10 -8 11 6 5 10 -3 15 -9 12 -12z m296 1
c13 -16 12 -17 -3 -4 -17 13 -22 21 -14 21 2 0 10 -8 17 -17z m109 5 c0 -6 -3
-8 -7 -5 -3 4 -13 1 -22 -6 -14 -11 -14 -10 -2 6 15 20 31 22 31 5z m300 4 c0
-5 -7 -9 -15 -9 -8 0 -12 4 -9 9 3 4 9 8 15 8 5 0 9 -4 9 -8z m86 -20 c-17
-16 -18 -16 -5 5 7 12 15 20 18 17 3 -2 -3 -12 -13 -22z m31 6 c-3 -8 -6 -5
-6 6 -1 11 2 17 5 13 3 -3 4 -12 1 -19z m30 0 c-3 -8 -6 -5 -6 6 -1 11 2 17 5
13 3 -3 4 -12 1 -19z m464 -1 c-10 -9 -11 -8 -5 6 3 10 9 15 12 12 3 -3 0 -11
-7 -18z m180 6 c13 -16 12 -17 -3 -4 -10 7 -18 15 -18 17 0 8 8 3 21 -13z
m109 9 c0 -5 -7 -9 -15 -9 -8 0 -12 4 -9 9 3 4 9 8 15 8 5 0 9 -4 9 -8z m54
-8 c3 -8 2 -12 -4 -9 -6 3 -10 10 -10 16 0 14 7 11 14 -7z m37 -7 c-10 -9 -11
-8 -5 6 3 10 9 15 12 12 3 -3 0 -11 -7 -18z m-810 -4 c13 -16 12 -17 -3 -4
-10 7 -18 15 -18 17 0 8 8 3 21 -13z m272 4 c3 -8 -1 -14 -8 -14 -7 0 -11 6
-8 14 3 7 6 13 8 13 2 0 5 -6 8 -13z m480 0 c3 -8 -1 -14 -8 -14 -7 0 -11 6
-8 14 3 7 6 13 8 13 2 0 5 -6 8 -13z m90 0 c3 -8 -1 -14 -8 -14 -7 0 -11 6 -8
14 3 7 6 13 8 13 2 0 5 -6 8 -13z m-1158 -7 c-3 -5 -12 -10 -18 -10 -7 0 -6 4
3 10 19 12 23 12 15 0z m360 0 c-3 -5 -12 -10 -18 -10 -7 0 -6 4 3 10 19 12
23 12 15 0z m-1015 -15 c0 -1 -6 -7 -13 -13 -10 -8 -13 -6 -13 7 0 11 6 17 13
14 7 -3 13 -6 13 -8z m127 -30 c0 -8 -4 -12 -9 -9 -5 4 -7 9 -4 12 3 3 -2 15
-11 26 -18 21 -18 21 3 3 11 -9 21 -24 21 -32z m299 26 c0 -11 -5 -17 -13 -14
-10 4 -11 9 -2 19 15 18 15 18 15 -5z m71 13 c-3 -3 -12 -4 -19 -1 -8 3 -5 6
6 6 11 1 17 -2 13 -5z m283 -9 c-6 -8 -9 -19 -5 -24 4 -7 0 -8 -10 -5 -14 6
-14 8 1 25 20 22 32 26 14 4z m295 -3 c-3 -3 -11 0 -18 7 -9 10 -8 11 6 5 10
-3 15 -9 12 -12z m354 5 c8 -10 7 -14 -2 -14 -8 0 -14 6 -14 14 0 7 1 13 2 13
2 0 8 -6 14 -13z m197 -6 c0 -11 -5 -17 -13 -14 -10 4 -11 9 -2 19 15 18 15
18 15 -5z m285 2 c8 -9 9 -14 2 -10 -6 4 -13 1 -16 -5 -3 -7 -4 -3 -4 10 1 26
1 26 18 5z m-2184 -13 c-1 -11 -5 -20 -9 -20 -3 0 -6 9 -5 20 1 11 5 20 9 20
3 0 6 -9 5 -20z m459 8 c3 -4 -1 -5 -10 -4 -8 1 -18 5 -22 8 -3 4 1 5 10 4 8
-1 18 -5 22 -8z m48 4 c3 -5 -1 -9 -9 -9 -8 0 -12 4 -9 9 3 4 7 8 9 8 2 0 6
-4 9 -8z m57 -5 c-6 -8 -7 -18 -3 -22 4 -5 1 -5 -6 -1 -10 6 -10 11 -1 22 6 8
14 14 16 14 3 0 0 -6 -6 -13z m616 -4 c0 -9 -4 -10 -14 -2 -7 6 -13 12 -13 14
0 1 6 2 13 2 8 0 14 -6 14 -14z m53 11 c0 -8 -19 -13 -24 -6 -3 5 1 9 9 9 8 0
15 -2 15 -3z m301 -17 c-10 -9 -11 -8 -5 6 3 10 9 15 12 12 3 -3 0 -11 -7 -18z
m43 7 c3 -8 2 -12 -4 -9 -6 3 -10 10 -10 16 0 14 7 11 14 -7z m186 2 c-4 -4
-16 -4 -26 2 -16 9 -14 10 8 9 15 -1 23 -6 18 -11z m251 -9 c-10 -9 -11 -8 -5
6 3 10 9 15 12 12 3 -3 0 -11 -7 -18z m43 7 c3 -8 2 -12 -4 -9 -6 3 -10 10
-10 16 0 14 7 11 14 -7z m-1698 -3 c-4 -5 0 -11 6 -14 7 -3 3 -4 -9 -4 -17 1
-19 4 -11 14 12 15 22 18 14 4z m242 -4 c8 -10 6 -13 -11 -14 -12 0 -16 1 -9
4 6 3 10 9 6 14 -8 14 2 11 14 -4z m1200 0 c8 -10 6 -13 -7 -13 -11 0 -17 6
-14 13 3 7 6 13 8 13 1 0 7 -6 13 -13z m-1758 -1 c0 -2 -7 -7 -16 -10 -8 -3
-12 -2 -9 4 6 10 25 14 25 6z m47 -11 c4 -4 3 -5 -4 -2 -6 4 -13 2 -15 -5 -3
-8 -6 -6 -10 4 -7 17 15 19 29 3z m365 1 c10 6 11 4 0 -7 -10 -11 -15 -10 -30
6 -15 17 -15 18 0 6 9 -7 23 -9 30 -5z m78 10 c0 -2 -8 -10 -17 -17 -16 -13
-17 -12 -4 4 13 16 21 21 21 13z m360 -2 c0 -8 -19 -13 -24 -6 -3 5 1 9 9 9 8
0 15 -2 15 -3z m35 -4 c3 -6 -1 -7 -9 -4 -18 7 -21 14 -7 14 6 0 13 -4 16 -10z
m82 4 c-3 -3 -12 -4 -19 -1 -8 3 -5 6 6 6 11 1 17 -2 13 -5z m353 2 c0 -2 -7
-7 -16 -10 -8 -3 -12 -2 -9 4 6 10 25 14 25 6z m37 -2 c-3 -3 -12 -4 -19 -1
-8 3 -5 6 6 6 11 1 17 -2 13 -5z m320 -12 c-20 -22 -48 -25 -40 -4 4 9 8 10
13 2 5 -8 11 -6 20 5 7 8 15 15 18 15 3 0 -2 -8 -11 -18z m-1539 -17 c-3 -3
-9 2 -12 12 -6 14 -5 15 5 6 7 -7 10 -15 7 -18z m307 6 c-3 -6 -11 -11 -16
-11 -5 0 -4 6 3 14 14 16 24 13 13 -3z m195 -2 c0 -5 -4 -9 -8 -9 -5 0 -9 7
-9 15 0 8 4 12 9 9 4 -3 8 -9 8 -15z m93 6 c-3 -9 -8 -14 -10 -11 -3 3 -2 9 2
15 9 16 15 13 8 -4z m-629 -7 c-3 -4 -9 -8 -15 -8 -5 0 -9 4 -9 8 0 5 7 9 15
9 8 0 12 -4 9 -9z m131 2 c3 -5 1 -10 -4 -10 -6 0 -11 5 -11 10 0 6 2 10 4 10
3 0 8 -4 11 -10z m262 -5 c0 -8 -4 -12 -9 -9 -5 3 -6 10 -3 15 9 13 12 11 12
-6z m283 7 c0 -4 -10 -9 -22 -9 -18 -2 -20 0 -8 7 18 12 30 13 30 2z m285 -1
c-3 -2 -16 -6 -28 -8 -15 -2 -18 0 -9 5 14 9 45 12 37 3z m213 -6 c3 -3 -4 -4
-16 -2 -12 2 -24 6 -28 10 -4 3 4 4 16 2 12 -2 25 -7 28 -10z m281 0 c3 -3 -7
-4 -23 -1 -16 3 -31 8 -35 11 -3 3 7 4 23 1 16 -3 31 -8 35 -11z m480 0 c3 -3
-7 -4 -23 -1 -16 3 -31 8 -35 11 -3 3 7 4 23 1 16 -3 31 -8 35 -11z m-1196 -9
c6 -15 -17 -16 -30 -1 -4 4 -2 5 5 1 6 -4 12 -2 12 3 0 15 7 14 13 -3z m-848
-14 c-3 -3 -11 0 -18 7 -9 10 -8 11 6 5 10 -3 15 -9 12 -12z m50 9 c-9 -8 -36
-10 -30 -2 2 4 11 8 20 8 8 0 13 -3 10 -6z m872 -11 c-1 -11 -5 -20 -9 -20 -3
0 -6 9 -5 20 1 11 5 20 9 20 3 0 6 -9 5 -20z m247 12 c2 -4 -4 -8 -14 -8 -10
0 -16 4 -14 8 3 4 9 8 14 8 5 0 11 -4 14 -8z m321 -2 c-4 -6 -1 -19 6 -28 10
-13 8 -12 -9 2 -17 15 -19 22 -10 28 17 10 20 10 13 -2z m480 0 c-3 -5 -12
-10 -18 -10 -7 0 -6 4 3 10 19 12 23 12 15 0z m155 6 c0 -2 -7 -7 -16 -10 -8
-3 -12 -2 -9 4 6 10 25 14 25 6z m-2169 -20 c5 3 9 0 9 -6 0 -15 -23 -7 -26 8
-1 7 0 8 3 2 2 -5 9 -8 14 -4z m179 -1 c-6 -8 -9 -19 -5 -24 4 -7 0 -8 -10 -5
-14 6 -14 8 1 25 20 22 32 26 14 4z m90 11 c0 -2 -8 -10 -17 -17 -16 -13 -17
-12 -4 4 13 16 21 21 21 13z m441 -13 c13 -16 12 -17 -3 -4 -17 13 -22 21 -14
21 2 0 10 -8 17 -17z m87 -6 c20 -21 20 -23 2 -23 -10 0 -16 4 -13 9 2 4 -1
14 -7 22 -20 24 -6 17 18 -8z m270 -2 c-3 -3 -9 2 -12 12 -6 14 -5 15 5 6 7
-7 10 -15 7 -18z m35 10 c-3 -9 -8 -14 -10 -11 -3 3 -2 9 2 15 9 16 15 13 8
-4z m205 -10 c-3 -3 -9 2 -12 12 -6 14 -5 15 5 6 7 -7 10 -15 7 -18z m35 10
c-3 -9 -8 -14 -10 -11 -3 3 -2 9 2 15 9 16 15 13 8 -4z m154 9 c-3 -3 -12 -4
-19 -1 -8 3 -5 6 6 6 11 1 17 -2 13 -5z m130 -16 c-3 -8 -6 -5 -6 6 -1 11 2
17 5 13 3 -3 4 -12 1 -19z m73 7 c-6 -8 -8 -20 -4 -27 5 -10 4 -10 -6 -1 -11
10 -11 15 0 28 7 8 15 15 17 15 3 0 0 -7 -7 -15z m207 2 c0 -8 -6 -14 -14 -14
-9 0 -10 4 -2 14 6 7 12 13 14 13 1 0 2 -6 2 -13z m70 7 c-3 -3 -12 -4 -19 -1
-8 3 -5 6 6 6 11 1 17 -2 13 -5z m-1120 -26 c-3 -8 -6 -5 -6 6 -1 11 2 17 5
13 3 -3 4 -12 1 -19z m274 9 c-6 -8 -7 -18 -3 -22 4 -5 1 -5 -6 -1 -10 6 -10
11 -1 22 6 8 14 14 16 14 3 0 0 -6 -6 -13z m148 -1 c9 -11 9 -16 -1 -22 -7 -4
-10 -4 -6 1 4 4 3 14 -3 22 -6 7 -9 13 -6 13 2 0 10 -6 16 -14z m165 -8 c1 -7
5 -20 10 -28 7 -12 6 -13 -4 -3 -8 7 -15 23 -17 35 -2 12 -1 19 3 16 3 -3 6
-12 8 -20z m-1239 3 c3 -5 2 -12 -3 -15 -5 -3 -9 1 -9 9 0 17 3 19 12 6z m83
-4 c8 -10 6 -13 -11 -14 -12 0 -16 1 -9 4 6 3 10 9 6 14 -8 14 2 11 14 -4z
m399 0 c0 -8 -6 -14 -14 -14 -9 0 -10 4 -2 14 6 7 12 13 14 13 1 0 2 -6 2 -13z
m481 0 c8 -10 6 -13 -7 -13 -11 0 -17 6 -14 13 3 7 6 13 8 13 1 0 7 -6 13 -13z
m78 4 c-4 -5 0 -11 6 -14 7 -3 3 -4 -9 -4 -17 1 -19 4 -11 14 12 15 22 18 14
4z m539 -1 c3 -6 -1 -7 -9 -4 -18 7 -21 14 -7 14 6 0 13 -4 16 -10z m240 0 c3
-6 -1 -7 -9 -4 -18 7 -21 14 -7 14 6 0 13 -4 16 -10z m-1944 -17 c13 -16 12
-17 -3 -4 -17 13 -22 21 -14 21 2 0 10 -8 17 -17z m366 11 c-3 -3 -12 -4 -19
-1 -8 3 -5 6 6 6 11 1 17 -2 13 -5z m86 -14 c-3 -12 -8 -19 -11 -16 -5 6 5 36
12 36 2 0 2 -9 -1 -20z m367 16 c0 -2 -8 -10 -17 -17 -16 -13 -17 -12 -4 4 13
16 21 21 21 13z m145 -22 c0 -25 -10 -23 -17 4 -3 10 0 19 6 19 6 0 11 -10 11
-23z m328 6 c-3 -12 -8 -19 -11 -16 -5 6 5 36 12 36 2 0 2 -9 -1 -20z m506 6
c9 -11 9 -16 -1 -22 -7 -4 -10 -4 -6 1 4 4 3 14 -3 22 -6 7 -9 13 -6 13 2 0
10 -6 16 -14z m231 8 c0 -8 -19 -13 -24 -6 -3 5 1 9 9 9 8 0 15 -2 15 -3z
m-2008 -36 c-8 -8 -9 -4 -5 13 4 13 8 18 11 10 2 -7 -1 -18 -6 -23z m241 24
c3 7 4 3 4 -9 -1 -13 -2 -23 -3 -23 0 0 -9 10 -20 22 -13 16 -14 19 -2 10 13
-10 17 -10 21 0z m120 -7 c-3 -9 -8 -14 -10 -11 -3 3 -2 9 2 15 9 16 15 13 8
-4z m175 2 c18 6 17 5 -8 -14 -13 -10 -16 -8 -17 10 0 12 1 17 4 10 2 -7 12
-9 21 -6z m88 -10 c1 -9 -2 -15 -7 -11 -5 3 -7 9 -4 14 3 4 0 11 -5 13 -6 3
-5 4 1 3 7 -1 13 -10 15 -19z m341 8 c0 -8 -4 -12 -9 -9 -5 3 -6 10 -3 15 9
13 12 11 12 -6z m71 -21 c1 -1 -6 -4 -18 -7 -11 -3 -17 -1 -14 4 3 6 0 18 -7
27 -10 12 -7 12 11 -3 14 -11 26 -20 28 -21z m169 14 c0 -13 -1 -17 -4 -10 -4
10 -8 10 -21 0 -12 -9 -11 -6 2 10 11 12 20 22 20 22 1 0 2 -10 3 -22z m41 -3
c-3 -3 -9 2 -12 12 -6 14 -5 15 5 6 7 -7 10 -15 7 -18z m159 10 c0 -8 -4 -12
-9 -9 -5 3 -6 10 -3 15 9 13 12 11 12 -6z m395 -17 c-8 -8 -9 -4 -5 13 4 13 8
18 11 10 2 -7 -1 -18 -6 -23z m-1737 -6 c-3 -3 0 -10 5 -17 7 -8 5 -12 -4 -12
-8 0 -13 7 -11 16 1 9 -3 23 -9 31 -10 13 -9 13 7 1 9 -8 15 -16 12 -19z m216
5 c-10 -9 -11 -8 -5 6 3 10 9 15 12 12 3 -3 0 -11 -7 -18z m32 3 c3 -11 1 -18
-4 -14 -5 3 -9 12 -9 20 0 20 7 17 13 -6z m171 3 c3 -8 1 -11 -5 -8 -5 4 -18
1 -27 -7 -15 -11 -15 -11 -5 3 7 9 11 18 8 21 -3 2 2 5 10 5 8 0 17 -7 19 -14z
m280 1 c3 -8 2 -12 -4 -9 -6 3 -10 10 -10 16 0 14 7 11 14 -7z m57 -1 c12 -16
12 -17 -2 -6 -9 7 -20 9 -24 5 -5 -4 -5 -1 -1 6 9 16 11 15 27 -5z m503 1 c3
-8 2 -12 -4 -9 -6 3 -10 10 -10 16 0 14 7 11 14 -7z m141 -2 c-3 -3 -11 0 -18
7 -9 10 -8 11 6 5 10 -3 15 -9 12 -12z m202 12 c-2 -3 -17 -7 -33 -10 -17 -2
-24 -1 -17 4 13 8 58 14 50 6z m14 -17 c-10 -9 -11 -8 -5 6 3 10 9 15 12 12 3
-3 0 -11 -7 -18z m226 8 c0 -8 -4 -12 -9 -9 -5 3 -6 10 -3 15 9 13 12 11 12
-6z m-1874 -8 c3 -8 -1 -14 -8 -14 -7 0 -11 6 -8 14 3 7 6 13 8 13 2 0 5 -6 8
-13z m673 -2 c-1 -8 -5 -17 -8 -21 -5 -4 -4 16 1 34 3 9 9 -1 7 -13z m25 -8
c-10 -9 -11 -8 -5 6 3 10 9 15 12 12 3 -3 0 -11 -7 -18z m-623 -4 c-6 -7 -12
-13 -13 -13 -2 0 -5 6 -8 13 -3 7 3 13 14 13 13 0 15 -3 7 -13z m84 10 c-6 -3
-9 -10 -5 -16 4 -7 -1 -6 -10 2 -21 17 -21 17 6 18 12 0 16 -1 9 -4z m32 -2
c3 -5 -2 -15 -12 -22 -15 -12 -16 -12 -5 2 7 9 10 19 6 22 -3 4 -4 7 0 7 3 0
8 -4 11 -9z m201 -9 c-3 -3 -11 0 -18 7 -9 10 -8 11 6 5 10 -3 15 -9 12 -12z
m122 11 c-4 -3 1 -16 10 -27 18 -21 18 -21 -4 -2 -20 16 -23 36 -6 36 4 0 3
-3 0 -7z m41 -10 c-12 -15 -22 -18 -14 -4 4 5 0 11 -6 14 -7 3 -3 4 9 4 17 -1
19 -4 11 -14z m80 0 c-6 -7 -12 -13 -13 -13 -2 0 -5 6 -8 13 -3 7 3 13 14 13
13 0 15 -3 7 -13z m397 8 c3 -5 2 -12 -3 -15 -5 -3 -9 1 -9 9 0 17 3 19 12 6z
m83 -8 c-12 -15 -22 -18 -14 -4 4 5 0 11 -6 14 -7 3 -3 4 9 4 17 -1 19 -4 11
-14z m-328 -8 c0 -1 -6 -7 -13 -13 -10 -8 -13 -6 -13 7 0 11 6 17 13 14 7 -3
13 -6 13 -8z m107 2 c0 -8 -6 -14 -14 -14 -9 0 -10 4 -2 14 6 7 12 13 14 13 1
0 2 -6 2 -13z m380 7 c-3 -3 -12 -4 -19 -1 -8 3 -5 6 6 6 11 1 17 -2 13 -5z
m73 -9 c0 -1 -6 -7 -13 -13 -10 -8 -13 -6 -13 7 0 11 6 17 13 14 7 -3 13 -6
13 -8z m118 -8 l22 -23 -23 -1 c-12 0 -16 1 -9 4 10 4 9 9 -4 24 -24 27 -12
24 14 -4z m282 8 c0 -1 -6 -7 -13 -13 -10 -8 -13 -6 -13 7 0 11 6 17 13 14 7
-3 13 -6 13 -8z m107 -7 c0 -13 -1 -17 -4 -10 -3 6 -10 9 -16 5 -7 -4 -6 1 2
10 17 21 17 21 18 -5z m-1646 -11 c-10 -9 -11 -8 -5 6 3 10 9 15 12 12 3 -3 0
-11 -7 -18z m43 7 c3 -8 2 -12 -4 -9 -6 3 -10 10 -10 16 0 14 7 11 14 -7z
m106 6 c0 -5 -4 -10 -10 -10 -5 0 -10 5 -10 10 0 6 5 10 10 10 6 0 10 -4 10
-10z m91 -13 c-10 -9 -11 -8 -5 6 3 10 9 15 12 12 3 -3 0 -11 -7 -18z m383 7
c3 -8 2 -12 -4 -9 -6 3 -10 10 -10 16 0 14 7 11 14 -7z m177 -1 c13 -16 12
-17 -3 -4 -17 13 -22 21 -14 21 2 0 10 -8 17 -17z m80 0 c13 -16 12 -17 -3 -4
-10 7 -18 15 -18 17 0 8 8 3 21 -13z m436 -5 c-3 -8 -6 -5 -6 6 -1 11 2 17 5
13 3 -3 4 -12 1 -19z m273 12 c0 -5 -4 -10 -10 -10 -5 0 -10 5 -10 10 0 6 5
10 10 10 6 0 10 -4 10 -10z m-363 -13 c0 -8 -6 -14 -14 -14 -9 0 -10 4 -2 14
6 7 12 13 14 13 1 0 2 -6 2 -13z m-1427 -1 c0 -2 -8 -10 -17 -17 -16 -13 -17
-12 -4 4 13 16 21 21 21 13z m110 -10 c-7 -7 -13 -7 -20 0 -6 6 -3 10 10 10
13 0 16 -4 10 -10z m772 -5 c3 9 6 9 10 -2 9 -23 -19 -19 -39 5 -18 21 -18 21
3 3 16 -13 23 -15 26 -6z m103 1 c-3 -3 -11 0 -18 7 -9 10 -8 11 6 5 10 -3 15
-9 12 -12z m682 12 c-3 -3 -12 -4 -19 -1 -8 3 -5 6 6 6 11 1 17 -2 13 -5z
m-303 -34 c-6 -6 -10 -3 -10 10 0 13 4 16 10 10 7 -7 7 -13 0 -20z m277 4 c8
-10 3 -10 -20 2 -17 9 -31 17 -31 19 0 8 40 -9 51 -21z m45 17 c-4 -5 -1 -11
6 -13 8 -3 6 -6 -4 -10 -11 -5 -15 -2 -13 10 5 23 4 22 11 22 3 0 3 -4 0 -9z
m-1459 -7 c-8 -8 -48 -13 -43 -6 2 4 14 8 26 9 12 1 20 0 17 -3z m269 -7 c4
-3 -4 -4 -16 -2 -30 6 -40 16 -12 12 12 -2 24 -6 28 -10z m505 -10 c-10 -9
-11 -8 -5 6 3 10 9 15 12 12 3 -3 0 -11 -7 -18z m109 19 c0 -3 -4 -8 -10 -11
-5 -3 -10 -1 -10 4 0 6 5 11 10 11 6 0 10 -2 10 -4z m414 -12 c3 -8 2 -12 -4
-9 -6 3 -10 10 -10 16 0 14 7 11 14 -7z m200 0 c3 -8 2 -12 -4 -9 -6 3 -10 10
-10 16 0 14 7 11 14 -7z m-497 -9 c0 -8 -10 -23 -21 -32 -21 -18 -21 -18 -2 5
11 12 16 22 12 22 -4 0 -4 5 -1 10 9 14 12 13 12 -5z m59 3 c4 -7 3 -8 -5 -4
-6 4 -20 2 -29 -6 -15 -12 -16 -11 -3 5 16 20 27 22 37 5z m181 -3 c0 -8 -10
-23 -21 -32 -21 -18 -21 -18 -2 5 14 16 16 22 5 22 -11 0 -11 2 1 10 8 5 15
10 16 10 0 0 1 -7 1 -15z m24 -8 c-10 -9 -11 -8 -5 6 3 10 9 15 12 12 3 -3 0
-11 -7 -18z m-1226 -5 c-3 -3 -11 0 -18 7 -9 10 -8 11 6 5 10 -3 15 -9 12 -12z
m170 8 c-3 -5 -14 -10 -23 -9 -14 0 -13 2 3 9 27 11 27 11 20 0z m472 -7 c-14
-14 -19 -15 -29 -4 -11 10 -10 11 3 6 10 -4 20 -2 24 4 3 6 9 11 13 11 3 0 -1
-8 -11 -17z m285 10 c-6 -3 -9 -10 -5 -16 4 -7 -1 -6 -10 2 -21 17 -21 17 6
18 12 0 16 -1 9 -4z m235 -10 c0 -9 -4 -10 -14 -2 -7 6 -13 12 -13 14 0 1 6 2
13 2 8 0 14 -6 14 -14z m158 -1 c-3 -3 -11 0 -18 7 -9 10 -8 11 6 5 10 -3 15
-9 12 -12z m39 10 c3 -5 -1 -9 -9 -9 -8 0 -12 4 -9 9 3 4 7 8 9 8 2 0 6 -4 9
-8z m-1537 -15 c0 -8 -6 -14 -14 -14 -9 0 -10 4 -2 14 6 7 12 13 14 13 1 0 2
-6 2 -13z m220 7 c-3 -3 -12 -4 -19 -1 -8 3 -5 6 6 6 11 1 17 -2 13 -5z m304
-11 c8 -9 9 -14 2 -10 -6 4 -13 1 -16 -5 -3 -7 -4 -3 -4 10 1 26 1 26 18 5z
m69 2 c-14 -17 -30 -20 -30 -4 0 5 4 8 9 4 5 -3 12 -1 16 5 3 5 9 10 12 10 3
0 0 -7 -7 -15z m277 -7 c-3 -8 -6 -5 -6 6 -1 11 2 17 5 13 3 -3 4 -12 1 -19z
m132 8 c9 -10 8 -15 -2 -19 -8 -3 -13 3 -13 14 0 23 0 23 15 5z m240 0 c9 -10
8 -15 -2 -19 -8 -3 -13 3 -13 14 0 23 0 23 15 5z m-1279 -6 c0 -5 -2 -10 -4
-10 -3 0 -8 5 -11 10 -3 6 -1 10 4 10 6 0 11 -4 11 -10z m84 2 c3 -5 -1 -9 -9
-9 -8 0 -12 4 -9 9 3 4 7 8 9 8 2 0 6 -4 9 -8z m313 -14 c-3 -8 -6 -5 -6 6 -1
11 2 17 5 13 3 -3 4 -12 1 -19z m119 10 c3 -4 -1 -5 -10 -4 -8 1 -18 5 -22 8
-3 4 1 5 10 4 8 -1 18 -5 22 -8z m719 3 c-9 -8 -36 -10 -30 -2 2 4 11 8 20 8
8 0 13 -3 10 -6z m262 -11 c-2 -11 -6 -22 -9 -26 -4 -3 -5 2 -3 13 2 10 4 21
4 26 1 4 3 7 6 7 3 0 4 -9 2 -20z m174 -3 c-10 -9 -11 -8 -5 6 3 10 9 15 12
12 3 -3 0 -11 -7 -18z m-1461 9 c0 -2 -7 -7 -16 -10 -8 -3 -12 -2 -9 4 6 10
25 14 25 6z m449 -9 c8 -10 7 -14 -2 -14 -8 0 -14 6 -14 14 0 7 1 13 2 13 2 0
8 -6 14 -13z m79 0 c8 -10 6 -13 -7 -13 -11 0 -17 6 -14 13 3 7 6 13 8 13 1 0
7 -6 13 -13z m-640 -17 c-7 -10 -14 -17 -17 -15 -4 4 18 35 25 35 2 0 -1 -9
-8 -20z m47 10 c3 -6 -1 -7 -9 -4 -18 7 -21 14 -7 14 6 0 13 -4 16 -10z m155
1 c0 -6 -4 -12 -8 -15 -5 -3 -9 1 -9 9 0 8 4 15 9 15 4 0 8 -4 8 -9z m160 5
c0 -2 -7 -7 -16 -10 -8 -3 -12 -2 -9 4 6 10 25 14 25 6z m50 -11 c5 3 10 4 10
1 0 -3 -10 -11 -22 -17 -13 -6 -20 -8 -16 -4 4 5 2 15 -5 24 -10 14 -10 14 5
3 9 -8 22 -11 28 -7z m80 11 c0 -2 -8 -10 -17 -17 -16 -13 -17 -12 -4 4 13 16
21 21 21 13z m350 0 c0 -2 -7 -7 -16 -10 -8 -3 -12 -2 -9 4 6 10 25 14 25 6z
m28 -21 c-3 -3 -9 2 -12 12 -6 14 -5 15 5 6 7 -7 10 -15 7 -18z m572 21 c0 -2
-7 -7 -16 -10 -8 -3 -12 -2 -9 4 6 10 25 14 25 6z m-1473 -28 c-3 -8 -6 -5 -6
6 -1 11 2 17 5 13 3 -3 4 -12 1 -19z m150 16 c-3 -4 -2 -16 4 -28 9 -19 9 -19
-4 -4 -9 12 -17 14 -24 7 -6 -6 -10 -5 -10 5 0 8 4 13 8 10 4 -2 10 0 14 6 3
5 9 10 12 10 4 0 3 -3 0 -6z m175 -9 c2 3 5 -2 5 -10 0 -10 -4 -12 -12 -5 -7
5 -14 8 -17 5 -2 -3 -5 2 -5 10 0 10 4 12 12 5 7 -5 14 -8 17 -5z m308 11 c0
-2 -8 -10 -17 -17 -16 -13 -17 -12 -4 4 13 16 21 21 21 13z m293 -16 c-3 -12
-8 -19 -11 -16 -5 6 5 36 12 36 2 0 2 -9 -1 -20z m-882 -13 c-10 -9 -11 -8 -5
6 3 10 9 15 12 12 3 -3 0 -11 -7 -18z m352 3 c3 -11 1 -18 -4 -14 -5 3 -9 12
-9 20 0 20 7 17 13 -6z m80 8 c-4 -7 -8 -19 -9 -26 -2 -8 -5 -17 -8 -20 -9 -8
-2 30 7 46 5 6 10 12 13 12 3 0 2 -6 -3 -12z m314 -3 c0 -8 -4 -12 -9 -9 -5 3
-6 10 -3 15 9 13 12 11 12 -6z m193 9 c0 -8 -19 -13 -24 -6 -3 5 1 9 9 9 8 0
15 -2 15 -3z m87 -9 c0 -8 -4 -12 -9 -9 -4 3 -8 9 -8 15 0 5 4 9 8 9 5 0 9 -7
9 -15z m187 7 c3 -5 -1 -9 -9 -9 -8 0 -12 4 -9 9 3 4 7 8 9 8 2 0 6 -4 9 -8z
m223 -14 c-3 -8 -6 -5 -6 6 -1 11 2 17 5 13 3 -3 4 -12 1 -19z m70 16 c-2 -3
-17 -7 -33 -10 -17 -2 -24 -1 -17 4 13 8 58 14 50 6z m-596 -21 c13 -16 12
-17 -3 -4 -17 13 -22 21 -14 21 2 0 10 -8 17 -17z m-516 -3 c-3 -5 -12 -10
-18 -10 -7 0 -6 4 3 10 19 12 23 12 15 0z m280 0 c-4 -6 -1 -19 6 -28 12 -16
12 -16 -5 0 -16 14 -15 38 0 38 3 0 2 -5 -1 -10z m30 1 c3 -5 2 -12 -3 -15 -5
-3 -9 1 -9 9 0 17 3 19 12 6z m83 -8 c-12 -15 -22 -18 -14 -4 4 5 0 11 -6 14
-7 3 -3 4 9 4 17 -1 19 -4 11 -14z m372 11 c0 -8 -19 -13 -24 -6 -3 5 1 9 9 9
8 0 15 -2 15 -3z m355 -4 c-3 -5 -12 -10 -18 -10 -7 0 -6 4 3 10 19 12 23 12
15 0z m-1248 -6 c-3 -3 -12 -4 -19 -1 -8 3 -5 6 6 6 11 1 17 -2 13 -5z m296
-9 c-3 -9 -8 -14 -10 -11 -3 3 -2 9 2 15 9 16 15 13 8 -4z m45 -10 c-3 -3 -9
2 -12 12 -6 14 -5 15 5 6 7 -7 10 -15 7 -18z m403 11 c14 8 11 -2 -4 -14 -10
-8 -13 -6 -14 11 0 12 1 16 4 9 3 -6 9 -10 14 -6z m120 -3 c13 -16 12 -17 -3
-4 -10 7 -18 15 -18 17 0 8 8 3 21 -13z m84 -1 c-3 -3 -11 0 -18 7 -9 10 -8
11 6 5 10 -3 15 -9 12 -12z m181 -1 c-13 -14 -14 -20 -5 -23 9 -3 8 -6 -3 -10
-10 -4 -15 -2 -14 7 2 14 25 45 34 45 3 0 -3 -9 -12 -19z m-1312 -7 c3 -8 2
-12 -4 -9 -6 3 -10 10 -10 16 0 14 7 11 14 -7z m103 -4 c1 -11 -2 -20 -5 -20
-4 0 -8 9 -9 20 -1 11 2 20 5 20 4 0 8 -9 9 -20z m137 4 c3 -8 2 -12 -4 -9 -6
3 -10 10 -10 16 0 14 7 11 14 -7z m130 8 c3 -5 -1 -9 -9 -9 -8 0 -12 4 -9 9 3
4 7 8 9 8 2 0 6 -4 9 -8z m307 -9 c13 -16 12 -17 -3 -4 -10 7 -18 15 -18 17 0
8 8 3 21 -13z m346 -8 c0 -8 -4 -12 -9 -9 -5 3 -6 10 -3 15 9 13 12 11 12 -6z
m318 6 c3 -5 2 -12 -3 -15 -5 -3 -9 1 -9 9 0 17 3 19 12 6z m-945 -4 c0 -2 -8
-12 -19 -21 -16 -15 -19 -15 -24 -2 -4 10 -1 13 7 10 8 -3 17 -1 21 5 6 11 15
15 15 8z m432 -16 c-4 -10 -7 -11 -10 -3 -2 7 -9 9 -14 6 -6 -4 -8 -3 -5 3 10
16 36 11 29 -6z m43 9 c3 -6 -1 -7 -9 -4 -18 7 -21 14 -7 14 6 0 13 -4 16 -10z
m275 6 c0 -2 -7 -7 -16 -10 -8 -3 -12 -2 -9 4 6 10 25 14 25 6z m37 -2 c-3 -3
-12 -4 -19 -1 -8 3 -5 6 6 6 11 1 17 -2 13 -5z m86 -9 c-3 -9 -8 -14 -10 -11
-3 3 -2 9 2 15 9 16 15 13 8 -4z m-823 1 c0 -2 -8 -10 -17 -17 -16 -13 -17
-12 -4 4 13 16 21 21 21 13z m42 -14 c-7 -2 -9 -9 -5 -15 3 -7 2 -8 -2 -4 -16
14 -14 36 3 29 10 -4 12 -7 4 -10z m34 3 c-1 -8 -5 -17 -8 -21 -5 -4 -4 16 1
34 3 9 9 -1 7 -13z m45 -2 c13 -16 12 -17 -3 -4 -17 13 -22 21 -14 21 2 0 10
-8 17 -17z m393 -13 c-6 -6 -10 -3 -10 10 0 13 4 16 10 10 7 -7 7 -13 0 -20z
m101 20 c4 -6 11 -8 16 -5 5 4 9 1 9 -4 0 -15 -11 -13 -34 4 -11 8 -15 15 -9
15 7 0 15 -5 18 -10z m-909 -18 c0 -10 -6 -19 -13 -19 -8 0 -9 6 -2 19 5 10
11 18 12 18 2 0 3 -8 3 -18z m74 8 c0 -5 -4 -10 -10 -10 -5 0 -10 5 -10 10 0
6 5 10 10 10 6 0 10 -4 10 -10z m57 -12 c-3 -8 -6 -5 -6 6 -1 11 2 17 5 13 3
-3 4 -12 1 -19z m314 -1 c-10 -9 -11 -8 -5 6 3 10 9 15 12 12 3 -3 0 -11 -7
-18z m109 19 c0 -3 -4 -8 -10 -11 -5 -3 -10 -1 -10 4 0 6 5 11 10 11 6 0 10
-2 10 -4z m60 -8 c0 -4 -4 -8 -9 -8 -6 0 -12 4 -15 8 -3 5 1 9 9 9 8 0 15 -4
15 -9z m-339 -26 c-7 -2 -18 1 -23 6 -8 8 -4 9 13 5 13 -4 18 -8 10 -11z m405
6 c3 -4 -1 -5 -10 -4 -8 1 -18 5 -22 8 -3 4 1 5 10 4 8 -1 18 -5 22 -8z m39 2
c-3 -5 -12 -10 -18 -10 -7 0 -6 4 3 10 19 12 23 12 15 0z m152 -7 c0 -9 -4
-10 -14 -2 -7 6 -13 12 -13 14 0 1 6 2 13 2 8 0 14 -6 14 -14z m127 9 c3 -5
-1 -9 -9 -9 -8 0 -12 4 -9 9 3 4 7 8 9 8 2 0 6 -4 9 -8z m-1069 -12 c-3 -5
-12 -10 -18 -10 -7 0 -6 4 3 10 19 12 23 12 15 0z m123 -15 c-3 -3 -9 2 -12
12 -6 14 -5 15 5 6 7 -7 10 -15 7 -18z m35 10 c-3 -9 -8 -14 -10 -11 -3 3 -2
9 2 15 9 16 15 13 8 -4z m124 -2 c0 -8 -6 -9 -19 -2 -10 5 -18 11 -18 12 0 2
8 3 18 3 10 0 19 -6 19 -13z m322 3 c9 -10 8 -15 -2 -19 -8 -3 -13 3 -13 14 0
23 0 23 15 5z m240 0 c9 -10 8 -15 -2 -19 -8 -3 -13 3 -13 14 0 23 0 23 15 5z
m-185 -12 c3 -8 2 -12 -4 -9 -6 3 -10 10 -10 16 0 14 7 11 14 -7z m316 12 c0
-2 -8 -10 -17 -17 -16 -13 -17 -12 -4 4 13 16 21 21 21 13z m124 -12 c3 -8 2
-12 -4 -9 -6 3 -10 10 -10 16 0 14 7 11 14 -7z m-997 -10 c-3 -3 -12 -4 -19
-1 -8 3 -5 6 6 6 11 1 17 -2 13 -5z m88 -4 c3 -6 -1 -7 -9 -4 -18 7 -21 14 -7
14 6 0 13 -4 16 -10z m232 -8 c0 -10 -7 -19 -14 -19 -9 0 -10 4 -3 12 5 7 7
15 3 18 -3 4 -1 7 5 7 6 0 10 -8 9 -18z m80 -4 c2 -17 0 -19 -7 -8 -5 8 -6 18
-4 22 8 12 10 10 11 -14z m36 5 c-3 -7 -6 -13 -8 -13 -2 0 -5 6 -8 13 -3 8 1
14 8 14 7 0 11 -6 8 -14z m217 13 c0 -2 -8 -10 -17 -17 -16 -13 -17 -12 -4 4
13 16 21 21 21 13z m320 0 c0 -2 -8 -10 -17 -17 -16 -13 -17 -12 -4 4 13 16
21 21 21 13z m-905 -26 c16 -17 16 -20 3 -15 -9 4 -19 13 -22 21 -7 19 -2 18
19 -6z m172 5 c0 -8 -4 -15 -9 -15 -10 0 -11 14 -1 23 9 10 10 9 10 -8z m219
-5 c0 -12 -4 -16 -9 -11 -5 5 -6 14 -3 20 10 15 12 14 12 -9z m157 0 c3 -11 1
-18 -4 -14 -5 3 -9 12 -9 20 0 20 7 17 13 -6z m144 5 c0 -8 -4 -12 -9 -9 -5 3
-6 10 -3 15 9 13 12 11 12 -6z m-383 -11 c3 -8 2 -12 -4 -9 -6 3 -10 10 -10
16 0 14 7 11 14 -7z m140 5 c3 -3 -5 -5 -19 -5 -13 0 -22 3 -19 7 4 8 30 6 38
-2z m220 -5 c3 -8 2 -12 -4 -9 -6 3 -10 10 -10 16 0 14 7 11 14 -7z m160 8 c3
-5 -1 -9 -9 -9 -8 0 -12 4 -9 9 3 4 7 8 9 8 2 0 6 -4 9 -8z m-301 -15 c3 -8
-1 -14 -8 -14 -7 0 -11 6 -8 14 3 7 6 13 8 13 2 0 5 -6 8 -13z m-475 -14 c-6
-7 -12 -13 -13 -13 -2 0 -5 6 -8 13 -3 7 3 13 14 13 13 0 15 -3 7 -13z m45 0
c-3 -7 -6 -13 -8 -13 -2 0 -5 6 -8 13 -3 8 1 14 8 14 7 0 11 -6 8 -14z m92 -3
c-3 -5 -12 -10 -18 -10 -7 0 -6 4 3 10 19 12 23 12 15 0z m102 4 c-3 -3 -12
-4 -19 -1 -8 3 -5 6 6 6 11 1 17 -2 13 -5z m133 -9 c-6 -8 -9 -18 -6 -24 3 -5
-3 -7 -14 -4 -19 5 -19 6 3 24 27 22 34 24 17 4z m171 -2 c8 -9 9 -14 2 -10
-6 4 -13 1 -16 -5 -3 -7 -4 -3 -4 10 1 26 1 26 18 5z m-384 -12 c0 -11 -5 -18
-9 -15 -4 3 -5 11 -1 19 7 21 12 19 10 -4z m433 9 c-18 -12 -30 -13 -30 -2 0
4 10 9 22 9 18 2 20 0 8 -7z m-191 -13 c8 -10 7 -14 -2 -14 -8 0 -14 6 -14 14
0 7 1 13 2 13 2 0 8 -6 14 -13z m46 -7 c-3 -5 -12 -10 -18 -10 -7 0 -6 4 3 10
19 12 23 12 15 0z"/>
</g>
</svg>
