<svg width="38" height="47" viewBox="0 0 38 47" fill="none" xmlns="http://www.w3.org/2000/svg">
<path d="M18.6539 9.80122C13.9818 9.80122 10.1942 13.3431 10.1942 17.7322C10.1942 22.1105 13.9808 25.6632 18.5674 25.6632C23.1539 25.6632 27.0271 22.1123 27.0271 17.7322C27.0271 13.3431 23.326 9.80122 18.6539 9.80122ZM18.6539 22.7792C15.6834 22.7792 13.2704 20.5171 13.2704 17.7322C13.2704 14.9492 15.6853 12.6852 18.5674 12.6852C21.4494 12.6852 23.9508 14.9474 23.9508 17.7322C23.9508 20.5171 21.6244 22.7792 18.6539 22.7792ZM37.1115 17.7322C37.1115 16.2452 35.4513 14.9816 35.06 13.6108C34.6556 12.1913 35.4069 10.3212 34.64 9.07842C33.8627 7.81847 31.7531 7.49943 30.663 6.47651C29.5719 5.45359 29.2325 3.47625 27.8876 2.74624C26.5648 2.02857 24.5595 2.72922 23.053 2.35167C21.586 1.98468 20.2401 0.428223 18.6539 0.428223C17.0677 0.428223 15.7218 1.98468 14.2606 2.35149C12.7417 2.73002 10.7421 2.02704 9.42317 2.74534C7.9927 3.47355 7.73891 5.45179 6.6478 6.47381C5.55765 7.49673 3.44752 7.81487 2.6698 9.07572C1.90169 10.3149 2.6525 12.1895 2.24874 13.6045C1.85651 14.9834 0.196289 16.2452 0.196289 17.7322C0.196289 19.2193 1.85651 20.4828 2.24777 21.8536C2.65221 23.2731 1.90054 25.1432 2.6674 26.386C3.4456 27.646 5.55476 27.9614 6.64491 28.9888C7.73603 30.0118 8.07538 31.9891 9.41932 32.7191C10.7402 33.4357 12.7475 32.7354 14.2539 33.1139C15.7218 33.4771 17.0677 35.0362 18.6539 35.0362C20.2401 35.0362 21.5879 33.4798 23.051 33.113C24.5622 32.7338 26.5599 33.4377 27.8856 32.7193C29.2295 31.9904 29.5698 30.0128 30.6609 28.9899C31.7521 27.967 33.8612 27.6489 34.6399 26.3889C35.4071 25.1461 34.6562 23.276 35.0607 21.8565C35.4484 20.481 37.1115 19.2193 37.1115 17.7322ZM32.0837 21.1119C31.6603 22.5981 31.9549 24.0049 31.9208 24.9215C31.1654 25.3693 29.6482 25.857 28.4811 26.9511C27.3246 28.0353 26.7901 29.4737 26.3181 30.1731C25.4342 30.2104 23.8629 29.923 22.2536 30.3266C20.6472 30.7291 19.4273 31.7469 18.6505 32.1101C17.8787 31.7495 16.651 30.7276 15.0474 30.3266C13.4411 29.9231 11.8712 30.2093 10.982 30.1718C10.5114 29.4665 9.98266 28.0425 8.82041 26.952C7.65624 25.8525 6.1431 25.3748 5.38172 24.9152C5.34807 24.086 5.64705 22.608 5.21926 21.1119C4.79002 19.6059 3.70323 18.4631 3.31582 17.734C3.69996 17.0108 4.78954 15.8621 5.21926 14.3543C5.64551 12.8583 5.34711 11.391 5.38239 10.5448C6.13743 10.0967 7.65499 9.61016 8.82205 8.51514C9.98266 7.42913 10.5114 5.99074 10.9824 5.29047C11.8663 5.25649 13.4473 5.53723 15.047 5.13716C16.6562 4.73385 17.8666 3.7186 18.65 3.35359C19.4217 3.71337 20.6467 4.73521 22.2541 5.13806C23.8634 5.54101 25.4274 5.25478 26.3186 5.29227C26.7839 5.98172 27.3232 7.42913 28.4826 8.51514C29.639 9.60024 31.1743 10.1022 31.9213 10.5448C31.9554 11.3805 31.6567 12.8556 32.084 14.3552C32.5136 15.8612 33.6 17.0031 33.9865 17.7322C33.6122 18.4532 32.5163 19.6068 32.0837 21.1119ZM29.392 36.4512C29.2177 35.6711 28.4153 35.1687 27.5712 35.3345C26.7421 35.4965 26.2071 36.2601 26.3811 37.0397L28.0605 43.6945L19.3451 39.6092C18.9125 39.4064 18.4017 39.4064 17.9694 39.6092L9.42509 43.8198L10.9334 37.0397C11.1077 36.2596 10.5729 35.4968 9.74329 35.3345C8.90808 35.1683 8.09364 35.6711 7.92253 36.4512L6.41419 43.2331C6.17982 44.2821 6.6005 45.3402 7.50435 45.9927C8.41165 46.6447 9.6039 46.7532 10.6287 46.2744L18.6539 42.4355L26.681 46.1982C27.104 46.4731 27.5558 46.5722 28.0077 46.5722C28.6445 46.5722 29.2728 46.3765 29.8044 45.9949C30.7086 45.3415 31.1291 44.2843 30.8945 43.2335L29.392 36.4512Z" fill="currentColor"/>
</svg>
