<svg width="20" height="20" viewBox="0 0 20 20" fill="none" xmlns="http://www.w3.org/2000/svg">
<path d="M17.25 10.0031H4.5V4.16753C4.5 3.89806 4.66406 3.65597 4.91 3.5544C5.16 3.45284 5.445 3.50753 5.6325 3.69887L5.73131 3.79769C5.325 4.64471 5.46562 5.6594 6.16875 6.39065L6.6325 6.85471C6.447 7.14487 6.46747 7.52846 6.72106 7.7819C6.86563 7.92815 7.05937 8.00002 7.25 8.00002C7.44063 8.00002 7.63375 7.92677 7.78031 7.7803L10.7803 4.78031C11.0733 4.48734 11.0733 4.01281 10.7803 3.71969C10.6377 3.57712 10.4541 3.50819 10.2691 3.50825C10.125 3.50825 9.98012 3.54994 9.85313 3.63112L9.39062 3.16722C8.65938 2.46441 7.64062 2.32566 6.79375 2.73409L6.74687 2.68784C6.2625 2.20406 5.5875 1.9285 4.9075 2.01614C3.78469 2.16122 3 3.10034 3 4.16753V10.0019L2.75 10.0031C2.33594 10.0031 2 10.3378 2 10.7519C2 11.166 2.33594 11.5025 2.75 11.5025H3V14.0013C3 14.8488 3.36719 15.6566 4 16.2228V17.2509C4 17.6656 4.33594 18 4.75 18C5.16406 18 5.5 17.6644 5.5 17.2503V16.9496C5.66406 16.9808 5.83188 16.9963 6 17.0002H14C14.168 16.9963 14.3359 16.9809 14.5 16.9496V17.2503C14.5 17.6656 14.8344 18 15.25 18C15.6656 18 16 17.6656 16 17.25V16.2219C16.6328 15.6556 17 14.8478 17 14.0003V11.5031H17.25C17.6641 11.5031 18 11.1666 18 10.7525C18 10.3385 17.6656 10.0031 17.25 10.0031ZM8.32812 4.22784L8.76969 4.6694L7.66875 5.76877L7.22813 5.32815C6.925 5.02503 6.925 4.53128 7.22813 4.22784C7.53125 3.92409 8.025 3.92347 8.32812 4.22784ZM15.5 14C15.5 14.8278 14.8281 15.4997 14 15.4997H6C5.17188 15.4997 4.5 14.8281 4.5 14V11.5031H15.5V14Z" fill="#344054"/>
</svg>
