<svg width="21" height="20" viewBox="0 0 21 20" fill="none" xmlns="http://www.w3.org/2000/svg">
<path d="M6.53325 11.2857C7.74575 11.2857 8.73325 10.2277 8.73325 8.92857C8.73325 7.62946 7.74575 6.57143 6.53325 6.57143C5.32075 6.57143 4.33325 7.62946 4.33325 8.92857C4.33325 10.2277 5.32075 11.2857 6.53325 11.2857ZM6.53325 7.85714C7.06075 7.85714 7.53325 8.33929 7.53325 8.92857C7.53325 9.51786 7.06075 10 6.53325 10C5.96075 10 5.53325 9.51786 5.53325 8.92857C5.53325 8.33929 5.96075 7.85714 6.53325 7.85714ZM15.5333 6.57143H9.93325C9.71325 6.57143 9.53325 6.76429 9.53325 7V12.1429H3.53325V4.64286C3.53325 4.28795 3.2645 4 2.93325 4C2.602 4 2.33325 4.28795 2.33325 4.61875V15.3571C2.33325 15.7134 2.602 16 2.91075 16C3.2195 16 3.53325 15.7134 3.53325 15.3571V13.4286H17.1333V15.3571C17.1333 15.7134 17.4008 16 17.7333 16C18.0658 16 18.3333 15.7134 18.3333 15.3571V9.57143C18.3333 7.91339 17.0808 6.57143 15.5333 6.57143ZM17.1333 12.1429H10.7333V7.85714H15.5333C16.4145 7.85714 17.1333 8.62723 17.1333 9.57143V12.1429Z" fill="currentColor"/>
</svg>
