<svg width="20" height="20" viewBox="0 0 20 20" fill="none" xmlns="http://www.w3.org/2000/svg">
<path d="M10 12.715C10 10.2182 12.0156 8.19252 14.5 8.19252C16.9844 8.19252 19 10.2182 19 12.715C19 15.2118 16.9844 17.2375 14.5 17.2375C12.0156 17.2375 10 15.2118 10 12.715ZM16.6031 12.0649C16.8 11.8702 16.8 11.5498 16.6031 11.3551C16.4094 11.1573 16.0906 11.1573 15.8969 11.3551L14 13.2615L13.1031 12.3601C12.9094 12.1623 12.5906 12.1623 12.3969 12.3601C12.2 12.5548 12.2 12.8752 12.3969 13.0699L13.6469 14.3262C13.8406 14.524 14.1594 14.524 14.3531 14.3262L16.6031 12.0649Z" fill="#98A2B3"/>
<path d="M2.58531 2.99571C2.83938 2.48504 3.35875 2.1625 3.92719 2.1625H7.5V6.1825H1L2.58531 2.99571ZM8.5 6.1825V2.1625H12.0719C12.6406 2.1625 13.1594 2.48504 13.4156 2.99571L15 6.1825H8.5ZM14 7.20949C11.1969 7.46388 9 9.83191 9 12.715C9 14.0498 9.47188 15.2778 10.2563 16.2325H3C1.89531 16.2325 1 15.3311 1 14.2225V7.1875H14V7.20949Z" fill="#D0D5DD"/>
</svg>
