<svg width="9" height="10" viewBox="0 0 9 10" fill="none" xmlns="http://www.w3.org/2000/svg">
<path d="M7.6199 0.199997C8.1499 0.199997 8.5799 0.602934 8.5799 1.1V8.9C8.5799 9.39687 8.1499 9.8 7.6199 9.8H5.6999V8.3C5.6999 7.80312 5.2699 7.4 4.7399 7.4C4.2099 7.4 3.7799 7.80312 3.7799 8.3V9.8H1.8599C1.3297 9.8 0.899902 9.39687 0.899902 8.9V1.1C0.899902 0.602934 1.3297 0.199997 1.8599 0.199997H7.6199ZM2.1799 5.3C2.1799 5.465 2.3231 5.6 2.4999 5.6H3.1399C3.3159 5.6 3.4599 5.465 3.4599 5.3V4.7C3.4599 4.535 3.3159 4.4 3.1399 4.4H2.4999C2.3231 4.4 2.1799 4.535 2.1799 4.7V5.3ZM4.4199 4.4C4.2439 4.4 4.0999 4.535 4.0999 4.7V5.3C4.0999 5.465 4.2439 5.6 4.4199 5.6H5.0599C5.2359 5.6 5.3799 5.465 5.3799 5.3V4.7C5.3799 4.535 5.2359 4.4 5.0599 4.4H4.4199ZM6.0199 5.3C6.0199 5.465 6.1639 5.6 6.3399 5.6H6.9799C7.1559 5.6 7.2999 5.465 7.2999 5.3V4.7C7.2999 4.535 7.1559 4.4 6.9799 4.4H6.3399C6.1639 4.4 6.0199 4.535 6.0199 4.7V5.3ZM2.4999 2C2.3231 2 2.1799 2.135 2.1799 2.3V2.9C2.1799 3.065 2.3231 3.2 2.4999 3.2H3.1399C3.3159 3.2 3.4599 3.065 3.4599 2.9V2.3C3.4599 2.135 3.3159 2 3.1399 2H2.4999ZM4.0999 2.9C4.0999 3.065 4.2439 3.2 4.4199 3.2H5.0599C5.2359 3.2 5.3799 3.065 5.3799 2.9V2.3C5.3799 2.135 5.2359 2 5.0599 2H4.4199C4.2439 2 4.0999 2.135 4.0999 2.3V2.9ZM6.3399 2C6.1639 2 6.0199 2.135 6.0199 2.3V2.9C6.0199 3.065 6.1639 3.2 6.3399 3.2H6.9799C7.1559 3.2 7.2999 3.065 7.2999 2.9V2.3C7.2999 2.135 7.1559 2 6.9799 2H6.3399Z" fill="#667085"/>
</svg>