<svg width="34" height="40" viewBox="0 0 34 40" fill="none" xmlns="http://www.w3.org/2000/svg">
<path d="M16.6475 30.4475C16.1825 30.92 15.4175 30.92 14.9525 30.4475L10.1525 25.6475C9.67995 25.1825 9.67995 24.4175 10.1525 23.9525C10.6175 23.48 11.3825 23.48 11.8475 23.9525L15.8 27.905L23.3525 20.3525C23.8175 19.88 24.5825 19.88 25.0475 20.3525C25.52 20.8175 25.52 21.5825 25.0475 22.0475L16.6475 30.4475ZM9.79995 5.6H24.2V2C24.2 1.3373 24.74 0.800003 25.4 0.800003C26.06 0.800003 26.6 1.3373 26.6 2V5.6H29C31.6475 5.6 33.8 7.74875 33.8 10.4V34.4C33.8 37.0475 31.6475 39.2 29 39.2H4.99995C2.3487 39.2 0.199951 37.0475 0.199951 34.4V10.4C0.199951 7.74875 2.3487 5.6 4.99995 5.6H7.39995V2C7.39995 1.3373 7.93995 0.800003 8.59995 0.800003C9.25995 0.800003 9.79995 1.3373 9.79995 2V5.6ZM2.59995 34.4C2.59995 35.7275 3.6747 36.8 4.99995 36.8H29C30.3275 36.8 31.4 35.7275 31.4 34.4V15.2H2.59995V34.4ZM2.59995 10.4V12.8H31.4V10.4C31.4 9.0725 30.3275 8 29 8H4.99995C3.6747 8 2.59995 9.0725 2.59995 10.4Z" fill="white"/>
</svg>
