<svg width="12" height="12" viewBox="0 0 12 12" fill="none" xmlns="http://www.w3.org/2000/svg">
<path d="M4.6498 2.39995H7.3498V1.64995C7.3498 1.40151 7.55043 1.19995 7.7998 1.19995C8.04918 1.19995 8.2498 1.40151 8.2498 1.64995V2.39995H8.9998C9.66168 2.39995 10.1998 2.93714 10.1998 3.59995V9.59995C10.1998 10.2618 9.66168 10.8 8.9998 10.8H2.9998C2.33699 10.8 1.7998 10.2618 1.7998 9.59995V3.59995C1.7998 2.93714 2.33699 2.39995 2.9998 2.39995H3.7498V1.64995C3.7498 1.40151 3.95043 1.19995 4.1998 1.19995C4.44918 1.19995 4.6498 1.40151 4.6498 1.64995V2.39995ZM2.6998 9.59995C2.6998 9.76495 2.83405 9.89995 2.9998 9.89995H8.9998C9.1648 9.89995 9.2998 9.76495 9.2998 9.59995V4.79995H2.6998V9.59995Z" fill="currentColor"/>
</svg>
