<svg width="13" height="12" viewBox="0 0 13 12" fill="none" xmlns="http://www.w3.org/2000/svg">
<path d="M1.7002 9.77143C1.7002 10.3543 2.14591 10.8 2.72877 10.8H10.2716C10.8545 10.8 11.3002 10.3543 11.3002 9.77143V4.62857H1.7002V9.77143ZM10.2716 1.88571H9.92877V1.54285C9.92877 1.33714 9.79162 1.2 9.58591 1.2C9.38019 1.2 9.24305 1.33714 9.24305 1.54285V1.88571H7.87162V1.54285C7.87162 1.33714 7.73448 1.2 7.52877 1.2C7.32305 1.2 7.18591 1.33714 7.18591 1.54285V1.88571H5.81448V1.54285C5.81448 1.33714 5.67734 1.2 5.47162 1.2C5.26591 1.2 5.12877 1.33714 5.12877 1.54285V1.88571H3.75734V1.54285C3.75734 1.33714 3.6202 1.2 3.41448 1.2C3.20877 1.2 3.07162 1.33714 3.07162 1.54285V1.88571H2.72877C2.14591 1.88571 1.7002 2.33143 1.7002 2.91428V3.94285H11.3002V2.91428C11.3002 2.33143 10.8545 1.88571 10.2716 1.88571ZM8.55734 3.25714H4.44305C4.23734 3.25714 4.1002 3.12 4.1002 2.91428C4.1002 2.70857 4.23734 2.57143 4.44305 2.57143H8.55734C8.76305 2.57143 8.90019 2.70857 8.90019 2.91428C8.90019 3.12 8.76305 3.25714 8.55734 3.25714Z" fill="#667085"/>
</svg>
