<svg width="65" height="64" viewBox="0 0 65 64" fill="none" xmlns="http://www.w3.org/2000/svg">
<path d="M62.643 32.2225C52.3131 32.3981 54.4647 38.0621 47.1847 39.4945C39.7892 40.9497 38.6217 23.8501 31.2281 23.8501C23.8335 23.8501 22.1955 40.4605 12.9366 51.8637L12.6724 52.1865L32.5235 62.1117L62.643 47.0513V32.2225Z" fill="#36A2EB"/>
<path d="M62.643 31.707C59.1849 27.863 56.8394 23.4438 51.7931 23.4438C42.863 23.4438 45.2128 36.0618 35.3433 36.0618C25.473 36.0618 24.4353 22.4894 13.2539 35.2478C9.69096 39.313 6.8231 43.8458 4.57037 48.135L32.5235 62.1122L62.643 47.0518V31.707Z" fill="#FFCE56"/>
<path opacity="0.8" d="M2.40314 36.9338C5.79193 28.8054 7.25449 22.2222 13.724 22.2222C23.5935 22.2222 25.9427 46.2378 34.4036 43.7946C42.8631 41.3526 41.9229 28.327 55.0832 28.327C57.588 28.327 60.1456 29.6562 62.6435 31.8062V47.0514L32.524 62.1118L2.4036 47.0514V36.9338H2.40314Z" fill="#FE6184"/>
<path d="M32.5 64L0.5 48.0004V16L32.5 0L64.5 16V48L32.5 64ZM4.25962 46.1204L32.5 60.2408L60.7404 46.1204V17.88L32.5 3.7596L4.25962 17.88V46.1204Z" fill="#E7E9ED"/>
</svg>
