<svg width="12" height="12" viewBox="0 0 12 12" fill="none" xmlns="http://www.w3.org/2000/svg">
<path d="M9.42852 1.19995C10.185 1.19995 10.8 1.81388 10.8 2.57138V9.42852C10.8 10.185 10.185 10.8 9.42852 10.8H2.57138C1.81388 10.8 1.19995 10.185 1.19995 9.42852V2.57138C1.19995 1.81388 1.81388 1.19995 2.57138 1.19995H9.42852ZM8.48138 5.05281C8.71495 4.81924 8.71495 4.43781 8.48138 4.20424C8.24781 3.97067 7.86638 3.97067 7.63281 4.20424L5.31424 6.52281L4.36709 5.57566C4.13352 5.34209 3.75209 5.34209 3.51852 5.57566C3.28431 5.80924 3.28431 6.19066 3.51852 6.42424L4.88995 7.79566C5.12352 8.02924 5.50495 8.02924 5.73852 7.79566L8.48138 5.05281Z" fill="currentColor"/>
</svg>
