<svg width="65" height="64" viewBox="0 0 65 64" fill="none" xmlns="http://www.w3.org/2000/svg">
<path d="M26.8343 23.244H55.8368C56.3585 23.244 56.7814 22.7886 56.7814 22.2267C56.7814 21.6649 56.3585 21.2095 55.8368 21.2095H26.8343C26.3125 21.2095 25.8896 21.6649 25.8896 22.2267C25.8896 22.7886 26.3125 23.244 26.8343 23.244Z" fill="#516B7B"/>
<path d="M26.8343 30.656H55.8368C56.3585 30.656 56.7814 30.2006 56.7814 29.6387C56.7814 29.0769 56.3585 28.6215 55.8368 28.6215H26.8343C26.3125 28.6215 25.8896 29.0769 25.8896 29.6387C25.8896 30.2006 26.3125 30.656 26.8343 30.656Z" fill="#516B7B"/>
<path d="M34.5812 36.0371H23.3799C22.8581 36.0371 22.4352 36.4925 22.4352 37.0544C22.4352 37.6162 22.8581 38.0716 23.3799 38.0716H34.5812C35.103 38.0716 35.5259 37.6162 35.5259 37.0544C35.5259 36.4925 35.103 36.0371 34.5812 36.0371Z" fill="#516B7B"/>
<path d="M10.2491 37.0544C10.2491 37.6162 10.6721 38.0716 11.1937 38.0716H18.385C18.9067 38.0716 19.3296 37.6162 19.3296 37.0544C19.3296 36.4925 18.9067 36.0371 18.385 36.0371H11.1937C10.672 36.0372 10.2491 36.4927 10.2491 37.0544Z" fill="#516B7B"/>
<path d="M12.9823 33.0668C13.504 33.0668 13.9269 32.6114 13.9269 32.0496C13.9269 31.4877 13.504 31.0323 12.9823 31.0323C12.4549 31.0323 11.8263 30.7463 11.8263 29.383V27.9487C11.8263 27.1104 11.5988 26.5423 11.2978 26.1498C11.5987 25.7571 11.8263 25.189 11.8263 24.3514V22.9171C11.8263 21.554 12.4549 21.2679 12.9823 21.2679C13.504 21.2679 13.9269 20.8125 13.9269 20.2507C13.9269 19.6888 13.504 19.2334 12.9823 19.2334C11.4664 19.2334 9.9369 20.3725 9.9369 22.917V24.3512C9.9369 24.8855 9.84665 24.9216 9.41315 25.0955C9.3139 25.1354 9.2114 25.1765 9.1069 25.2285C8.6334 25.4644 8.42715 26.069 8.64615 26.5789C8.73215 26.7791 8.8719 26.9331 9.03753 27.0343C9.05765 27.0485 9.31878 27.1691 9.4129 27.2065C9.84665 27.3784 9.9369 27.4142 9.9369 27.9485V29.3827C9.9369 31.9278 11.4664 33.0668 12.9823 33.0668V33.0668Z" fill="#F96830"/>
<path d="M19.052 29.2229C19.052 30.5861 18.4234 30.8721 17.896 30.8721C17.3742 30.8721 16.9514 31.3275 16.9514 31.8894C16.9514 32.4512 17.3742 32.9066 17.896 32.9066C19.4119 32.9066 20.9414 31.7676 20.9414 29.2231V27.7926C20.9414 27.2583 21.0316 27.2221 21.4651 27.0483C21.5597 27.0103 21.6575 26.9705 21.7569 26.9219C21.7596 26.9206 21.8001 26.8994 21.8111 26.8915C21.9914 26.7903 22.1437 26.628 22.2344 26.4135C22.4505 25.9022 22.2407 25.299 21.766 25.0663C21.6634 25.0161 21.5626 24.976 21.4652 24.9375C21.0315 24.7656 20.9412 24.7297 20.9412 24.1954V22.7611C20.9412 20.2165 19.4117 19.0774 17.8959 19.0774C17.3741 19.0774 16.9512 19.5328 16.9512 20.0947C16.9512 20.6565 17.3741 21.1119 17.8959 21.1119C18.4232 21.1119 19.0519 21.398 19.0519 22.7612V24.1955C19.0519 25.0337 19.2794 25.6018 19.5804 25.9944C19.2795 26.3871 19.0519 26.9552 19.0519 27.7928V29.2229H19.052Z" fill="#F96830"/>
<path d="M33.9578 43.4493H11.0696C10.5478 43.4493 10.1249 43.9047 10.1249 44.4666C10.1249 45.0285 10.5478 45.4839 11.0696 45.4839H33.9577C34.4794 45.4839 34.9023 45.0285 34.9023 44.4666C34.9023 43.9047 34.4794 43.4493 33.9578 43.4493V43.4493Z" fill="#516B7B"/>
<path d="M33.8337 50.865H10.9455C10.4237 50.865 10.0009 51.3204 10.0009 51.8823C10.0009 52.4441 10.4237 52.8995 10.9455 52.8995H33.8336C34.3554 52.8995 34.7782 52.4441 34.7782 51.8823C34.7782 51.3204 34.3554 50.865 33.8337 50.865Z" fill="#516B7B"/>
<path d="M54.5784 10.5641C56.2049 10.5641 57.528 9.13915 57.528 7.38771C57.528 5.63627 56.2049 4.21143 54.5784 4.21143C52.95 4.21143 51.6252 5.63627 51.6252 7.38771C51.6252 9.13915 52.9499 10.5641 54.5784 10.5641ZM54.5784 6.24595C55.1631 6.24595 55.6387 6.75822 55.6387 7.38785C55.6387 8.01747 55.163 8.52974 54.5784 8.52974C53.9917 8.52974 53.5144 8.01747 53.5144 7.38785C53.5144 6.75822 53.9916 6.24595 54.5784 6.24595Z" fill="#516B7B"/>
<path d="M46.055 10.5641C47.6816 10.5641 49.0047 9.13915 49.0047 7.38771C49.0047 5.63627 47.6816 4.21143 46.055 4.21143C44.4285 4.21143 43.1053 5.63627 43.1053 7.38771C43.1053 9.13915 44.4285 10.5641 46.055 10.5641ZM46.055 6.24595C46.6397 6.24595 47.1155 6.75822 47.1155 7.38785C47.1155 8.01747 46.6396 8.52974 46.055 8.52974C45.4702 8.52974 44.9946 8.01747 44.9946 7.38785C44.9946 6.75822 45.4702 6.24595 46.055 6.24595Z" fill="#516B7B"/>
<path d="M37.5318 10.5641C39.1583 10.5641 40.4814 9.13915 40.4814 7.38771C40.4814 5.63627 39.1583 4.21143 37.5318 4.21143C35.9052 4.21143 34.582 5.63627 34.582 7.38771C34.582 9.13915 35.9052 10.5641 37.5318 10.5641ZM37.5318 6.24595C38.1165 6.24595 38.5922 6.75822 38.5922 7.38785C38.5922 8.01747 38.1164 8.52974 37.5318 8.52974C36.9472 8.52974 36.4713 8.01747 36.4713 7.38785C36.4712 6.75822 36.947 6.24595 37.5318 6.24595Z" fill="#516B7B"/>
<path d="M57.2072 0H7.78925C3.77 0 0.5 3.52121 0.5 7.84936V56.147C0.5 60.477 3.77 64 7.78925 64H57.2072C61.2285 64 64.5 60.477 64.5 56.1469V7.84936C64.5 3.52121 61.2285 0 57.2072 0V0ZM57.2072 61.9656H7.78925C4.81175 61.9656 2.38925 59.3553 2.38925 56.147V14.9585H16.27C16.7918 14.9585 17.2146 14.5031 17.2146 13.9412C17.2146 13.3794 16.7918 12.924 16.27 12.924H2.38937V7.84936C2.38937 4.64303 4.81175 2.03453 7.78937 2.03453H57.2074C60.1869 2.03453 62.6109 4.64303 62.6109 7.84936V12.9241H20.5954C20.0736 12.9241 19.6507 13.3795 19.6507 13.9414C19.6507 14.5032 20.0736 14.9586 20.5954 14.9586H62.6107V56.147C62.6107 59.3553 60.1867 61.9656 57.2072 61.9656V61.9656Z" fill="#516B7B"/>
<path d="M56.5871 42.4039H56.3351C56.2678 42.2092 56.1945 42.017 56.1158 41.8274L56.2916 41.638C56.6546 41.2471 56.8539 40.7266 56.8526 40.1723C56.8514 39.6199 56.651 39.1026 56.2924 38.72L54.4638 36.747C54.102 36.3575 53.6201 36.143 53.1068 36.143C52.5935 36.143 52.1115 36.3576 51.7499 36.747L51.5741 36.9362C51.3978 36.851 51.2191 36.7721 51.0385 36.6996V36.4286C51.0385 35.2914 50.1778 34.3662 49.1198 34.3662H46.5336C45.4756 34.3662 44.6149 35.2914 44.6149 36.4286V36.7575C44.4494 36.8272 44.2854 36.9025 44.123 36.9833L43.9035 36.747C43.5416 36.3573 43.0601 36.143 42.5471 36.143C42.5455 36.143 42.544 36.143 42.5425 36.143C42.0306 36.1443 41.5515 36.359 41.1926 36.7475L39.3648 38.7159C39.0023 39.1026 38.8019 39.6199 38.8006 40.1723C38.7994 40.7266 38.9988 41.247 39.3615 41.6378L39.634 41.9311C39.5705 42.0873 39.5113 42.2449 39.4559 42.4038H39.066C38.01 42.4038 37.1508 43.3308 37.1508 44.47V47.2547C37.1508 48.3941 38.0099 49.3209 39.066 49.3209H39.5109C39.5631 49.4647 39.6184 49.6068 39.6768 49.7476L39.3618 50.0868C38.6135 50.8925 38.6135 52.2035 39.3624 53.0099L41.19 54.9742C41.5491 55.3647 42.0295 55.5804 42.5426 55.5817H42.5473C43.0603 55.5817 43.5418 55.3674 43.9038 54.9776L44.2169 54.6402C44.3483 54.7035 44.481 54.7633 44.615 54.8195V55.2958C44.615 56.4352 45.4758 57.362 46.5338 57.362H49.1199C50.1779 57.362 51.0386 56.435 51.0386 55.2958V54.8761C51.1859 54.817 51.3326 54.7531 51.4784 54.6851L51.7499 54.9774C52.1116 55.367 52.5935 55.5816 53.1069 55.5816C53.6203 55.5816 54.1021 55.3671 54.4639 54.9774L56.2919 53.0091C56.6536 52.6195 56.8529 52.1005 56.8529 51.5479C56.8529 50.9952 56.6536 50.4763 56.2919 50.0866L56.0731 49.8511C56.1481 49.6764 56.2183 49.4994 56.283 49.3207H56.5874C57.6455 49.3207 58.5063 48.3937 58.5063 47.2545V44.4697C58.506 43.3308 57.6453 42.4039 56.5871 42.4039V42.4039ZM56.6168 47.2549C56.6168 47.2691 56.6004 47.2867 56.5871 47.2867H55.6095C55.1918 47.2867 54.8236 47.5821 54.7043 48.0132C54.5574 48.5429 54.353 49.0586 54.0968 49.5458C53.8874 49.9437 53.9503 50.4433 54.2506 50.7665L54.9556 51.5256C54.9659 51.5365 54.9659 51.56 54.9556 51.5709L53.1276 53.5393C53.1235 53.5437 53.0899 53.544 53.0855 53.5393L52.3415 52.7381C52.0491 52.4234 51.6008 52.3501 51.2346 52.5568C50.7774 52.8152 50.3073 53.0185 49.8373 53.1613C49.4301 53.285 49.149 53.6849 49.149 54.1403V55.2962C49.149 55.3106 49.1359 55.328 49.1195 55.328H46.5334C46.5203 55.328 46.5039 55.3105 46.5039 55.2962V54.0945C46.5039 53.6446 46.2294 53.2481 45.829 53.1197C45.3631 52.9703 44.911 52.7661 44.4851 52.5134C44.3419 52.4282 44.1849 52.3869 44.0291 52.3869C43.7845 52.3869 43.5426 52.4891 43.3609 52.6849L42.5675 53.5394C42.5654 53.5417 42.5599 53.5476 42.5469 53.5476H42.5468C42.5364 53.5476 42.5331 53.544 42.5283 53.5387L40.6975 51.571C40.6874 51.5601 40.6874 51.5367 40.6976 51.5258L41.4911 50.6713C41.7871 50.3525 41.853 49.8619 41.6529 49.4659C41.4194 49.0039 41.2285 48.5133 41.0856 48.0078C40.9644 47.5796 40.5976 47.2869 40.1819 47.2869H39.0659C39.0545 47.2869 39.0399 47.2714 39.0399 47.2551V44.4704C39.0399 44.4541 39.0545 44.4386 39.0659 44.4386H40.1393C40.5621 44.4386 40.9335 44.136 41.0484 43.6977C41.1828 43.1853 41.3715 42.6828 41.6096 42.2041C41.8063 41.8089 41.7394 41.3217 41.445 41.0046L40.6975 40.1996C40.6954 40.1973 40.6899 40.1914 40.6899 40.1774C40.6899 40.1664 40.6933 40.1627 40.6975 40.1581L42.5289 38.1859C42.5299 38.1848 42.531 38.1836 42.5319 38.1825C42.533 38.1813 42.5363 38.1776 42.5466 38.1776H42.5468C42.5596 38.1776 42.5653 38.1836 42.5673 38.1857L43.2721 38.9448C43.5718 39.2674 44.034 39.3358 44.4034 39.1122C44.8614 38.8348 45.3416 38.6141 45.8306 38.456C46.2303 38.3269 46.5038 37.9309 46.5038 37.4817V36.4289C46.5038 36.4166 46.5181 36.4009 46.5333 36.4009H49.1194C49.1368 36.4009 49.1489 36.4156 49.1489 36.4289V37.4361C49.1489 37.8912 49.4296 38.2908 49.8363 38.4148C50.3444 38.5697 50.8398 38.7884 51.3086 39.0646C51.6765 39.2815 52.1334 39.2111 52.4301 38.8916L53.0856 38.1857C53.0898 38.1813 53.1243 38.182 53.1269 38.1852L54.9586 40.1615C54.9598 40.1627 54.9631 40.1662 54.9631 40.1774C54.9631 40.1914 54.9576 40.1975 54.9554 40.1998L54.3 40.9055C54.0034 41.225 53.938 41.7168 54.1394 42.113C54.3941 42.6143 54.5973 43.1482 54.7433 43.7C54.8589 44.1371 55.2298 44.4386 55.6518 44.4386H56.587C56.6003 44.4386 56.6166 44.4561 56.6166 44.4704V47.2549H56.6168Z" fill="#F96830"/>
<path d="M47.8264 40.5424C45.102 40.5424 42.8857 42.9289 42.8857 45.8624C42.8857 48.7959 45.102 51.1825 47.8264 51.1825C50.5506 51.1825 52.7669 48.7959 52.7669 45.8624C52.7669 42.9289 50.5505 40.5424 47.8264 40.5424ZM47.8264 49.1481C46.1439 49.1481 44.775 47.6742 44.775 45.8624C44.775 44.0506 46.144 42.5767 47.8264 42.5767C49.5089 42.5767 50.8776 44.0508 50.8776 45.8624C50.8776 47.6741 49.5087 49.1481 47.8264 49.1481Z" fill="#F96830"/>
</svg>
