<svg width="28" height="28" viewBox="0 0 28 28" fill="none" xmlns="http://www.w3.org/2000/svg">
<path d="M2.95167 22.9252L4.515 23.5785V13.0435L1.68 19.8802C1.20167 21.0702 1.77333 22.4352 2.95167 22.9252V22.9252ZM25.7017 18.6085L19.915 4.6435C19.5533 3.7685 18.7017 3.23183 17.8033 3.2085C17.5 3.2085 17.185 3.25516 16.8817 3.3835L8.28333 6.94183C7.40833 7.3035 6.87167 8.1435 6.84833 9.04183C6.83667 9.35683 6.895 9.67183 7.02333 9.97516L12.81 23.9402C13.1717 24.8268 14.035 25.3635 14.945 25.3752C15.2483 25.3752 15.5517 25.3168 15.8433 25.2002L24.43 21.6418C25.62 21.1518 26.1917 19.7868 25.7017 18.6085V18.6085ZM14.9683 23.0418L9.18167 9.0885L17.7567 5.54183H17.7683L23.5433 19.4835L14.9683 23.0418V23.0418Z" fill="#FB9A74"/>
<path d="M12.8333 11.6668C13.4777 11.6668 14 11.1445 14 10.5002C14 9.85583 13.4777 9.3335 12.8333 9.3335C12.189 9.3335 11.6667 9.85583 11.6667 10.5002C11.6667 11.1445 12.189 11.6668 12.8333 11.6668Z" fill="#FB9A74"/>
<path d="M6.86 23.0417C6.86 24.325 7.91 25.375 9.19333 25.375H10.885L6.86 15.645V23.0417Z" fill="#FB9A74"/>
</svg>
