<svg width="47" height="35" viewBox="0 0 47 35" fill="none" xmlns="http://www.w3.org/2000/svg">
<path d="M44.0087 5.14005C42.5931 5.14005 41.4451 6.24704 41.4451 7.61205C41.4451 8.19598 41.6861 8.70977 42.0372 9.1331L33.6656 15.5897C33.1885 15.9577 32.625 16.1319 32.0682 16.1319C31.1381 16.1319 30.2272 15.6455 29.7706 14.7645L24.6378 4.85654C25.471 4.4502 26.0638 3.63444 26.0638 2.66805C26.0638 1.30304 24.9158 0.196045 23.5002 0.196045C22.0847 0.196045 20.9367 1.30304 20.9367 2.66805C20.9367 3.63444 21.5268 4.4502 22.365 4.85654L17.2275 14.7654C16.7709 15.5765 15.8576 16.1327 14.9283 16.1327C14.372 16.1327 13.8084 15.9585 13.3309 15.5905L4.96331 9.13387C5.3142 8.709 5.55533 8.19915 5.55533 7.61205C5.55533 6.24704 4.40734 5.14005 2.99178 5.14005C1.57621 5.14005 0.428223 6.24472 0.428223 7.61205C0.428223 8.97705 1.57621 10.084 2.99178 10.084C3.1512 10.084 3.28987 10.0234 3.44128 9.99652L7.35311 30.7459C7.79684 33.0968 9.92139 34.804 12.3968 34.804H34.6036C37.0815 34.804 39.2044 33.0953 39.6482 30.7446L43.56 9.99521C43.7123 10.0222 43.8484 10.084 44.0087 10.084C45.4242 10.084 46.5722 8.97705 46.5722 7.61205C46.5722 6.24472 45.4266 5.14005 44.0087 5.14005ZM37.1271 30.3004C36.9028 31.4746 35.8453 32.332 34.6036 32.332H12.3968C11.1575 32.332 10.0968 31.4784 9.87492 30.3019L6.73938 13.6684L11.7319 17.5201C12.638 18.2192 13.7739 18.6039 14.9307 18.6039C16.8879 18.6039 18.6471 17.5564 19.5211 15.8701L23.5002 8.19915L27.4793 15.8739C28.3534 17.5603 30.1126 18.6078 32.0697 18.6078C33.2265 18.6078 34.3625 18.2228 35.2685 17.524L40.2611 13.6723L37.1271 30.3004Z" fill="currentColor"/>
</svg>
