<svg width="12" height="12" viewBox="0 0 12 12" fill="none" xmlns="http://www.w3.org/2000/svg">
<path d="M7.19995 2.99995H4.79995L3.9112 1.66645C3.77808 1.46695 3.92058 1.19995 4.16058 1.19995H7.83933C8.07933 1.19995 8.22183 1.46695 8.0887 1.66645L7.19995 2.99995ZM4.79995 3.59995H7.19995C7.2712 3.64683 7.35183 3.69933 7.42683 3.75745C8.50683 4.43808 10.8 5.90433 10.8 8.99995C10.8 9.9937 9.9937 10.8 8.99995 10.8H2.99995C2.00583 10.8 1.19995 9.9937 1.19995 8.99995C1.19995 5.90433 3.49308 4.43808 4.5562 3.75745C4.64808 3.69933 4.7287 3.64683 4.79995 3.59995ZM6.37683 5.39995C6.37683 5.19183 6.20808 5.02308 5.98308 5.02308C5.79183 5.02308 5.62308 5.19183 5.62308 5.39995V5.51245C5.51808 5.53495 5.40183 5.56683 5.32495 5.60808C5.04558 5.73558 4.80183 5.97183 4.74183 6.31495C4.70808 6.5062 4.72683 6.69183 4.80558 6.8587C4.88433 7.0237 5.0062 7.13995 5.12995 7.22433C5.34745 7.37245 5.63433 7.4587 5.8537 7.52433L5.89495 7.53558C6.15745 7.6162 6.3337 7.67433 6.44433 7.75495C6.4912 7.7887 6.50808 7.81495 6.5137 7.83183C6.5212 7.84683 6.53245 7.88058 6.51933 7.95558C6.50808 8.0212 6.47245 8.07745 6.36933 8.12058C6.25495 8.16933 6.06933 8.1937 5.82933 8.1562C5.71683 8.13745 5.5162 8.06995 5.33808 8.00995C5.29683 7.99495 5.25558 7.98183 5.21808 7.9687C5.0212 7.90308 4.80933 8.00995 4.7437 8.20683C4.67808 8.4037 4.78495 8.61558 4.98183 8.66433C5.00433 8.6887 5.03245 8.69808 5.06433 8.70933C5.19558 8.75995 5.44495 8.8387 5.62308 8.87995V8.99995C5.62308 9.20808 5.79183 9.37683 5.98308 9.37683C6.20808 9.37683 6.37683 9.20808 6.37683 8.99995V8.89683C6.4762 8.87808 6.5737 8.83308 6.6637 8.81058C6.95995 8.68495 7.1962 8.4412 7.25808 8.08495C7.29183 7.88995 7.27683 7.70245 7.20183 7.53183C7.1287 7.36308 7.01058 7.23933 6.88495 7.14933C6.65808 6.98245 6.35433 6.89245 6.12745 6.82308L6.09558 6.81933C5.8462 6.7387 5.6662 6.68245 5.55183 6.6037C5.50308 6.56995 5.48808 6.54745 5.48433 6.53808C5.48058 6.53058 5.46933 6.50808 5.48058 6.44433C5.48808 6.40683 5.5162 6.34495 5.63433 6.29245C5.73933 6.23808 5.94183 6.20808 6.17058 6.22683C6.25308 6.25683 6.5062 6.30558 6.57933 6.32433C6.77808 6.3787 6.98433 6.2587 7.03683 6.05808C7.0912 5.85933 6.9712 5.65308 6.77058 5.60058C6.68808 5.57808 6.50058 5.54058 6.37683 5.51808V5.39995Z" fill="currentColor"/>
</svg>
