<svg width="20" height="21" viewBox="0 0 20 21" fill="none" xmlns="http://www.w3.org/2000/svg">
<path fill-rule="evenodd" clip-rule="evenodd" d="M10 2.5625C5.58352 2.5625 2 6.14602 2 10.5625C2 14.979 5.58352 18.5625 10 18.5625C14.4078 18.5625 18 14.979 18 10.5625C18 6.14602 14.4078 2.5625 10 2.5625ZM15.2842 6.25013C16.2386 7.41283 16.8113 8.89655 16.8287 10.5017C16.6031 10.4584 14.347 9.9985 12.0737 10.2849C12.0217 10.172 11.9783 10.0505 11.9263 9.9291C11.7874 9.5994 11.6313 9.261 11.475 8.93995C13.9913 7.9161 15.1367 6.44103 15.2842 6.25013ZM10 3.74255C11.7353 3.74255 13.3232 4.39331 14.5293 5.46055C14.4078 5.63409 13.3752 7.01369 10.9458 7.92475C9.82645 5.86835 8.5857 4.18506 8.3948 3.92475C8.9067 3.80328 9.4447 3.74255 10 3.74255ZM7.0933 4.38462C7.2755 4.62757 8.49025 6.31955 9.6269 8.33255C6.43384 9.1829 3.61388 9.16555 3.31019 9.16555C3.75271 7.0484 5.18438 5.28701 7.0933 4.38462ZM3.16269 10.5712C3.16269 10.5018 3.16269 10.4323 3.16269 10.3629C3.4577 10.3716 6.77224 10.415 10.1822 9.39115C10.3818 9.7729 10.564 10.1634 10.7375 10.5538C10.6508 10.5799 10.5553 10.6059 10.4685 10.6319C6.94577 11.7685 5.07158 14.8749 4.9154 15.1351C3.8308 13.9291 3.16269 12.3239 3.16269 10.5712ZM10 17.3998C8.4208 17.3998 6.96312 16.8618 5.80911 15.9594C5.93058 15.7078 7.31885 13.0354 11.1713 11.6905C11.1887 11.6818 11.1974 11.6818 11.2148 11.6732C12.1779 14.1634 12.5683 16.2545 12.6725 16.8532C11.8482 17.2089 10.9458 17.3998 10 17.3998ZM13.8091 16.2284C13.7397 15.8119 13.3752 13.8163 12.4816 11.3608C14.6248 11.0224 16.4989 11.5777 16.7332 11.6558C16.4382 13.556 15.3449 15.1959 13.8091 16.2284Z" fill="#98A2B3"/>
</svg>
