<svg width="13" height="12" viewBox="0 0 13 12" fill="none" xmlns="http://www.w3.org/2000/svg">
<path d="M7.68337 3.6H2.30062C2.13191 3.6 1.97024 3.67265 1.85531 3.79687C1.74281 3.92343 1.68659 4.08975 1.703 4.2585L2.30281 10.2416C2.33343 10.5656 2.59124 10.8 2.90062 10.8H7.08375C7.39312 10.8 7.65094 10.5656 7.68131 10.2587L8.28131 4.27556C8.29772 4.10681 8.24149 3.9405 8.12899 3.81393C8.03025 3.67312 7.85212 3.6 7.68337 3.6ZM6.90712 6H3.09412L2.97524 4.8H7.02525L6.90712 6ZM8.60025 1.2C7.42612 1.2 6.4365 1.95468 6.06712 3H7.0515C7.36312 2.46562 7.93744 2.1 8.60062 2.1C9.5775 2.1 10.4004 2.90625 10.4004 3.9C10.4004 4.83993 9.67631 5.604 8.75756 5.68368L8.66616 6.59306C10.1265 6.55875 11.3003 5.37 11.3003 3.9C11.3003 2.40937 10.0909 1.2 8.60025 1.2Z" fill="#667085"/>
</svg>
