<svg width="40" height="24" viewBox="0 0 40 24" fill="none" xmlns="http://www.w3.org/2000/svg">
<path d="M38.24 10.6338H37.28V6.20308C37.28 4.73483 35.9906 3.54462 34.4 3.54462H32.48C32.1425 3.54462 31.82 3.61385 31.52 3.70385V2.65846C31.52 1.19022 30.2306 0 28.64 0H26.72C25.13 0 23.84 1.19022 23.84 2.65846V10.6338H16.16V2.65846C16.16 1.19022 14.8706 0 13.28 0H11.36C9.77005 0 8.48005 1.19022 8.48005 2.65846V3.70412C8.18005 3.60554 7.85605 3.54462 7.52005 3.54462H5.60005C4.00945 3.54462 2.72005 4.73538 2.72005 6.20308V10.6338H1.76005C1.23199 10.6338 0.800049 11.0326 0.800049 11.52C0.800049 12.0072 1.23199 12.4062 1.76005 12.4062H2.72005V16.8369C2.72005 18.3052 4.00945 19.4954 5.60005 19.4954H7.52005C7.85755 19.4954 8.18005 19.4262 8.48005 19.3362V20.3815C8.48005 21.8498 9.76945 23.04 11.36 23.04H13.28C14.87 23.04 16.16 21.8492 16.16 20.3815V12.4062H23.84V20.3815C23.84 21.8498 25.1294 23.04 26.72 23.04H28.64C30.2306 23.04 31.52 21.8498 31.52 20.3815V19.3359C31.82 19.4345 32.144 19.4954 32.48 19.4954H34.4C35.9906 19.4954 37.28 18.3052 37.28 16.8369V12.4062H38.24C38.768 12.4062 39.2 12.0074 39.2 11.52C39.2 11.0326 38.768 10.6338 38.24 10.6338ZM8.48005 16.8369C8.48005 17.3215 8.04505 17.7231 7.52005 17.7231H5.60005C5.07505 17.7231 4.64005 17.3243 4.64005 16.8369V6.20308C4.64005 5.71846 5.07505 5.31692 5.60005 5.31692H7.52005C8.04805 5.31692 8.48005 5.72123 8.48005 6.20308V16.8369ZM14.24 20.3815C14.24 20.8662 13.805 21.2677 13.28 21.2677H11.36C10.838 21.2677 10.4 20.8689 10.4 20.3815V2.65846C10.4 2.17385 10.835 1.77231 11.36 1.77231H13.28C13.808 1.77231 14.24 2.17385 14.24 2.65846V20.3815ZM29.6 20.3815C29.6 20.8662 29.165 21.2677 28.64 21.2677H26.72C26.195 21.2677 25.76 20.8662 25.76 20.3815V2.65846C25.76 2.17385 26.195 1.77231 26.72 1.77231H28.64C29.168 1.77231 29.6 2.17385 29.6 2.65846V20.3815ZM35.36 16.8369C35.36 17.3215 34.925 17.7231 34.4 17.7231H32.48C31.955 17.7231 31.52 17.3215 31.52 16.8369V6.20308C31.52 5.71846 31.955 5.31692 32.48 5.31692H34.4C34.928 5.31692 35.36 5.72123 35.36 6.20308V16.8369Z" fill="white"/>
</svg>
