<svg width="20" height="20" viewBox="0 0 20 20" fill="none" xmlns="http://www.w3.org/2000/svg">
<path d="M10.9 12.4039C10.9 10.0389 12.7141 8.12022 14.95 8.12022C17.1859 8.12022 19 10.0389 19 12.4039C19 14.7688 17.1859 16.6875 14.95 16.6875C12.7141 16.6875 10.9 14.7688 10.9 12.4039ZM16.8428 11.7881C17.02 11.6037 17.02 11.3002 16.8428 11.1158C16.6684 10.9284 16.3816 10.9284 16.2072 11.1158L14.5 12.9215L13.6928 12.0677C13.5184 11.8803 13.2316 11.8803 13.0572 12.0677C12.88 12.2522 12.88 12.5556 13.0572 12.74L14.1822 13.9299C14.3566 14.1173 14.6434 14.1173 14.8178 13.9299L16.8428 11.7881Z" fill="#98A2B3"/>
<path d="M1 5.74038C1 4.95178 1.60441 4.3125 2.35 4.3125H14.05C14.7953 4.3125 15.4 4.95178 15.4 5.74038C15.4 6.18957 15.2003 6.61199 14.86 6.88269L14.4691 7.19207C12.5959 7.38245 11.0266 8.67945 10.3544 10.4584L8.74 11.7375C8.41938 11.9904 7.98063 11.9904 7.66 11.7375L1.54 6.88269C1.20005 6.61199 1 6.18957 1 5.74038ZM10 12.4038C10 13.6681 10.4247 14.8313 11.1306 15.7356H2.8C1.80578 15.7356 1 14.8818 1 13.8317V7.64423L7.12 12.499C7.76125 13.0077 8.63875 13.0077 9.28 12.499L10.0225 11.91C10.0084 12.0736 10 12.2373 10 12.4038Z" fill="#D0D5DD"/>
</svg>
