<svg width="54" height="41" viewBox="0 0 54 41" fill="none" xmlns="http://www.w3.org/2000/svg">
<path d="M29.992 10.432C29.992 7.28067 31.0243 4.78134 33.089 2.934C35.1537 0.977999 37.7617 0 40.913 0C44.7163 0 47.8133 1.24967 50.204 3.749C52.7033 6.24833 53.953 9.83433 53.953 14.507C53.953 19.5057 52.486 24.45 49.552 29.34C46.7267 34.1213 42.706 37.9247 37.49 40.75L33.741 35.045C36.5663 33.089 38.794 30.9157 40.424 28.525C42.1627 26.1343 43.3037 23.3633 43.847 20.212C42.869 20.6467 41.728 20.864 40.424 20.864C37.3813 20.864 34.882 19.886 32.926 17.93C30.97 15.974 29.992 13.4747 29.992 10.432ZM0 10.432C0 7.28067 1.03233 4.78134 3.097 2.934C5.16167 0.977999 7.76967 0 10.921 0C14.7243 0 17.8213 1.24967 20.212 3.749C22.7113 6.24833 23.961 9.83433 23.961 14.507C23.961 19.5057 22.494 24.45 19.56 29.34C16.7347 34.1213 12.714 37.9247 7.498 40.75L3.749 35.045C6.57433 33.089 8.802 30.9157 10.432 28.525C12.1707 26.1343 13.3117 23.3633 13.855 20.212C12.877 20.6467 11.736 20.864 10.432 20.864C7.38933 20.864 4.89 19.886 2.934 17.93C0.978 15.974 0 13.4747 0 10.432Z" fill="#F2F4F7"/>
</svg>
