<svg width="65" height="64" viewBox="0 0 65 64" fill="none" xmlns="http://www.w3.org/2000/svg">
<path d="M32.7045 22.4087V2.61353H22.8068C20.1817 2.61353 17.6642 3.65632 15.808 5.5125C13.9519 7.36869 12.9091 9.88622 12.9091 12.5113C12.9091 15.1363 13.9519 17.6538 15.808 19.51C17.6642 21.3662 20.1817 22.409 22.8068 22.409L32.7045 22.4087Z" stroke="#516B7B" stroke-width="3" stroke-linecap="round" stroke-linejoin="round"/>
<path d="M32.7045 42.2039V22.4087H22.8068C20.1817 22.4087 17.6642 23.4515 15.808 25.3077C13.9519 27.1639 12.9091 29.6814 12.9091 32.3065C12.9091 34.9315 13.9519 37.449 15.808 39.3052C17.6642 41.1614 20.1817 42.2042 22.8068 42.2042L32.7045 42.2039ZM32.7045 22.4087V2.61353H42.6023C45.2273 2.61353 47.7448 3.65632 49.601 5.5125C51.4572 7.36869 52.5 9.88622 52.5 12.5113C52.5 15.1363 51.4572 17.6538 49.601 19.51C47.7448 21.3662 45.2273 22.409 42.6023 22.409L32.7045 22.4087Z" stroke="#516B7B" stroke-width="3" stroke-linecap="round" stroke-linejoin="round"/>
<path d="M32.7045 42.2039V52.1017C32.7046 54.0593 32.1241 55.9729 31.0365 57.6006C29.949 59.2283 28.4032 60.497 26.5946 61.2461C24.786 61.9953 22.7959 62.1913 20.8759 61.8094C18.9559 61.4275 17.1923 60.4849 15.8081 59.1007C14.4239 57.7164 13.4812 55.9528 13.0993 54.0328C12.7173 52.1129 12.9133 50.1228 13.6625 48.3142C14.4116 46.5056 15.6802 44.9598 17.3079 43.8722C18.9356 42.7846 20.8492 42.2041 22.8068 42.2041L32.7045 42.2039Z" stroke="#516B7B" stroke-width="3" stroke-linecap="round" stroke-linejoin="round"/>
<path d="M42.6023 42.2042C48.0687 42.2042 52.5001 37.7728 52.5001 32.3064C52.5001 26.8401 48.0687 22.4087 42.6023 22.4087C37.136 22.4087 32.7046 26.8401 32.7046 32.3064C32.7046 37.7728 37.136 42.2042 42.6023 42.2042Z" stroke="#F96830" stroke-width="3" stroke-linecap="round" stroke-linejoin="round"/>
</svg>
