<svg width="13" height="12" viewBox="0 0 13 12" fill="none" xmlns="http://www.w3.org/2000/svg">
<path d="M3.2602 3.82286H2.5402C2.34145 3.82286 2.1802 3.96171 2.1802 4.13143V5.46857C1.91515 5.46857 1.7002 5.65243 1.7002 5.88C1.7002 6.10719 1.91515 6.29143 2.1667 6.29143L2.1802 7.62857C2.1802 7.79957 2.34145 7.93714 2.5402 7.93714H3.2602C3.4597 7.93714 3.6202 7.79957 3.6202 7.62857V4.13143C3.6202 3.96171 3.4597 3.82286 3.2602 3.82286ZM8.54019 3H7.82019C7.62219 3 7.46019 3.13821 7.46019 3.30857V5.46857H5.54019V3.30857C5.54019 3.13821 5.3797 3 5.1802 3H4.4602C4.2622 3 4.1002 3.13821 4.1002 3.30857V8.45143C4.1002 8.62243 4.2622 8.76 4.4602 8.76H5.1802C5.3797 8.76 5.54019 8.62243 5.54019 8.45143V6.29143H7.46019V8.45143C7.46019 8.62179 7.62144 8.76 7.82019 8.76H8.54019C8.73894 8.76 8.90019 8.62179 8.90019 8.45143V3.30857C8.90019 3.13821 8.73969 3 8.54019 3ZM10.8202 5.46857V4.13143C10.8202 3.96171 10.6597 3.82286 10.4602 3.82286H9.74019C9.54219 3.82286 9.38019 3.96171 9.38019 4.13143V7.62857C9.38019 7.79893 9.54144 7.93714 9.74019 7.93714H10.4602C10.6589 7.93714 10.8202 7.79893 10.8202 7.62857V6.29143C11.0852 6.29143 11.3002 6.10719 11.3002 5.88C11.3002 5.65243 11.0857 5.46857 10.8202 5.46857Z" fill="#667085"/>
</svg>
