<svg width="21" height="20" viewBox="0 0 21 20" fill="none" xmlns="http://www.w3.org/2000/svg">
<path d="M18.3518 7.81797C18.6443 7.96562 18.7518 8.30781 18.5943 8.57969C18.4368 8.85391 18.0718 8.95469 17.7818 8.80703L10.6443 5.20187L3.55211 8.80703C3.26061 8.95469 2.89661 8.85391 2.73904 8.57969C2.58146 8.30781 2.69004 7.96562 2.98161 7.81797L10.3818 4.06766C10.5593 3.97745 10.7743 3.97745 10.9518 4.06766L18.3518 7.81797ZM7.66684 12.4375C7.66684 12.1258 7.93434 11.875 8.26684 11.875C8.59934 11.875 8.86683 12.1258 8.86683 12.4375C8.86683 12.7492 8.59934 13 8.26684 13C7.93434 13 7.66684 12.7492 7.66684 12.4375ZM13.6668 12.4375C13.6668 12.7492 13.3993 13 13.0668 13C12.7343 13 12.4668 12.7492 12.4668 12.4375C12.4668 12.1258 12.7343 11.875 13.0668 11.875C13.3993 11.875 13.6668 12.1258 13.6668 12.4375ZM7.21684 8.87031C7.47434 8.19766 8.15184 7.75 8.91183 7.75H12.4218C13.1818 7.75 13.8593 8.19766 14.0943 8.87031L14.8318 10.7477C14.8368 10.7594 14.8393 10.7711 14.8443 10.7805C15.4618 11.1883 15.8668 11.8633 15.8668 12.625V15.4375C15.8668 15.7492 15.5993 16 15.2668 16C14.9343 16 14.6668 15.7492 14.6668 15.4375V14.5H6.66684V15.4375C6.66684 15.7492 6.39935 16 6.06685 16C5.73435 16 5.46685 15.7492 5.46685 15.4375V12.625C5.46685 11.8633 5.87185 11.1883 6.48935 10.7805C6.49435 10.7711 6.49685 10.7594 6.50185 10.7477L7.21684 8.87031ZM8.91183 8.875C8.65934 8.875 8.43184 9.025 8.34684 9.24766L7.91934 10.375H13.4143L12.9868 9.24766C12.9018 9.025 12.6743 8.875 12.4218 8.875H8.91183ZM13.4668 11.5H7.86684C7.20434 11.5 6.66684 12.0039 6.66684 12.625V13.375H14.6668V12.625C14.6668 12.0039 14.1293 11.5 13.4668 11.5Z" fill="currentColor"/>
</svg>
