<svg width="20" height="21" viewBox="0 0 20 21" fill="none" xmlns="http://www.w3.org/2000/svg">
<path fill-rule="evenodd" clip-rule="evenodd" d="M10 2.5625C5.5816 2.5625 2 6.1497 2 10.5761C2 14.1161 4.292 17.1201 7.4712 18.1793C7.8712 18.2529 8.0168 18.0057 8.0168 17.7929C8.0168 17.6033 8.0104 17.0985 8.0064 16.4305C5.7808 16.9145 5.3112 15.3561 5.3112 15.3561C4.948 14.4297 4.4232 14.1833 4.4232 14.1833C3.6968 13.6873 4.4784 13.6969 4.4784 13.6969C5.2808 13.7529 5.7032 14.5225 5.7032 14.5225C6.4168 15.7465 7.576 15.3929 8.0312 15.1881C8.1048 14.6705 8.3112 14.3177 8.54 14.1177C6.764 13.9153 4.896 13.2273 4.896 10.1569C4.896 9.2825 5.208 8.5665 5.7192 8.0065C5.6368 7.8041 5.3624 6.9889 5.7976 5.8865C5.7976 5.8865 6.4696 5.6705 7.9976 6.7073C8.65021 6.52931 9.32355 6.43865 10 6.4377C10.68 6.4409 11.364 6.5297 12.0032 6.7073C13.5304 5.6705 14.2008 5.8857 14.2008 5.8857C14.6376 6.9889 14.3624 7.8041 14.2808 8.0065C14.7928 8.5665 15.1032 9.2825 15.1032 10.1569C15.1032 13.2353 13.232 13.9129 11.4504 14.1113C11.7376 14.3585 11.9928 14.8473 11.9928 15.5953C11.9928 16.6657 11.9832 17.5305 11.9832 17.7929C11.9832 18.0073 12.1272 18.2569 12.5336 18.1785C14.1266 17.6442 15.5115 16.6227 16.4924 15.2585C17.4733 13.8943 18.0007 12.2564 18 10.5761C18 6.1497 14.4176 2.5625 10 2.5625Z" fill="currentColor"/>
</svg>
