<svg width="47" height="47" viewBox="0 0 47 47" fill="none" xmlns="http://www.w3.org/2000/svg">
<path d="M35.1714 26.3842C36.4512 26.3842 37.3885 27.4928 37.1361 28.7275C35.5049 34.7749 30.0163 39.3622 23.5002 39.3622C16.9842 39.3622 11.4956 34.7749 9.86431 28.7275C9.53986 27.4928 10.5493 26.3842 11.829 26.3842H35.1714ZM33.9277 29.2682H13.0728C14.7491 33.5221 18.8137 36.4782 23.5002 36.4782C28.1867 36.4782 32.2514 33.5221 33.9277 29.2682ZM14.5328 17.4168C13.965 18.0657 13.5594 18.9309 13.3612 19.706C13.1719 20.481 12.3878 20.9497 11.6127 20.7514C10.8377 20.5621 10.369 19.7781 10.5673 19.003C10.8557 17.8584 11.4505 16.5606 12.3518 15.5242C13.262 14.4787 14.5959 13.5865 16.2902 13.5865C17.9846 13.5865 19.3184 14.4787 20.2287 15.5242C21.1299 16.5606 21.7248 17.8584 22.0132 19.003C22.2114 19.7781 21.7428 20.5621 20.9677 20.7514C20.1926 20.9497 19.4085 20.481 19.2193 19.706C19.021 18.9309 18.6154 18.0657 18.0477 17.4168C17.4979 16.7769 16.9031 16.4705 16.2902 16.4705C15.6774 16.4705 15.0825 16.7769 14.5328 17.4168ZM26.0327 20.7514C25.2577 20.5621 24.789 19.7781 24.9873 19.003C25.2757 17.8584 25.8705 16.5606 26.7718 15.5242C27.682 14.4787 29.0159 13.5865 30.7102 13.5865C32.4046 13.5865 33.7384 14.4787 34.6487 15.5242C35.5499 16.5606 36.1448 17.8584 36.4332 19.003C36.6314 19.7781 36.1628 20.5621 35.3877 20.7514C34.6126 20.9497 33.8285 20.481 33.6393 19.706C33.441 18.9309 33.0354 18.0657 32.4677 17.4168C31.9179 16.7769 31.3231 16.4705 30.7102 16.4705C30.0974 16.4705 29.5025 16.7769 28.9528 17.4168C28.385 18.0657 27.9794 18.9309 27.7812 19.706C27.5919 20.481 26.8078 20.9497 26.0327 20.7514ZM46.5722 23.5002C46.5722 36.2439 36.2439 46.5722 23.5002 46.5722C10.7565 46.5722 0.428223 36.2439 0.428223 23.5002C0.428223 10.7565 10.7565 0.428223 23.5002 0.428223C36.2439 0.428223 46.5722 10.7565 46.5722 23.5002ZM23.5002 3.31222C12.3518 3.31222 3.31222 12.3518 3.31222 23.5002C3.31222 34.6487 12.3518 43.6882 23.5002 43.6882C34.6487 43.6882 43.6882 34.6487 43.6882 23.5002C43.6882 12.3518 34.6487 3.31222 23.5002 3.31222Z" fill="currentColor"/>
</svg>
