<svg width="32" height="32" viewBox="0 0 32 32" fill="none" xmlns="http://www.w3.org/2000/svg">
<path d="M21.0522 30.8158C22.2632 30.8167 23.4495 30.4738 24.4732 29.8269C25.4969 29.18 26.3159 28.2558 26.8349 27.1617L27.1737 26.4474H26.3832H26.1053C25.5679 26.4474 25.0525 26.2339 24.6724 25.8539C24.2924 25.4739 24.0789 24.9585 24.0789 24.4211V14.3181C24.0819 14.0009 24.1594 13.6888 24.305 13.4069C24.451 13.1245 24.6613 12.8804 24.9191 12.6943C25.1768 12.5082 25.4748 12.3854 25.7888 12.3357C26.1028 12.2861 26.4241 12.311 26.7266 12.4085L27.437 12.6374L27.3785 11.8934C27.1527 9.0216 25.8524 6.34048 23.7371 4.38498C21.6218 2.42948 18.847 1.34338 15.9663 1.34338C13.0856 1.34338 10.3108 2.42948 8.19553 4.38498C6.08023 6.34048 4.77998 9.0216 4.55417 11.8934L4.49386 12.6605L5.2193 12.404C5.52501 12.2959 5.85221 12.2628 6.17339 12.3074C6.49457 12.352 6.80035 12.473 7.06506 12.6603C7.32977 12.8476 7.54567 13.0956 7.69462 13.3837C7.84357 13.6717 7.92122 13.9913 7.92105 14.3155V14.3158V24.419C7.91694 24.8936 7.74639 25.3516 7.43913 25.7133C7.13147 26.0755 6.7063 26.318 6.23795 26.3985C5.7696 26.479 5.28786 26.3923 4.87695 26.1536C4.46605 25.9149 4.15211 25.5393 3.99002 25.0926L3.87047 24.7632H3.52H3.36842C2.60767 24.7632 1.87807 24.4609 1.34014 23.923C0.802208 23.3851 0.5 22.6555 0.5 21.8947V16.8421C0.5 16.0814 0.802208 15.3518 1.34014 14.8138C1.87807 14.2759 2.60767 13.9737 3.36842 13.9737H3.86842V13.4737V12.6316C3.86842 9.41408 5.14657 6.32837 7.42168 4.05326C9.69679 1.77814 12.7825 0.5 16 0.5C19.2175 0.5 22.3032 1.77814 24.5783 4.05326C26.8534 6.32837 28.1316 9.41408 28.1316 12.6316V13.4737V13.9737H28.6316C29.3923 13.9737 30.1219 14.2759 30.6599 14.8138C31.1978 15.3518 31.5 16.0814 31.5 16.8421V21.8947C31.5 22.6555 31.1978 23.3851 30.6599 23.923C30.1219 24.4609 29.3923 24.7632 28.6316 24.7632H28.581H28.1338L28.0841 25.2076C27.8907 26.9375 27.0667 28.5355 25.7696 29.6963C24.4725 30.857 22.7932 31.4991 21.0526 31.5V31.998L21.0524 31.5H16C15.5992 31.5 15.2075 31.3812 14.8742 31.1585C14.541 30.9358 14.2813 30.6194 14.1279 30.2491C13.9746 29.8789 13.9344 29.4714 14.0126 29.0784C14.0908 28.6853 14.2838 28.3242 14.5672 28.0409C14.8506 27.7575 15.2116 27.5645 15.6047 27.4863C15.9977 27.4081 16.4052 27.4482 16.7754 27.6016C17.1457 27.755 17.4622 28.0147 17.6848 28.3479C17.9075 28.6811 18.0263 29.0729 18.0263 29.4737V30.3158V30.8158H18.5263H21.0522ZM21.0522 30.8158L21.0526 30.317V30.8158H21.0522ZM8.42105 24.4211V14.3158L3.52 25.2632C3.72209 25.8201 4.11349 26.2883 4.62579 26.5859C5.1381 26.8835 5.7387 26.9916 6.32262 26.8913C6.90654 26.791 7.43662 26.4886 7.8202 26.037C8.20378 25.5855 8.41646 25.0135 8.42105 24.4211ZM3.86842 15.1579V14.6579H3.36842C2.78913 14.6579 2.23357 14.888 1.82395 15.2976C1.41433 15.7073 1.18421 16.2628 1.18421 16.8421V21.8947C1.18421 22.474 1.41433 23.0296 1.82395 23.4392C2.23357 23.8488 2.78913 24.0789 3.36842 24.0789H3.86842V23.5789V15.1579ZM16.8421 30.8158H17.3421V30.3158V29.4737C17.3421 29.2082 17.2634 28.9488 17.1159 28.7281C16.9684 28.5073 16.7588 28.3353 16.5136 28.2337C16.2684 28.1322 15.9985 28.1056 15.7382 28.1574C15.4778 28.2092 15.2387 28.337 15.051 28.5247C14.8633 28.7124 14.7355 28.9515 14.6837 29.2118C14.6319 29.4722 14.6585 29.742 14.7601 29.9873C14.8616 30.2325 15.0337 30.4421 15.2544 30.5896C15.4751 30.7371 15.7346 30.8158 16 30.8158H16.8421ZM28.1316 23.5789V24.0789H28.6316C29.2109 24.0789 29.7664 23.8488 30.176 23.4392C30.5857 23.0296 30.8158 22.474 30.8158 21.8947V16.8421C30.8158 16.2628 30.5857 15.7073 30.176 15.2976C29.7664 14.888 29.2109 14.6579 28.6316 14.6579H28.1316V15.1579V23.5789ZM6.84375 13.3668C6.59205 13.1151 6.25068 12.9737 5.89474 12.9737C5.53879 12.9737 5.19742 13.1151 4.94572 13.3668C4.69403 13.6185 4.55263 13.9598 4.55263 14.3158V24.4211C4.55263 24.777 4.69403 25.1184 4.94572 25.3701C5.19742 25.6218 5.53879 25.7632 5.89474 25.7632C6.25068 25.7632 6.59205 25.6218 6.84375 25.3701C7.09544 25.1184 7.23684 24.777 7.23684 24.4211V14.3158C7.23684 13.9598 7.09544 13.6185 6.84375 13.3668ZM25.1562 25.3701C25.4079 25.6218 25.7493 25.7632 26.1053 25.7632C26.4612 25.7632 26.8026 25.6218 27.0543 25.3701C27.306 25.1184 27.4474 24.777 27.4474 24.4211V14.3158C27.4474 13.9598 27.306 13.6185 27.0543 13.3668C26.8026 13.1151 26.4612 12.9737 26.1053 12.9737C25.7493 12.9737 25.4079 13.1151 25.1562 13.3668C24.9046 13.6185 24.7632 13.9598 24.7632 14.3158V24.4211C24.7632 24.777 24.9046 25.1184 25.1562 25.3701Z" fill="currentColor" stroke="#344054"/>
</svg>
