<svg width="40" height="32" viewBox="0 0 40 32" fill="none" xmlns="http://www.w3.org/2000/svg">
<path d="M18.08 4.44001V8.07601L16.16 6.31561V4.44001C16.16 2.31901 17.882 0.600006 20 0.600006H35.36C37.478 0.600006 39.2 2.31901 39.2 4.44001V27.48C39.2 29.598 37.478 31.32 35.36 31.32H24.8C25.166 30.762 25.52 30.108 25.664 29.4H35.36C36.422 29.4 37.28 28.542 37.28 27.48V4.44001C37.28 3.37981 36.422 2.52001 35.36 2.52001H20C18.938 2.52001 18.08 3.37981 18.08 4.44001ZM32.48 13.08C33.542 13.08 34.4 13.938 34.4 15V16.92C34.4 17.982 33.542 18.84 32.48 18.84H30.56C29.498 18.84 28.64 17.982 28.64 16.92V15C28.64 13.938 29.498 13.08 30.56 13.08H32.48ZM30.56 16.92H32.48V15H30.56V16.92ZM28.64 22.68C28.64 21.618 29.498 20.76 30.56 20.76H32.48C33.542 20.76 34.4 21.618 34.4 22.68V24.6C34.4 25.662 33.542 26.52 32.48 26.52H30.56C29.498 26.52 28.64 25.662 28.64 24.6V22.68ZM32.48 22.68H30.56V24.6H32.48V22.68ZM24.8 5.40001C25.862 5.40001 26.72 6.25981 26.72 7.32001V9.24001C26.72 10.302 25.862 11.16 24.8 11.16H22.88C21.818 11.16 20.96 10.302 20.96 9.24001V7.32001C20.96 6.25981 21.818 5.40001 22.88 5.40001H24.8ZM22.88 9.24001H24.8V7.32001H22.88V9.24001ZM28.64 7.32001C28.64 6.25981 29.498 5.40001 30.56 5.40001H32.48C33.542 5.40001 34.4 6.25981 34.4 7.32001V9.24001C34.4 10.302 33.542 11.16 32.48 11.16H30.56C29.498 11.16 28.64 10.302 28.64 9.24001V7.32001ZM32.48 7.32001H30.56V9.24001H32.48V7.32001ZM14.24 15.96C15.302 15.96 16.16 16.818 16.16 17.88V21.72C16.16 22.782 15.302 23.64 14.24 23.64H10.4C9.33805 23.64 8.48005 22.782 8.48005 21.72V17.88C8.48005 16.818 9.33805 15.96 10.4 15.96H14.24ZM14.24 17.88H10.4V21.72H14.24V17.88ZM0.800049 27.48V17.652C0.800049 16.572 1.25179 15.546 2.04505 14.766L9.72805 7.77601C11.192 6.43261 13.448 6.43261 14.912 7.77601L22.592 14.766C23.39 15.546 23.84 16.572 23.84 17.652V27.48C23.84 29.598 22.118 31.32 20 31.32H4.64005C2.51905 31.32 0.800049 29.598 0.800049 27.48ZM2.72005 17.652V27.48C2.72005 28.542 3.57985 29.4 4.64005 29.4H20C21.062 29.4 21.92 28.542 21.92 27.48V17.652C21.92 17.112 21.692 16.596 21.296 16.236L13.616 9.19201C12.884 8.52001 11.756 8.52001 11.024 9.19201L3.34285 16.236C2.94565 16.596 2.66605 17.112 2.66605 17.652H2.72005Z" fill="white"/>
</svg>
