<svg width="40" height="40" viewBox="0 0 40 40" fill="none" xmlns="http://www.w3.org/2000/svg">
<mask id="path-1-outside-1_1081_8985" maskUnits="userSpaceOnUse" x="3" y="3" width="34" height="34" fill="black">
<rect fill="white" x="3" y="3" width="34" height="34"/>
<path d="M35.0772 25.4908C34.8705 25.3559 34.6411 25.2597 34.4 25.2068V11.2635L22.6668 4L16.9186 7.55841C16.6104 7.03681 16.2367 6.55672 15.8068 6.12981C15.1686 5.48594 14.4095 4.9746 13.573 4.62521C12.7365 4.27581 11.8392 4.09526 10.9327 4.09394C10.9212 4.09394 10.9095 4.09394 10.898 4.09401C9.52923 4.09937 8.19273 4.51024 7.05732 5.27473C5.92191 6.03923 5.03853 7.12306 4.51874 8.38932C3.99895 9.65559 3.86608 11.0475 4.1369 12.3892C4.40773 13.731 5.0701 14.9624 6.04036 15.9279C7.30517 17.1998 9.01597 17.9286 10.8094 17.9595C10.8509 17.9602 10.8921 17.9594 10.9335 17.9594V26.2717C10.437 26.7576 9.7694 27.0289 9.07469 27.0271H4.00021V28.0938H9.07469C9.56516 28.0951 10.051 27.9992 10.5042 27.8115C10.9573 27.6238 11.3687 27.3481 11.7146 27.0003L11.9733 26.7415C12.2204 26.4931 12.5142 26.2962 12.8379 26.1621C13.1616 26.0281 13.5086 25.9595 13.859 25.9605H20.2668C20.4789 25.9605 20.6824 26.0448 20.8325 26.1948C20.9825 26.3448 21.0668 26.5483 21.0668 26.7605C21.0668 26.9727 20.9825 27.1761 20.8325 27.3262C20.6824 27.4762 20.4789 27.5605 20.2668 27.5605H13.6001V28.6271H15.1011L21.1215 30.9427C21.4466 31.0687 21.7934 31.1293 22.142 31.1211C22.4905 31.1128 22.834 31.0358 23.1528 30.8946L33.5753 26.3087C33.7227 26.2438 33.8839 26.2168 34.0443 26.2299C34.2048 26.2431 34.3594 26.2961 34.4943 26.3841C34.6291 26.472 34.7399 26.5923 34.8165 26.7338C34.8932 26.8754 34.9333 27.0339 34.9333 27.1949C34.9335 27.3701 34.886 27.542 34.796 27.6923C34.706 27.8426 34.5769 27.9656 34.4224 28.0482L22.9794 34.1784C21.3698 35.0443 19.4874 35.253 17.7273 34.7608L11.2164 32.9522C11.077 32.9134 10.9329 32.8938 10.7881 32.8938H4.00021V33.9604H10.7881C10.8363 33.9605 10.8844 33.967 10.9309 33.9799L17.4418 35.7885C19.4665 36.3544 21.6316 36.1143 23.4831 35.1186L34.9261 28.9885C35.2375 28.8217 35.5001 28.5766 35.688 28.2776C35.876 27.9785 35.9829 27.6356 35.9981 27.2827C36.0134 26.9297 35.9365 26.5789 35.775 26.2647C35.6135 25.9506 35.373 25.6838 35.0772 25.4908H35.0772ZM6.794 15.173C5.97397 14.3558 5.41431 13.3141 5.18563 12.1792C4.95695 11.0443 5.06949 9.86714 5.50906 8.79615C5.94862 7.72516 6.69552 6.80833 7.65554 6.16133C8.61555 5.51433 9.74568 5.16614 10.9034 5.16067C10.9131 5.16061 10.9228 5.16061 10.9326 5.16061C11.976 5.16067 13.0005 5.43895 13.9006 5.96678C14.8006 6.49461 15.5437 7.25288 16.0531 8.16347C16.5626 9.07406 16.82 10.104 16.7989 11.1472C16.7778 12.1904 16.4789 13.2091 15.9331 14.0984C15.8164 14.2874 15.7401 14.4984 15.7088 14.7183C15.6776 14.9382 15.6922 15.1622 15.7516 15.3762L16.1939 16.9475C16.2215 17.0456 16.2205 17.1495 16.1909 17.247C16.1613 17.3444 16.1044 17.4314 16.0269 17.4976C15.9495 17.5637 15.8547 17.6063 15.7538 17.6203C15.6529 17.6343 15.5501 17.6191 15.4575 17.5765L13.6649 16.7512C13.3178 16.5912 12.9248 16.5611 12.5573 16.6663L12.5573 16.6664C11.5509 16.9555 10.4853 16.9695 9.47167 16.7068C8.45802 16.4442 7.53336 15.9145 6.794 15.173L6.794 15.173ZM22.7232 29.9183C22.532 30.003 22.3259 30.0492 22.1167 30.0541C21.9076 30.0591 21.6995 30.0227 21.5045 29.9471L18.0725 28.6271H20.2668C20.7618 28.6271 21.2366 28.4305 21.5867 28.0804C21.9368 27.7303 22.1334 27.2556 22.1334 26.7605C22.1334 26.2654 21.9368 25.7906 21.5867 25.4406C21.2366 25.0905 20.7618 24.8938 20.2668 24.8938H19.4668V21.6938H21.0668V20.6272H19.4668V16.3605H25.8667V28.5351L22.7232 29.9183ZM26.9334 28.0658V15.2939H18.4001V24.8938H13.859C13.2066 24.8926 12.5655 25.0633 12.0002 25.3888V17.8779C12.2877 17.8338 12.5722 17.7715 12.8519 17.6915C12.9737 17.6569 13.1039 17.667 13.2189 17.7201L15.0115 18.5454C15.2226 18.6433 15.4525 18.6942 15.6852 18.6946C15.9319 18.6932 16.175 18.6349 16.3955 18.5242C16.6161 18.4135 16.8081 18.2534 16.9566 18.0564C17.1052 17.8594 17.2063 17.6308 17.2521 17.3883C17.2979 17.1458 17.2872 16.8961 17.2207 16.6585L16.7784 15.0871C16.7587 15.015 16.7542 14.9397 16.765 14.8658C16.7758 14.7919 16.8018 14.721 16.8414 14.6576C17.5128 13.5659 17.8678 12.3091 17.8668 11.0274C17.8674 10.1693 17.7056 9.31896 17.39 8.5211L22.6668 5.25455L33.3334 11.8576V25.2615C33.2702 25.2823 33.2074 25.3052 33.1457 25.3324L26.9334 28.0658Z"/>
</mask>
<path d="M35.0772 25.4908C34.8705 25.3559 34.6411 25.2597 34.4 25.2068V11.2635L22.6668 4L16.9186 7.55841C16.6104 7.03681 16.2367 6.55672 15.8068 6.12981C15.1686 5.48594 14.4095 4.9746 13.573 4.62521C12.7365 4.27581 11.8392 4.09526 10.9327 4.09394C10.9212 4.09394 10.9095 4.09394 10.898 4.09401C9.52923 4.09937 8.19273 4.51024 7.05732 5.27473C5.92191 6.03923 5.03853 7.12306 4.51874 8.38932C3.99895 9.65559 3.86608 11.0475 4.1369 12.3892C4.40773 13.731 5.0701 14.9624 6.04036 15.9279C7.30517 17.1998 9.01597 17.9286 10.8094 17.9595C10.8509 17.9602 10.8921 17.9594 10.9335 17.9594V26.2717C10.437 26.7576 9.7694 27.0289 9.07469 27.0271H4.00021V28.0938H9.07469C9.56516 28.0951 10.051 27.9992 10.5042 27.8115C10.9573 27.6238 11.3687 27.3481 11.7146 27.0003L11.9733 26.7415C12.2204 26.4931 12.5142 26.2962 12.8379 26.1621C13.1616 26.0281 13.5086 25.9595 13.859 25.9605H20.2668C20.4789 25.9605 20.6824 26.0448 20.8325 26.1948C20.9825 26.3448 21.0668 26.5483 21.0668 26.7605C21.0668 26.9727 20.9825 27.1761 20.8325 27.3262C20.6824 27.4762 20.4789 27.5605 20.2668 27.5605H13.6001V28.6271H15.1011L21.1215 30.9427C21.4466 31.0687 21.7934 31.1293 22.142 31.1211C22.4905 31.1128 22.834 31.0358 23.1528 30.8946L33.5753 26.3087C33.7227 26.2438 33.8839 26.2168 34.0443 26.2299C34.2048 26.2431 34.3594 26.2961 34.4943 26.3841C34.6291 26.472 34.7399 26.5923 34.8165 26.7338C34.8932 26.8754 34.9333 27.0339 34.9333 27.1949C34.9335 27.3701 34.886 27.542 34.796 27.6923C34.706 27.8426 34.5769 27.9656 34.4224 28.0482L22.9794 34.1784C21.3698 35.0443 19.4874 35.253 17.7273 34.7608L11.2164 32.9522C11.077 32.9134 10.9329 32.8938 10.7881 32.8938H4.00021V33.9604H10.7881C10.8363 33.9605 10.8844 33.967 10.9309 33.9799L17.4418 35.7885C19.4665 36.3544 21.6316 36.1143 23.4831 35.1186L34.9261 28.9885C35.2375 28.8217 35.5001 28.5766 35.688 28.2776C35.876 27.9785 35.9829 27.6356 35.9981 27.2827C36.0134 26.9297 35.9365 26.5789 35.775 26.2647C35.6135 25.9506 35.373 25.6838 35.0772 25.4908H35.0772ZM6.794 15.173C5.97397 14.3558 5.41431 13.3141 5.18563 12.1792C4.95695 11.0443 5.06949 9.86714 5.50906 8.79615C5.94862 7.72516 6.69552 6.80833 7.65554 6.16133C8.61555 5.51433 9.74568 5.16614 10.9034 5.16067C10.9131 5.16061 10.9228 5.16061 10.9326 5.16061C11.976 5.16067 13.0005 5.43895 13.9006 5.96678C14.8006 6.49461 15.5437 7.25288 16.0531 8.16347C16.5626 9.07406 16.82 10.104 16.7989 11.1472C16.7778 12.1904 16.4789 13.2091 15.9331 14.0984C15.8164 14.2874 15.7401 14.4984 15.7088 14.7183C15.6776 14.9382 15.6922 15.1622 15.7516 15.3762L16.1939 16.9475C16.2215 17.0456 16.2205 17.1495 16.1909 17.247C16.1613 17.3444 16.1044 17.4314 16.0269 17.4976C15.9495 17.5637 15.8547 17.6063 15.7538 17.6203C15.6529 17.6343 15.5501 17.6191 15.4575 17.5765L13.6649 16.7512C13.3178 16.5912 12.9248 16.5611 12.5573 16.6663L12.5573 16.6664C11.5509 16.9555 10.4853 16.9695 9.47167 16.7068C8.45802 16.4442 7.53336 15.9145 6.794 15.173L6.794 15.173ZM22.7232 29.9183C22.532 30.003 22.3259 30.0492 22.1167 30.0541C21.9076 30.0591 21.6995 30.0227 21.5045 29.9471L18.0725 28.6271H20.2668C20.7618 28.6271 21.2366 28.4305 21.5867 28.0804C21.9368 27.7303 22.1334 27.2556 22.1334 26.7605C22.1334 26.2654 21.9368 25.7906 21.5867 25.4406C21.2366 25.0905 20.7618 24.8938 20.2668 24.8938H19.4668V21.6938H21.0668V20.6272H19.4668V16.3605H25.8667V28.5351L22.7232 29.9183ZM26.9334 28.0658V15.2939H18.4001V24.8938H13.859C13.2066 24.8926 12.5655 25.0633 12.0002 25.3888V17.8779C12.2877 17.8338 12.5722 17.7715 12.8519 17.6915C12.9737 17.6569 13.1039 17.667 13.2189 17.7201L15.0115 18.5454C15.2226 18.6433 15.4525 18.6942 15.6852 18.6946C15.9319 18.6932 16.175 18.6349 16.3955 18.5242C16.6161 18.4135 16.8081 18.2534 16.9566 18.0564C17.1052 17.8594 17.2063 17.6308 17.2521 17.3883C17.2979 17.1458 17.2872 16.8961 17.2207 16.6585L16.7784 15.0871C16.7587 15.015 16.7542 14.9397 16.765 14.8658C16.7758 14.7919 16.8018 14.721 16.8414 14.6576C17.5128 13.5659 17.8678 12.3091 17.8668 11.0274C17.8674 10.1693 17.7056 9.31896 17.39 8.5211L22.6668 5.25455L33.3334 11.8576V25.2615C33.2702 25.2823 33.2074 25.3052 33.1457 25.3324L26.9334 28.0658Z" fill="#344054"/>
<path d="M35.0772 25.4908C34.8705 25.3559 34.6411 25.2597 34.4 25.2068V11.2635L22.6668 4L16.9186 7.55841C16.6104 7.03681 16.2367 6.55672 15.8068 6.12981C15.1686 5.48594 14.4095 4.9746 13.573 4.62521C12.7365 4.27581 11.8392 4.09526 10.9327 4.09394C10.9212 4.09394 10.9095 4.09394 10.898 4.09401C9.52923 4.09937 8.19273 4.51024 7.05732 5.27473C5.92191 6.03923 5.03853 7.12306 4.51874 8.38932C3.99895 9.65559 3.86608 11.0475 4.1369 12.3892C4.40773 13.731 5.0701 14.9624 6.04036 15.9279C7.30517 17.1998 9.01597 17.9286 10.8094 17.9595C10.8509 17.9602 10.8921 17.9594 10.9335 17.9594V26.2717C10.437 26.7576 9.7694 27.0289 9.07469 27.0271H4.00021V28.0938H9.07469C9.56516 28.0951 10.051 27.9992 10.5042 27.8115C10.9573 27.6238 11.3687 27.3481 11.7146 27.0003L11.9733 26.7415C12.2204 26.4931 12.5142 26.2962 12.8379 26.1621C13.1616 26.0281 13.5086 25.9595 13.859 25.9605H20.2668C20.4789 25.9605 20.6824 26.0448 20.8325 26.1948C20.9825 26.3448 21.0668 26.5483 21.0668 26.7605C21.0668 26.9727 20.9825 27.1761 20.8325 27.3262C20.6824 27.4762 20.4789 27.5605 20.2668 27.5605H13.6001V28.6271H15.1011L21.1215 30.9427C21.4466 31.0687 21.7934 31.1293 22.142 31.1211C22.4905 31.1128 22.834 31.0358 23.1528 30.8946L33.5753 26.3087C33.7227 26.2438 33.8839 26.2168 34.0443 26.2299C34.2048 26.2431 34.3594 26.2961 34.4943 26.3841C34.6291 26.472 34.7399 26.5923 34.8165 26.7338C34.8932 26.8754 34.9333 27.0339 34.9333 27.1949C34.9335 27.3701 34.886 27.542 34.796 27.6923C34.706 27.8426 34.5769 27.9656 34.4224 28.0482L22.9794 34.1784C21.3698 35.0443 19.4874 35.253 17.7273 34.7608L11.2164 32.9522C11.077 32.9134 10.9329 32.8938 10.7881 32.8938H4.00021V33.9604H10.7881C10.8363 33.9605 10.8844 33.967 10.9309 33.9799L17.4418 35.7885C19.4665 36.3544 21.6316 36.1143 23.4831 35.1186L34.9261 28.9885C35.2375 28.8217 35.5001 28.5766 35.688 28.2776C35.876 27.9785 35.9829 27.6356 35.9981 27.2827C36.0134 26.9297 35.9365 26.5789 35.775 26.2647C35.6135 25.9506 35.373 25.6838 35.0772 25.4908H35.0772ZM6.794 15.173C5.97397 14.3558 5.41431 13.3141 5.18563 12.1792C4.95695 11.0443 5.06949 9.86714 5.50906 8.79615C5.94862 7.72516 6.69552 6.80833 7.65554 6.16133C8.61555 5.51433 9.74568 5.16614 10.9034 5.16067C10.9131 5.16061 10.9228 5.16061 10.9326 5.16061C11.976 5.16067 13.0005 5.43895 13.9006 5.96678C14.8006 6.49461 15.5437 7.25288 16.0531 8.16347C16.5626 9.07406 16.82 10.104 16.7989 11.1472C16.7778 12.1904 16.4789 13.2091 15.9331 14.0984C15.8164 14.2874 15.7401 14.4984 15.7088 14.7183C15.6776 14.9382 15.6922 15.1622 15.7516 15.3762L16.1939 16.9475C16.2215 17.0456 16.2205 17.1495 16.1909 17.247C16.1613 17.3444 16.1044 17.4314 16.0269 17.4976C15.9495 17.5637 15.8547 17.6063 15.7538 17.6203C15.6529 17.6343 15.5501 17.6191 15.4575 17.5765L13.6649 16.7512C13.3178 16.5912 12.9248 16.5611 12.5573 16.6663L12.5573 16.6664C11.5509 16.9555 10.4853 16.9695 9.47167 16.7068C8.45802 16.4442 7.53336 15.9145 6.794 15.173L6.794 15.173ZM22.7232 29.9183C22.532 30.003 22.3259 30.0492 22.1167 30.0541C21.9076 30.0591 21.6995 30.0227 21.5045 29.9471L18.0725 28.6271H20.2668C20.7618 28.6271 21.2366 28.4305 21.5867 28.0804C21.9368 27.7303 22.1334 27.2556 22.1334 26.7605C22.1334 26.2654 21.9368 25.7906 21.5867 25.4406C21.2366 25.0905 20.7618 24.8938 20.2668 24.8938H19.4668V21.6938H21.0668V20.6272H19.4668V16.3605H25.8667V28.5351L22.7232 29.9183ZM26.9334 28.0658V15.2939H18.4001V24.8938H13.859C13.2066 24.8926 12.5655 25.0633 12.0002 25.3888V17.8779C12.2877 17.8338 12.5722 17.7715 12.8519 17.6915C12.9737 17.6569 13.1039 17.667 13.2189 17.7201L15.0115 18.5454C15.2226 18.6433 15.4525 18.6942 15.6852 18.6946C15.9319 18.6932 16.175 18.6349 16.3955 18.5242C16.6161 18.4135 16.8081 18.2534 16.9566 18.0564C17.1052 17.8594 17.2063 17.6308 17.2521 17.3883C17.2979 17.1458 17.2872 16.8961 17.2207 16.6585L16.7784 15.0871C16.7587 15.015 16.7542 14.9397 16.765 14.8658C16.7758 14.7919 16.8018 14.721 16.8414 14.6576C17.5128 13.5659 17.8678 12.3091 17.8668 11.0274C17.8674 10.1693 17.7056 9.31896 17.39 8.5211L22.6668 5.25455L33.3334 11.8576V25.2615C33.2702 25.2823 33.2074 25.3052 33.1457 25.3324L26.9334 28.0658Z" stroke="#344054" stroke-width="0.2" mask="url(#path-1-outside-1_1081_8985)"/>
<path d="M14.6271 7.67104L14.5918 7.7064L13.6502 8.64796L13.6502 10.5853L13.6502 10.5854M14.6271 7.67104L13.1316 11.7168C13.2806 11.5686 13.3988 11.3922 13.4792 11.198C13.5597 11.0038 13.6008 10.7956 13.6002 10.5854H13.6502M14.6271 7.67104L14.5918 7.63569L13.8376 6.88139L13.8022 6.84604L13.7669 6.88139L12.871 7.77722M14.6271 7.67104L12.8917 7.82722M13.6502 10.5854C13.6508 10.8022 13.6084 11.0169 13.5254 11.2172C13.4425 11.4174 13.3206 11.5993 13.1669 11.7521L13.6502 10.5854ZM10.8421 7.77722C10.6253 7.77664 10.4106 7.81905 10.2103 7.90201C10.01 7.98497 9.82817 8.10683 9.67528 8.26054C9.67527 8.26055 9.67526 8.26057 9.67524 8.26058L7.00868 10.9271L7.00864 10.9272C6.69968 11.2368 6.52617 11.6564 6.52617 12.0939C6.52617 12.5313 6.69968 12.9509 7.00864 13.2606L7.00868 13.2606L8.16688 14.4188L8.16692 14.4188C8.47659 14.7278 8.89616 14.9013 9.33358 14.9013C9.771 14.9013 10.1906 14.7278 10.5002 14.4188L10.5003 14.4188L13.1668 11.7522L10.8421 7.82722M10.8421 7.77722C10.8422 7.77722 10.8422 7.77722 10.8422 7.77722L10.8421 7.82722M10.8421 7.77722H10.8421V7.82722M10.8421 7.77722H12.871M10.8421 7.82722H12.8917M12.871 7.77722L12.8564 7.79187L12.8917 7.82722M12.871 7.77722H12.8917V7.82722M12.342 10.9271L12.3421 10.927C12.3871 10.8823 12.4228 10.8291 12.447 10.7705C12.4713 10.7118 12.4837 10.649 12.4836 10.5855L12.4836 10.5854V9.81461L11.3689 10.9292L11.3336 10.9646L11.2982 10.9292L10.544 10.1749L10.5086 10.1396L10.544 10.1042L11.7043 8.94388H10.8421H10.8419C10.7785 8.94371 10.7156 8.95613 10.657 8.98042C10.5983 9.00471 10.5451 9.04038 10.5004 9.08539L10.5003 9.08549L7.83366 11.7521L12.342 10.9271ZM12.342 10.9271L9.67538 13.5937M12.342 10.9271L9.67538 13.5937M9.67538 13.5937C9.67536 13.5938 9.67535 13.5938 9.67534 13.5938L9.67538 13.5937ZM7.69231 12.0939C7.69231 12.222 7.74313 12.3449 7.83362 12.4356L7.69231 12.0939ZM7.69231 12.0939C7.69231 11.9657 7.74313 11.8428 7.83362 11.7521L7.69231 12.0939ZM19.4411 9.08239L19.4169 9.09695V9.12526V13.6939V13.7439H19.4669H25.8668H25.9168V13.6939V9.12526V9.09695L25.8925 9.08239L22.6926 7.16241L22.6668 7.14698L22.6411 7.16241L19.4411 9.08239ZM28.4835 23.8271V23.8771H28.5335H31.7335H31.7835V23.8271V15.2938V15.2438H31.7335H28.5335H28.4835V15.2938V23.8271ZM8.99178 13.5937L7.83366 12.4356L8.99178 13.5937ZM20.5835 12.5772V9.75748L22.6668 8.50747L24.7502 9.75748V12.5772H20.5835ZM29.6501 22.7105V20.1438H30.6168V22.7105H29.6501ZM30.6168 16.4105V18.9772H29.6501V16.4105H30.6168Z" fill="#344054" stroke="#344054" stroke-width="0.1"/>
</svg>
