<svg width="65" height="64" viewBox="0 0 65 64" fill="none" xmlns="http://www.w3.org/2000/svg">
<path d="M57.7308 0H7.26925C3.53662 0 0.5 3.35981 0.5 7.48939V38.1276V42.8937C0.5 47.0232 3.53662 50.383 7.26925 50.383H23.6141L21.6449 61.2766H15.2692C14.5895 61.2766 14.0385 61.8862 14.0385 62.6383C14.0385 63.3904 14.5895 64 15.2692 64H49.7308C50.4105 64 50.9615 63.3904 50.9615 62.6383C50.9615 61.8862 50.4105 61.2766 49.7308 61.2766H43.3551L41.3859 50.383H57.7308C61.4633 50.383 64.5 47.0234 64.5 42.8937V38.1276V7.48939C64.5 3.35981 61.4634 0 57.7308 0ZM24.1551 61.2766L26.1244 50.383H38.8756L40.8449 61.2766H24.1551ZM62.0385 42.8937C62.0385 45.5216 60.1061 47.6597 57.7308 47.6597H7.26925C4.894 47.6597 2.9615 45.5217 2.9615 42.8937V39.4895H62.0384V42.8937H62.0385ZM62.0385 36.7661H2.9615V34.0427H10.3461C11.0259 34.0427 11.5769 33.4331 11.5769 32.681C11.5769 31.929 11.0259 31.3194 10.3461 31.3194H2.9615V7.48939C2.9615 4.86145 4.89387 2.72336 7.26925 2.72336H57.7308C60.106 2.72336 62.0385 4.86131 62.0385 7.48939V36.7661Z" fill="#516B7B"/>
<path d="M32.4998 40.8512C31.1426 40.8512 30.0383 42.0729 30.0383 43.5746C30.0383 45.0762 31.1426 46.2979 32.4998 46.2979C33.8571 46.2979 34.9613 45.0762 34.9613 43.5746C34.9613 42.0729 33.8571 40.8512 32.4998 40.8512Z" fill="#516B7B"/>
<path d="M42.5765 26.0787L39.9656 23.1901L42.1413 20.783C42.4577 20.433 42.5775 19.9206 42.4541 19.4447C42.3307 18.969 41.9837 18.6047 41.5477 18.4932L30.234 15.6046C29.8206 15.4993 29.3871 15.6365 29.0868 15.9686C28.7868 16.3006 28.6625 16.7801 28.7578 17.2378L31.369 29.755C31.4696 30.2372 31.7988 30.6213 32.229 30.7578C32.6592 30.8941 33.1221 30.7616 33.4386 30.4117L35.6142 28.0045L38.2251 30.8932C38.4655 31.1591 38.7805 31.292 39.0953 31.292C39.4102 31.292 39.7253 31.1591 39.9656 30.8932L42.5765 28.0045C43.057 27.4728 43.057 26.6106 42.5765 26.0787ZM39.0953 28.0045L36.4845 25.1159C36.2441 24.85 35.9291 24.717 35.6142 24.717C35.2993 24.717 34.9842 24.85 34.744 25.1159L33.2682 26.7488L31.5995 18.7484L38.8306 20.5945L37.3547 22.2273C36.8741 22.759 36.8741 23.6213 37.3547 24.1531L39.9656 27.0417L39.0953 28.0045Z" fill="#F96830"/>
<path d="M27.4337 12.2139L26.2029 10.8522C25.7223 10.3204 24.9429 10.3204 24.4623 10.8522C23.9817 11.3839 23.9817 12.2461 24.4623 12.778L25.6932 14.1397C25.9335 14.4056 26.2485 14.5385 26.5634 14.5385C26.8783 14.5385 27.1934 14.4056 27.4337 14.1397C27.9143 13.608 27.9143 12.7458 27.4337 12.2139Z" fill="#F96830"/>
<path d="M25.0345 15.9004H23.294C22.6143 15.9004 22.0633 16.51 22.0633 17.2621C22.0633 18.0141 22.6143 18.6238 23.294 18.6238H25.0345C25.7143 18.6238 26.2653 18.0141 26.2653 17.2621C26.2653 16.51 25.7143 15.9004 25.0345 15.9004Z" fill="#F96830"/>
<path d="M27.434 20.384C26.9535 19.8523 26.1742 19.8523 25.6935 20.384L24.4627 21.7457C23.9821 22.2775 23.9821 23.1398 24.4627 23.6715C24.7031 23.9375 25.0181 24.0704 25.333 24.0704C25.6478 24.0704 25.963 23.9375 26.2032 23.6715L27.434 22.3098C27.9146 21.7782 27.9146 20.9159 27.434 20.384Z" fill="#F96830"/>
<path d="M36.0496 10.8522C35.569 10.3204 34.7897 10.3204 34.309 10.8522L33.0782 12.2139C32.5976 12.7456 32.5976 13.6079 33.0782 14.1397C33.3186 14.4056 33.6336 14.5385 33.9486 14.5385C34.2636 14.5385 34.5786 14.4056 34.8189 14.1397L36.0496 12.778C36.5302 12.2464 36.5302 11.3841 36.0496 10.8522Z" fill="#F96830"/>
<path d="M30.2564 8.19739C29.5766 8.19739 29.0256 8.80701 29.0256 9.55907V11.4847C29.0256 12.2368 29.5766 12.8464 30.2564 12.8464C30.9361 12.8464 31.4871 12.2368 31.4871 11.4847V9.55907C31.4871 8.80701 30.9361 8.19739 30.2564 8.19739Z" fill="#F96830"/>
<path d="M15.2446 32.4154C15.2298 32.3283 15.2052 32.2425 15.1744 32.1594C15.1437 32.0777 15.1056 31.9987 15.0612 31.9252C15.0169 31.8502 14.9652 31.7808 14.9086 31.7181C14.8519 31.6555 14.7892 31.5984 14.7214 31.5493C14.6549 31.5003 14.5836 31.458 14.5086 31.424C14.4347 31.3899 14.3572 31.3627 14.2784 31.3464C14.1197 31.311 13.9572 31.311 13.7984 31.3464C13.7197 31.3627 13.6422 31.3899 13.5683 31.424C13.4932 31.458 13.4218 31.5002 13.3554 31.5493C13.2877 31.5982 13.2249 31.6555 13.1683 31.7181C13.1117 31.7808 13.0601 31.8502 13.0157 31.9252C12.9714 31.9987 12.9332 32.0777 12.9024 32.1594C12.8717 32.2425 12.8471 32.3283 12.8323 32.4154C12.8163 32.5025 12.8077 32.5924 12.8077 32.681C12.8077 32.7695 12.8163 32.8594 12.8323 32.9465C12.8471 33.0336 12.8717 33.1194 12.9024 33.2011C12.9332 33.2842 12.9713 33.3632 13.0157 33.4366C13.0599 33.5116 13.1117 33.581 13.1683 33.6436C13.2249 33.7063 13.2877 33.7634 13.3554 33.8125C13.4219 33.8615 13.4933 33.9038 13.5683 33.9378C13.6422 33.9718 13.7197 33.9991 13.7984 34.0168C13.8772 34.0345 13.9584 34.0426 14.0384 34.0426C14.1184 34.0426 14.1997 34.0345 14.2784 34.0168C14.3572 33.9991 14.4347 33.9718 14.5086 33.9378C14.5837 33.9038 14.6551 33.8616 14.7214 33.8125C14.7892 33.7635 14.8519 33.7063 14.9086 33.6436C14.9652 33.581 15.0168 33.5116 15.0612 33.4366C15.1054 33.363 15.1437 33.2841 15.1744 33.2011C15.2052 33.1194 15.2298 33.0336 15.2446 32.9465C15.2606 32.8594 15.2692 32.7695 15.2692 32.681C15.2692 32.5924 15.2606 32.5025 15.2446 32.4154Z" fill="#516B7B"/>
</svg>
