<svg width="48" height="48" viewBox="0 0 48 48" fill="none" xmlns="http://www.w3.org/2000/svg">
<path d="M43.1348 14.4209C42.8184 11.5535 41.4037 8.98089 39.1528 7.17629C36.9005 5.37169 34.0698 4.5444 31.2174 4.86916C27.942 5.23113 25.0491 7.03453 23.282 9.81793C22.9287 10.3745 23.0937 11.1163 23.6488 11.4718C24.2066 11.8314 24.9493 11.6627 25.3048 11.1026C26.6804 8.93724 28.9313 7.53466 31.4777 7.25339C33.715 7.00258 35.9007 7.64484 37.6528 9.04749C39.4034 10.4516 40.5029 12.4519 40.7489 14.6818C41.2131 18.885 38.4651 22.7897 34.3586 23.7723C33.714 23.9258 33.3153 24.5726 33.469 25.2169C33.6003 25.7688 34.0925 26.1394 34.6353 26.1394C34.7279 26.1394 34.8217 26.1289 34.9143 26.1066C40.1346 24.8465 43.7348 19.8212 43.1348 14.4209ZM28.734 14.3984H7.20187C6.52683 14.3984 5.8803 14.6892 5.42052 15.186C4.9705 15.6923 4.74564 16.3583 4.81127 17.0326L7.21064 40.9664C7.33313 42.2625 8.36443 43.2 9.602 43.2H26.3354C27.573 43.2 28.6043 42.2625 28.7258 41.0346L31.1259 17.1008C31.1915 16.4259 30.9666 15.7605 30.5166 15.2542C30.1216 14.691 29.4091 14.3984 28.734 14.3984ZM26.4014 40.7999H9.6005L8.15892 26.3991H27.8475L26.4014 40.7999ZM28.0815 23.999H7.92416L7.20262 16.7986H28.8038L28.0815 23.999Z" fill="white"/>
</svg>
