<svg width="20" height="21" viewBox="0 0 20 21" fill="none" xmlns="http://www.w3.org/2000/svg">
<path d="M16.8156 2.5625H3.18125C2.52812 2.5625 2 3.07813 2 3.71563V17.4062C2 18.0438 2.52812 18.5625 3.18125 18.5625H16.8156C17.4688 18.5625 18 18.0438 18 17.4094V3.71563C18 3.07813 17.4688 2.5625 16.8156 2.5625ZM6.74687 16.1969H4.37188V8.55937H6.74687V16.1969ZM5.55938 7.51875C4.79688 7.51875 4.18125 6.90312 4.18125 6.14375C4.18125 5.38438 4.79688 4.76875 5.55938 4.76875C6.31875 4.76875 6.93437 5.38438 6.93437 6.14375C6.93437 6.9 6.31875 7.51875 5.55938 7.51875ZM15.6344 16.1969H13.2625V12.4844C13.2625 11.6 13.2469 10.4594 12.0281 10.4594C10.7937 10.4594 10.6062 11.425 10.6062 12.4219V16.1969H8.2375V8.55937H10.5125V9.60313H10.5437C10.8594 9.00313 11.6344 8.36875 12.7875 8.36875C15.1906 8.36875 15.6344 9.95 15.6344 12.0063V16.1969Z" fill="currentColor"/>
</svg>
