<svg width="65" height="64" viewBox="0 0 65 64" fill="none" xmlns="http://www.w3.org/2000/svg">
<g clip-path="url(#clip0_303_1776)">
<path d="M23.1053 34.6667C22.5719 34.6667 22.0599 34.4533 21.6839 34.0747L14.4119 26.7413C13.6333 25.9573 13.6386 24.6907 14.4226 23.912C15.2093 23.136 16.4733 23.1413 17.2546 23.9253L23.0093 29.728L34.3239 16.688C35.0466 15.8533 36.3106 15.7627 37.1453 16.488C37.9799 17.2107 38.0679 18.4747 37.3453 19.3093L24.6173 33.976C24.2519 34.3973 23.7266 34.648 23.1719 34.6667C23.1506 34.6667 23.1266 34.6667 23.1053 34.6667Z" fill="#F96830"/>
<path d="M25.8333 50.6667C11.8653 50.6667 0.5 39.3013 0.5 25.3333C0.5 11.3653 11.8653 0 25.8333 0C39.8013 0 51.1667 11.3653 51.1667 25.3333C51.1667 39.3013 39.8013 50.6667 25.8333 50.6667ZM25.8333 4C14.0707 4 4.5 13.5707 4.5 25.3333C4.5 37.096 14.0707 46.6667 25.8333 46.6667C37.596 46.6667 47.1667 37.096 47.1667 25.3333C47.1667 13.5707 37.596 4 25.8333 4Z" fill="#516B7B"/>
<path d="M62.4999 64C61.9879 64 61.4759 63.8053 61.0866 63.4133L41.5933 43.92C40.8119 43.1386 40.8119 41.872 41.5933 41.0906C42.3746 40.3093 43.6413 40.3093 44.4226 41.0906L63.9159 60.584C64.6973 61.3653 64.6973 62.632 63.9159 63.4133C63.5239 63.8053 63.0119 64 62.4999 64Z" fill="#516B7B"/>
</g>
<defs>
<clipPath id="clip0_303_1776">
<rect width="64" height="64" fill="white" transform="translate(0.5)"/>
</clipPath>
</defs>
</svg>
