<svg width="10" height="10" viewBox="0 0 10 10" fill="none" xmlns="http://www.w3.org/2000/svg">
<path d="M6.19995 2.00001H3.79995L2.9112 0.666512C2.77808 0.467012 2.92058 0.200012 3.16058 0.200012H6.83933C7.07933 0.200012 7.22183 0.467012 7.0887 0.666512L6.19995 2.00001ZM3.79995 2.60001H6.19995C6.2712 2.64689 6.35183 2.69939 6.42683 2.75751C7.50683 3.43814 9.79995 4.90439 9.79995 8.00001C9.79995 8.99376 8.9937 9.80001 7.99995 9.80001H1.99995C1.00583 9.80001 0.199951 8.99376 0.199951 8.00001C0.199951 4.90439 2.49308 3.43814 3.5562 2.75751C3.64808 2.69939 3.7287 2.64689 3.79995 2.60001ZM5.37683 4.40001C5.37683 4.19189 5.20808 4.02314 4.98308 4.02314C4.79183 4.02314 4.62308 4.19189 4.62308 4.40001V4.51251C4.51808 4.53501 4.40183 4.56689 4.32495 4.60814C4.04558 4.73564 3.80183 4.97189 3.74183 5.31501C3.70808 5.50626 3.72683 5.69189 3.80558 5.85876C3.88433 6.02376 4.0062 6.14001 4.12995 6.22439C4.34745 6.37251 4.63433 6.45876 4.8537 6.52439L4.89495 6.53564C5.15745 6.61626 5.3337 6.67439 5.44433 6.75501C5.4912 6.78876 5.50808 6.81501 5.5137 6.83189C5.5212 6.84689 5.53245 6.88064 5.51933 6.95564C5.50808 7.02126 5.47245 7.07751 5.36933 7.12064C5.25495 7.16939 5.06933 7.19376 4.82933 7.15626C4.71683 7.13751 4.5162 7.07001 4.33808 7.01001C4.29683 6.99501 4.25558 6.98189 4.21808 6.96876C4.0212 6.90314 3.80933 7.01001 3.7437 7.20689C3.67808 7.40376 3.78495 7.61564 3.98183 7.66439C4.00433 7.68876 4.03245 7.69814 4.06433 7.70939C4.19558 7.76001 4.44495 7.83876 4.62308 7.88001V8.00001C4.62308 8.20814 4.79183 8.37689 4.98308 8.37689C5.20808 8.37689 5.37683 8.20814 5.37683 8.00001V7.89689C5.4762 7.87814 5.5737 7.83314 5.6637 7.81064C5.95995 7.68501 6.1962 7.44126 6.25808 7.08501C6.29183 6.89001 6.27683 6.70251 6.20183 6.53189C6.1287 6.36314 6.01058 6.23939 5.88495 6.14939C5.65808 5.98251 5.35433 5.89251 5.12745 5.82314L5.09558 5.81939C4.8462 5.73876 4.6662 5.68251 4.55183 5.60376C4.50308 5.57001 4.48808 5.54751 4.48433 5.53814C4.48058 5.53064 4.46933 5.50814 4.48058 5.44439C4.48808 5.40689 4.5162 5.34501 4.63433 5.29251C4.73933 5.23814 4.94183 5.20814 5.17058 5.22689C5.25308 5.25689 5.5062 5.30564 5.57933 5.32439C5.77808 5.37876 5.98433 5.25876 6.03683 5.05814C6.0912 4.85939 5.9712 4.65314 5.77058 4.60064C5.68808 4.57814 5.50058 4.54064 5.37683 4.51814V4.40001Z" fill="white"/>
</svg>