<svg width="65" height="64" viewBox="0 0 65 64" fill="none" xmlns="http://www.w3.org/2000/svg">
<path d="M19.1258 22.4586H28.8757V23.455H20.0196V30.9544H28.3476V31.9508H20.0196V40.1844H28.9773V41.1808H19.1258V22.4586ZM29.7492 22.4586H30.7851L35.3757 30.6922L40.0678 22.4586L46.4499 12L35.9648 31.5575L41.3678 41.1808H40.2913L35.3757 32.4228L30.4398 41.1808H29.3836L34.8273 31.5575L29.7492 22.4586ZM41.7538 23.455V22.4586H52.8646V23.455H47.7459V41.1808H46.8522V23.455H41.7538Z" fill="#253138"/>
<path d="M6.92853 22.4595H8.04571L23.4509 52.1006L17.0847 41.1817L7.8629 23.8754L7.82227 41.1817H6.92853V22.4595Z" fill="#253138"/>
<path d="M52.7749 39.8843C52.9597 39.8843 53.0945 39.7024 53.0945 39.4673C53.0945 39.2322 52.9597 39.0503 52.7749 39.0503C52.5923 39.0503 52.4554 39.2322 52.4554 39.4673C52.4554 39.7024 52.5923 39.8843 52.7749 39.8843ZM53.6531 38.7872C53.6531 39.4813 54.0422 39.9347 54.6096 39.9347C55.2139 39.9347 55.5791 39.4673 55.5791 38.6556V35.7982H55.0922V38.6528C55.0922 39.1034 54.9161 39.3441 54.6053 39.3441C54.327 39.3441 54.1379 39.1202 54.1314 38.7872H53.6531ZM56.216 38.7508C56.2508 39.4729 56.7182 39.9347 57.4138 39.9347C58.1572 39.9347 58.6224 39.4505 58.6224 38.678C58.6224 38.0707 58.3572 37.7349 57.7138 37.5418L57.3681 37.4326C56.9595 37.3095 56.7943 37.1443 56.7943 36.8561C56.7943 36.4922 57.0508 36.2543 57.4355 36.2543C57.8007 36.2543 58.0529 36.4866 58.0985 36.8589H58.5724C58.5442 36.1788 58.079 35.7002 57.4421 35.7002C56.7573 35.7002 56.3008 36.1788 56.3008 36.898C56.3008 37.4914 56.5595 37.844 57.1269 38.0147L57.5312 38.1407C57.9464 38.2666 58.129 38.4513 58.129 38.7592C58.129 39.1174 57.842 39.3777 57.4507 39.3777C57.0312 39.3777 56.7399 39.1342 56.6986 38.7508H56.216Z" fill="#253138"/>
</svg>
