<svg width="13" height="14" viewBox="0 0 13 14" fill="none" xmlns="http://www.w3.org/2000/svg">
<path d="M12.8901 1.52131L11.2901 11.899C11.2526 12.1423 11.1057 12.3545 10.8909 12.4752C10.7698 12.5432 10.6341 12.5776 10.4989 12.5776C10.3942 12.5776 10.2909 12.5573 10.1916 12.5158L7.12656 11.2383L5.85504 13.1456C5.75754 13.3125 5.59504 13.4 5.42004 13.4C5.13253 13.4 4.90003 13.1675 4.90003 12.88V10.4754C4.90003 10.2976 4.95933 10.1247 5.06858 9.98443L10.5001 2.99983L3.15751 9.60742L0.592224 8.53741C0.31092 8.41991 0.12028 8.1549 0.10153 7.8274C0.0827795 7.49989 0.238257 7.23439 0.503035 7.08314L11.7032 0.705553C11.9704 0.552826 12.3002 0.566876 12.5532 0.740703C12.8062 0.914531 12.9376 1.21781 12.8901 1.52131Z" fill="currentColor"/>
</svg>
