<svg width="65" height="64" viewBox="0 0 65 64" fill="none" xmlns="http://www.w3.org/2000/svg">
<path d="M59.7 64H5.3C2.6536 64 0.5 61.8464 0.5 59.2V4.8C0.5 2.1536 2.6536 0 5.3 0H59.7C62.3464 0 64.5 2.1536 64.5 4.8V59.2C64.5 61.8464 62.3464 64 59.7 64ZM5.3 2.13333C3.83013 2.13333 2.63333 3.32907 2.63333 4.8V59.2C2.63333 60.6709 3.83013 61.8667 5.3 61.8667H59.7C61.1709 61.8667 62.3667 60.6709 62.3667 59.2V4.8C62.3667 3.32907 61.1699 2.13333 59.7 2.13333H5.3Z" fill="#253138"/>
<path d="M10.1 10.6661H5.83333C5.24453 10.6661 4.76666 10.1893 4.76666 9.59945V5.33278C4.76666 4.74291 5.24453 4.26611 5.83333 4.26611H10.1C10.6888 4.26611 11.1667 4.74291 11.1667 5.33278V9.59945C11.1667 10.1893 10.6888 10.6661 10.1 10.6661ZM6.9 8.53278H9.03333V6.39945H6.9V8.53278Z" fill="#253138"/>
<path d="M18.6334 10.6661H14.3667C13.7779 10.6661 13.3 10.1893 13.3 9.59945V5.33278C13.3 4.74291 13.7779 4.26611 14.3667 4.26611H18.6334C19.2222 4.26611 19.7 4.74291 19.7 5.33278V9.59945C19.7 10.1893 19.2222 10.6661 18.6334 10.6661ZM15.4334 8.53278H17.5667V6.39945H15.4334V8.53278Z" fill="#253138"/>
<path d="M27.1666 10.6661H22.9C22.3112 10.6661 21.8333 10.1893 21.8333 9.59945V5.33278C21.8333 4.74291 22.3112 4.26611 22.9 4.26611H27.1666C27.7554 4.26611 28.2333 4.74291 28.2333 5.33278V9.59945C28.2333 10.1893 27.7554 10.6661 27.1666 10.6661ZM23.9666 8.53278H26.1V6.39945H23.9666V8.53278Z" fill="#253138"/>
<path d="M63.4333 14.9333H1.56667C0.977867 14.9333 0.5 14.4565 0.5 13.8667V4.8C0.5 2.1536 2.6536 0 5.3 0H59.7C62.3464 0 64.5 2.1536 64.5 4.8V13.8667C64.5 14.4565 64.0221 14.9333 63.4333 14.9333ZM2.63333 12.8H62.3667V4.8C62.3667 3.32907 61.1699 2.13333 59.7 2.13333H5.3C3.83013 2.13333 2.63333 3.32907 2.63333 4.8V12.8Z" fill="#253138"/>
<path d="M57.0332 39.4671H7.96654C7.37774 39.4671 6.89987 38.9903 6.89987 38.4004V19.2005C6.89987 18.6106 7.37774 18.1338 7.96654 18.1338H57.0332C57.622 18.1338 58.0999 18.6106 58.0999 19.2005V38.4004C58.0999 38.9903 57.622 39.4671 57.0332 39.4671ZM9.0332 37.3338H55.9665V20.2671H9.0332V37.3338Z" fill="#253138"/>
<path d="M29.3 34.1332C29.1155 34.1332 28.9299 34.0852 28.7645 33.9892C28.436 33.7982 28.2333 33.4462 28.2333 33.0665V24.5332C28.2333 24.1534 28.436 23.8014 28.7645 23.6105C29.0941 23.4206 29.4984 23.4196 29.8291 23.6073L37.2957 27.874C37.6285 28.0638 37.8333 28.418 37.8333 28.7998C37.8333 29.1817 37.6285 29.5358 37.2957 29.7257L29.8291 33.9924C29.6648 34.0862 29.4824 34.1332 29.3 34.1332ZM30.3667 26.3721V31.2286L34.6163 28.7998L30.3667 26.3721Z" fill="#F96830"/>
<path d="M15.4333 33.0668C15.1603 33.0668 14.8872 32.9623 14.6792 32.7543L11.4792 29.5543C11.0621 29.1372 11.0621 28.4631 11.4792 28.046L14.6792 24.846C15.0952 24.4289 15.7715 24.4289 16.1875 24.846C16.6045 25.2631 16.6045 25.9372 16.1875 26.3543L13.7416 28.8001L16.1875 31.246C16.6045 31.6631 16.6045 32.3372 16.1875 32.7543C15.9795 32.9623 15.7064 33.0668 15.4333 33.0668Z" fill="#F96830"/>
<path d="M49.5666 33.0668C49.2936 33.0668 49.0205 32.9623 48.8125 32.7543C48.3954 32.3372 48.3954 31.6631 48.8125 31.246L51.2584 28.8001L48.8125 26.3543C48.3954 25.9372 48.3954 25.2631 48.8125 24.846C49.2285 24.4289 49.9048 24.4289 50.3208 24.846L53.5208 28.046C53.9378 28.4631 53.9378 29.1372 53.5208 29.5543L50.3208 32.7543C50.1128 32.9623 49.8397 33.0668 49.5666 33.0668Z" fill="#F96830"/>
<path d="M16.4999 49.067H7.96654C7.37774 49.067 6.89987 48.5902 6.89987 48.0003V43.7337C6.89987 43.1438 7.37774 42.667 7.96654 42.667H16.4999C17.0887 42.667 17.5665 43.1438 17.5665 43.7337V48.0003C17.5665 48.5902 17.0887 49.067 16.4999 49.067ZM9.0332 46.9337H15.4332V44.8003H9.0332V46.9337Z" fill="#253138"/>
<path d="M16.4999 58.6661H7.96654C7.37774 58.6661 6.89987 58.1893 6.89987 57.5994V53.3328C6.89987 52.7429 7.37774 52.2661 7.96654 52.2661H16.4999C17.0887 52.2661 17.5665 52.7429 17.5665 53.3328V57.5994C17.5665 58.1893 17.0887 58.6661 16.4999 58.6661ZM9.0332 56.5328H15.4332V54.3994H9.0332V56.5328Z" fill="#253138"/>
<path d="M57.0333 49.067H48.5C47.9112 49.067 47.4333 48.5902 47.4333 48.0003V43.7337C47.4333 43.1438 47.9112 42.667 48.5 42.667H57.0333C57.6221 42.667 58.1 43.1438 58.1 43.7337V48.0003C58.1 48.5902 57.6221 49.067 57.0333 49.067ZM49.5667 46.9337H55.9667V44.8003H49.5667V46.9337Z" fill="#253138"/>
<path d="M57.0333 58.6661H48.5C47.9112 58.6661 47.4333 58.1893 47.4333 57.5994V53.3328C47.4333 52.7429 47.9112 52.2661 48.5 52.2661H57.0333C57.6221 52.2661 58.1 52.7429 58.1 53.3328V57.5994C58.1 58.1893 57.6221 58.6661 57.0333 58.6661ZM49.5667 56.5328H55.9667V54.3994H49.5667V56.5328Z" fill="#253138"/>
<path d="M43.1666 49.067H34.6333C34.0445 49.067 33.5667 48.5902 33.5667 48.0003V43.7337C33.5667 43.1438 34.0445 42.667 34.6333 42.667H43.1666C43.7554 42.667 44.2333 43.1438 44.2333 43.7337V48.0003C44.2333 48.5902 43.7554 49.067 43.1666 49.067ZM35.7 46.9337H42.1V44.8003H35.7V46.9337Z" fill="#253138"/>
<path d="M43.1666 58.6661H34.6333C34.0445 58.6661 33.5667 58.1893 33.5667 57.5994V53.3328C33.5667 52.7429 34.0445 52.2661 34.6333 52.2661H43.1666C43.7554 52.2661 44.2333 52.7429 44.2333 53.3328V57.5994C44.2333 58.1893 43.7554 58.6661 43.1666 58.6661ZM35.7 56.5328H42.1V54.3994H35.7V56.5328Z" fill="#253138"/>
<path d="M30.3667 49.067H21.8333C21.2445 49.067 20.7667 48.5902 20.7667 48.0003V43.7337C20.7667 43.1438 21.2445 42.667 21.8333 42.667H30.3667C30.9555 42.667 31.4333 43.1438 31.4333 43.7337V48.0003C31.4333 48.5902 30.9555 49.067 30.3667 49.067ZM22.9 46.9337H29.3V44.8003H22.9V46.9337Z" fill="#253138"/>
<path d="M30.3667 58.6661H21.8333C21.2445 58.6661 20.7667 58.1893 20.7667 57.5994V53.3328C20.7667 52.7429 21.2445 52.2661 21.8333 52.2661H30.3667C30.9555 52.2661 31.4333 52.7429 31.4333 53.3328V57.5994C31.4333 58.1893 30.9555 58.6661 30.3667 58.6661ZM22.9 56.5328H29.3V54.3994H22.9V56.5328Z" fill="#253138"/>
</svg>
