<svg width="34" height="34" viewBox="0 0 34 34" fill="none" xmlns="http://www.w3.org/2000/svg">
<mask id="path-1-outside-1_1091_9320" maskUnits="userSpaceOnUse" x="0" y="0" width="34" height="34" fill="black">
<rect fill="white" width="34" height="34"/>
<path d="M31.5018 14.999C31.8996 14.999 32.2812 14.8409 32.5625 14.5596C32.8438 14.2783 33.0019 13.8967 33.0019 13.4989V12.4988C33.0019 12.101 32.8438 11.7194 32.5625 11.4381C32.2812 11.1568 31.8996 10.9987 31.5018 10.9987H30.6667L17.3009 1.09814C17.2149 1.0344 17.1106 1 17.0034 1C16.8963 1 16.792 1.0344 16.7059 1.09814L3.33514 10.9987H2.50009C2.10224 10.9987 1.72069 11.1568 1.43937 11.4381C1.15804 11.7194 1 12.101 1 12.4988L1 13.4989C1 13.8967 1.15804 14.2783 1.43937 14.5596C1.72069 14.8409 2.10224 14.999 2.50009 14.999H3.00012V27.4997C3.00012 27.6323 3.0528 27.7595 3.14657 27.8533C3.24035 27.947 3.36753 27.9997 3.50015 27.9997C3.63276 27.9997 3.75995 27.947 3.85372 27.8533C3.94749 27.7595 4.00017 27.6323 4.00017 27.4997V14.999H24.5014C24.634 14.999 24.7612 14.9463 24.8549 14.8525C24.9487 14.7587 25.0014 14.6315 25.0014 14.4989C25.0014 14.3663 24.9487 14.2391 24.8549 14.1453C24.7612 14.0516 24.634 13.9989 24.5014 13.9989H2.50009C2.36747 13.9989 2.24029 13.9462 2.14651 13.8524C2.05274 13.7587 2.00006 13.6315 2.00006 13.4989V12.4988C2.00006 12.3662 2.05274 12.239 2.14651 12.1452C2.24029 12.0515 2.36747 11.9988 2.50009 11.9988H31.5018C31.6344 11.9988 31.7616 12.0515 31.8554 12.1452C31.9491 12.239 32.0018 12.3662 32.0018 12.4988V13.4989C32.0018 13.6315 31.9491 13.7587 31.8554 13.8524C31.7616 13.9462 31.6344 13.9989 31.5018 13.9989H26.5015C26.3689 13.9989 26.2417 14.0516 26.1479 14.1453C26.0541 14.2391 26.0015 14.3663 26.0015 14.4989C26.0015 14.6315 26.0541 14.7587 26.1479 14.8525C26.2417 14.9463 26.3689 14.999 26.5015 14.999H30.0017V17.9991H26.0015V17.4991C26.0015 17.1012 25.8434 16.7197 25.5621 16.4384C25.2808 16.1571 24.8992 15.999 24.5014 15.999C24.1035 15.999 23.722 16.1571 23.4406 16.4384C23.1593 16.7197 23.0013 17.1012 23.0013 17.4991V17.9991H17.501C17.1918 18.0004 16.8906 18.0972 16.6386 18.2762C16.3865 18.4552 16.1959 18.7077 16.0929 18.9992H14.5008C14.1029 18.9992 13.7214 19.1572 13.4401 19.4385C13.1587 19.7199 13.0007 20.1014 13.0007 20.4993V31.9999H9.72251C9.90248 31.6972 9.99845 31.352 10.0005 30.9999C10.0005 30.4694 9.7898 29.9607 9.4147 29.5856C9.03961 29.2105 8.53087 28.9998 8.00041 28.9998C7.84415 28.9997 7.68848 29.0189 7.53688 29.0568C7.30701 28.7302 7.00199 28.4637 6.64754 28.2798C6.29309 28.0958 5.8996 27.9998 5.50026 27.9998C5.10092 27.9998 4.70744 28.0958 4.35299 28.2798C3.99854 28.4637 3.69352 28.7302 3.46364 29.0568C3.31205 29.0189 3.15638 28.9997 3.00012 28.9998C2.46965 28.9998 1.96092 29.2105 1.58582 29.5856C1.21073 29.9607 1 30.4694 1 30.9999C1 31.5303 1.21073 32.0391 1.58582 32.4142C1.96092 32.7893 2.46965 33 3.00012 33H30.5017C30.6343 33 30.7615 32.9473 30.8553 32.8535C30.9491 32.7598 31.0017 32.6326 31.0017 32.5V24.9995H31.5018C31.8996 24.9995 32.2812 24.8415 32.5625 24.5602C32.8438 24.2788 33.0019 23.8973 33.0019 23.4994V19.4992C33.0019 19.1014 32.8438 18.7198 32.5625 18.4385C32.2812 18.1572 31.8996 17.9991 31.5018 17.9991H31.0017V14.999H31.5018ZM5.01523 10.9987L17.0009 2.1207L28.9866 10.9987H5.01523ZM24.0013 17.4991C24.0013 17.3665 24.054 17.2393 24.1478 17.1455C24.2416 17.0517 24.3688 16.9991 24.5014 16.9991C24.634 16.9991 24.7612 17.0517 24.8549 17.1455C24.9487 17.2393 25.0014 17.3665 25.0014 17.4991V17.9991H24.0013V17.4991ZM3.00012 31.9999C2.73488 31.9999 2.48052 31.8946 2.29297 31.707C2.10542 31.5195 2.00006 31.2651 2.00006 30.9999C2.00006 30.7346 2.10542 30.4803 2.29297 30.2927C2.48052 30.1052 2.73488 29.9998 3.00012 29.9998C3.15881 30.0014 3.31476 30.0414 3.45464 30.1163C3.51478 30.1474 3.58059 30.1659 3.64808 30.1707C3.71557 30.1755 3.78335 30.1666 3.8473 30.1445C3.91126 30.1224 3.97006 30.0876 4.02014 30.0421C4.07023 29.9966 4.11055 29.9414 4.13868 29.8798C4.25672 29.6175 4.44801 29.3949 4.68956 29.2387C4.9311 29.0825 5.21262 28.9994 5.50026 28.9994C5.7879 28.9994 6.06942 29.0825 6.31097 29.2387C6.55251 29.3949 6.7438 29.6175 6.86184 29.8798C6.88997 29.9414 6.9303 29.9966 6.98038 30.0421C7.03047 30.0876 7.08927 30.1224 7.15322 30.1445C7.21717 30.1666 7.28495 30.1755 7.35244 30.1707C7.41994 30.1659 7.48575 30.1474 7.54588 30.1163C7.6802 30.0469 7.82856 30.0088 7.97974 30.0051C8.13091 30.0014 8.28096 30.0321 8.41852 30.095C8.55608 30.1578 8.67756 30.251 8.77377 30.3677C8.86999 30.4844 8.93842 30.6214 8.97389 30.7684C9.00936 30.9154 9.01095 31.0685 8.97853 31.2162C8.94611 31.364 8.88053 31.5024 8.78676 31.621C8.69298 31.7396 8.57346 31.8354 8.43723 31.901C8.301 31.9667 8.15163 32.0005 8.00041 31.9999H3.00012ZM14.0008 31.9999V20.4993C14.0008 20.3667 14.0534 20.2395 14.1472 20.1457C14.241 20.0519 14.3682 19.9992 14.5008 19.9992H16.0009V23.4994C16.0009 23.8973 16.1589 24.2788 16.4402 24.5602C16.7216 24.8415 17.1031 24.9995 17.501 24.9995H23.0013V31.9999H21.0012V26.4996C21.0012 26.367 20.9485 26.2398 20.8547 26.146C20.7609 26.0523 20.6338 25.9996 20.5011 25.9996C20.3685 25.9996 20.2413 26.0523 20.1476 26.146C20.0538 26.2398 20.0011 26.367 20.0011 26.4996V31.9999H14.0008ZM24.0013 31.9999V24.9995H25.0014V31.9999H24.0013ZM30.0017 31.9999H26.0015V24.9995H30.0017V31.9999ZM32.0018 19.4992V23.4994C32.0018 23.6321 31.9491 23.7592 31.8554 23.853C31.7616 23.9468 31.6344 23.9995 31.5018 23.9995H17.501C17.3683 23.9995 17.2412 23.9468 17.1474 23.853C17.0536 23.7592 17.0009 23.6321 17.0009 23.4994V19.4992C17.0009 19.3666 17.0536 19.2394 17.1474 19.1456C17.2412 19.0519 17.3683 18.9992 17.501 18.9992H31.5018C31.6344 18.9992 31.7616 19.0519 31.8554 19.1456C31.9491 19.2394 32.0018 19.3666 32.0018 19.4992Z"/>
</mask>
<path d="M31.5018 14.999C31.8996 14.999 32.2812 14.8409 32.5625 14.5596C32.8438 14.2783 33.0019 13.8967 33.0019 13.4989V12.4988C33.0019 12.101 32.8438 11.7194 32.5625 11.4381C32.2812 11.1568 31.8996 10.9987 31.5018 10.9987H30.6667L17.3009 1.09814C17.2149 1.0344 17.1106 1 17.0034 1C16.8963 1 16.792 1.0344 16.7059 1.09814L3.33514 10.9987H2.50009C2.10224 10.9987 1.72069 11.1568 1.43937 11.4381C1.15804 11.7194 1 12.101 1 12.4988L1 13.4989C1 13.8967 1.15804 14.2783 1.43937 14.5596C1.72069 14.8409 2.10224 14.999 2.50009 14.999H3.00012V27.4997C3.00012 27.6323 3.0528 27.7595 3.14657 27.8533C3.24035 27.947 3.36753 27.9997 3.50015 27.9997C3.63276 27.9997 3.75995 27.947 3.85372 27.8533C3.94749 27.7595 4.00017 27.6323 4.00017 27.4997V14.999H24.5014C24.634 14.999 24.7612 14.9463 24.8549 14.8525C24.9487 14.7587 25.0014 14.6315 25.0014 14.4989C25.0014 14.3663 24.9487 14.2391 24.8549 14.1453C24.7612 14.0516 24.634 13.9989 24.5014 13.9989H2.50009C2.36747 13.9989 2.24029 13.9462 2.14651 13.8524C2.05274 13.7587 2.00006 13.6315 2.00006 13.4989V12.4988C2.00006 12.3662 2.05274 12.239 2.14651 12.1452C2.24029 12.0515 2.36747 11.9988 2.50009 11.9988H31.5018C31.6344 11.9988 31.7616 12.0515 31.8554 12.1452C31.9491 12.239 32.0018 12.3662 32.0018 12.4988V13.4989C32.0018 13.6315 31.9491 13.7587 31.8554 13.8524C31.7616 13.9462 31.6344 13.9989 31.5018 13.9989H26.5015C26.3689 13.9989 26.2417 14.0516 26.1479 14.1453C26.0541 14.2391 26.0015 14.3663 26.0015 14.4989C26.0015 14.6315 26.0541 14.7587 26.1479 14.8525C26.2417 14.9463 26.3689 14.999 26.5015 14.999H30.0017V17.9991H26.0015V17.4991C26.0015 17.1012 25.8434 16.7197 25.5621 16.4384C25.2808 16.1571 24.8992 15.999 24.5014 15.999C24.1035 15.999 23.722 16.1571 23.4406 16.4384C23.1593 16.7197 23.0013 17.1012 23.0013 17.4991V17.9991H17.501C17.1918 18.0004 16.8906 18.0972 16.6386 18.2762C16.3865 18.4552 16.1959 18.7077 16.0929 18.9992H14.5008C14.1029 18.9992 13.7214 19.1572 13.4401 19.4385C13.1587 19.7199 13.0007 20.1014 13.0007 20.4993V31.9999H9.72251C9.90248 31.6972 9.99845 31.352 10.0005 30.9999C10.0005 30.4694 9.7898 29.9607 9.4147 29.5856C9.03961 29.2105 8.53087 28.9998 8.00041 28.9998C7.84415 28.9997 7.68848 29.0189 7.53688 29.0568C7.30701 28.7302 7.00199 28.4637 6.64754 28.2798C6.29309 28.0958 5.8996 27.9998 5.50026 27.9998C5.10092 27.9998 4.70744 28.0958 4.35299 28.2798C3.99854 28.4637 3.69352 28.7302 3.46364 29.0568C3.31205 29.0189 3.15638 28.9997 3.00012 28.9998C2.46965 28.9998 1.96092 29.2105 1.58582 29.5856C1.21073 29.9607 1 30.4694 1 30.9999C1 31.5303 1.21073 32.0391 1.58582 32.4142C1.96092 32.7893 2.46965 33 3.00012 33H30.5017C30.6343 33 30.7615 32.9473 30.8553 32.8535C30.9491 32.7598 31.0017 32.6326 31.0017 32.5V24.9995H31.5018C31.8996 24.9995 32.2812 24.8415 32.5625 24.5602C32.8438 24.2788 33.0019 23.8973 33.0019 23.4994V19.4992C33.0019 19.1014 32.8438 18.7198 32.5625 18.4385C32.2812 18.1572 31.8996 17.9991 31.5018 17.9991H31.0017V14.999H31.5018ZM5.01523 10.9987L17.0009 2.1207L28.9866 10.9987H5.01523ZM24.0013 17.4991C24.0013 17.3665 24.054 17.2393 24.1478 17.1455C24.2416 17.0517 24.3688 16.9991 24.5014 16.9991C24.634 16.9991 24.7612 17.0517 24.8549 17.1455C24.9487 17.2393 25.0014 17.3665 25.0014 17.4991V17.9991H24.0013V17.4991ZM3.00012 31.9999C2.73488 31.9999 2.48052 31.8946 2.29297 31.707C2.10542 31.5195 2.00006 31.2651 2.00006 30.9999C2.00006 30.7346 2.10542 30.4803 2.29297 30.2927C2.48052 30.1052 2.73488 29.9998 3.00012 29.9998C3.15881 30.0014 3.31476 30.0414 3.45464 30.1163C3.51478 30.1474 3.58059 30.1659 3.64808 30.1707C3.71557 30.1755 3.78335 30.1666 3.8473 30.1445C3.91126 30.1224 3.97006 30.0876 4.02014 30.0421C4.07023 29.9966 4.11055 29.9414 4.13868 29.8798C4.25672 29.6175 4.44801 29.3949 4.68956 29.2387C4.9311 29.0825 5.21262 28.9994 5.50026 28.9994C5.7879 28.9994 6.06942 29.0825 6.31097 29.2387C6.55251 29.3949 6.7438 29.6175 6.86184 29.8798C6.88997 29.9414 6.9303 29.9966 6.98038 30.0421C7.03047 30.0876 7.08927 30.1224 7.15322 30.1445C7.21717 30.1666 7.28495 30.1755 7.35244 30.1707C7.41994 30.1659 7.48575 30.1474 7.54588 30.1163C7.6802 30.0469 7.82856 30.0088 7.97974 30.0051C8.13091 30.0014 8.28096 30.0321 8.41852 30.095C8.55608 30.1578 8.67756 30.251 8.77377 30.3677C8.86999 30.4844 8.93842 30.6214 8.97389 30.7684C9.00936 30.9154 9.01095 31.0685 8.97853 31.2162C8.94611 31.364 8.88053 31.5024 8.78676 31.621C8.69298 31.7396 8.57346 31.8354 8.43723 31.901C8.301 31.9667 8.15163 32.0005 8.00041 31.9999H3.00012ZM14.0008 31.9999V20.4993C14.0008 20.3667 14.0534 20.2395 14.1472 20.1457C14.241 20.0519 14.3682 19.9992 14.5008 19.9992H16.0009V23.4994C16.0009 23.8973 16.1589 24.2788 16.4402 24.5602C16.7216 24.8415 17.1031 24.9995 17.501 24.9995H23.0013V31.9999H21.0012V26.4996C21.0012 26.367 20.9485 26.2398 20.8547 26.146C20.7609 26.0523 20.6338 25.9996 20.5011 25.9996C20.3685 25.9996 20.2413 26.0523 20.1476 26.146C20.0538 26.2398 20.0011 26.367 20.0011 26.4996V31.9999H14.0008ZM24.0013 31.9999V24.9995H25.0014V31.9999H24.0013ZM30.0017 31.9999H26.0015V24.9995H30.0017V31.9999ZM32.0018 19.4992V23.4994C32.0018 23.6321 31.9491 23.7592 31.8554 23.853C31.7616 23.9468 31.6344 23.9995 31.5018 23.9995H17.501C17.3683 23.9995 17.2412 23.9468 17.1474 23.853C17.0536 23.7592 17.0009 23.6321 17.0009 23.4994V19.4992C17.0009 19.3666 17.0536 19.2394 17.1474 19.1456C17.2412 19.0519 17.3683 18.9992 17.501 18.9992H31.5018C31.6344 18.9992 31.7616 19.0519 31.8554 19.1456C31.9491 19.2394 32.0018 19.3666 32.0018 19.4992Z" fill="#2E90FA"/>
<path d="M31.5018 14.999C31.8996 14.999 32.2812 14.8409 32.5625 14.5596C32.8438 14.2783 33.0019 13.8967 33.0019 13.4989V12.4988C33.0019 12.101 32.8438 11.7194 32.5625 11.4381C32.2812 11.1568 31.8996 10.9987 31.5018 10.9987H30.6667L17.3009 1.09814C17.2149 1.0344 17.1106 1 17.0034 1C16.8963 1 16.792 1.0344 16.7059 1.09814L3.33514 10.9987H2.50009C2.10224 10.9987 1.72069 11.1568 1.43937 11.4381C1.15804 11.7194 1 12.101 1 12.4988L1 13.4989C1 13.8967 1.15804 14.2783 1.43937 14.5596C1.72069 14.8409 2.10224 14.999 2.50009 14.999H3.00012V27.4997C3.00012 27.6323 3.0528 27.7595 3.14657 27.8533C3.24035 27.947 3.36753 27.9997 3.50015 27.9997C3.63276 27.9997 3.75995 27.947 3.85372 27.8533C3.94749 27.7595 4.00017 27.6323 4.00017 27.4997V14.999H24.5014C24.634 14.999 24.7612 14.9463 24.8549 14.8525C24.9487 14.7587 25.0014 14.6315 25.0014 14.4989C25.0014 14.3663 24.9487 14.2391 24.8549 14.1453C24.7612 14.0516 24.634 13.9989 24.5014 13.9989H2.50009C2.36747 13.9989 2.24029 13.9462 2.14651 13.8524C2.05274 13.7587 2.00006 13.6315 2.00006 13.4989V12.4988C2.00006 12.3662 2.05274 12.239 2.14651 12.1452C2.24029 12.0515 2.36747 11.9988 2.50009 11.9988H31.5018C31.6344 11.9988 31.7616 12.0515 31.8554 12.1452C31.9491 12.239 32.0018 12.3662 32.0018 12.4988V13.4989C32.0018 13.6315 31.9491 13.7587 31.8554 13.8524C31.7616 13.9462 31.6344 13.9989 31.5018 13.9989H26.5015C26.3689 13.9989 26.2417 14.0516 26.1479 14.1453C26.0541 14.2391 26.0015 14.3663 26.0015 14.4989C26.0015 14.6315 26.0541 14.7587 26.1479 14.8525C26.2417 14.9463 26.3689 14.999 26.5015 14.999H30.0017V17.9991H26.0015V17.4991C26.0015 17.1012 25.8434 16.7197 25.5621 16.4384C25.2808 16.1571 24.8992 15.999 24.5014 15.999C24.1035 15.999 23.722 16.1571 23.4406 16.4384C23.1593 16.7197 23.0013 17.1012 23.0013 17.4991V17.9991H17.501C17.1918 18.0004 16.8906 18.0972 16.6386 18.2762C16.3865 18.4552 16.1959 18.7077 16.0929 18.9992H14.5008C14.1029 18.9992 13.7214 19.1572 13.4401 19.4385C13.1587 19.7199 13.0007 20.1014 13.0007 20.4993V31.9999H9.72251C9.90248 31.6972 9.99845 31.352 10.0005 30.9999C10.0005 30.4694 9.7898 29.9607 9.4147 29.5856C9.03961 29.2105 8.53087 28.9998 8.00041 28.9998C7.84415 28.9997 7.68848 29.0189 7.53688 29.0568C7.30701 28.7302 7.00199 28.4637 6.64754 28.2798C6.29309 28.0958 5.8996 27.9998 5.50026 27.9998C5.10092 27.9998 4.70744 28.0958 4.35299 28.2798C3.99854 28.4637 3.69352 28.7302 3.46364 29.0568C3.31205 29.0189 3.15638 28.9997 3.00012 28.9998C2.46965 28.9998 1.96092 29.2105 1.58582 29.5856C1.21073 29.9607 1 30.4694 1 30.9999C1 31.5303 1.21073 32.0391 1.58582 32.4142C1.96092 32.7893 2.46965 33 3.00012 33H30.5017C30.6343 33 30.7615 32.9473 30.8553 32.8535C30.9491 32.7598 31.0017 32.6326 31.0017 32.5V24.9995H31.5018C31.8996 24.9995 32.2812 24.8415 32.5625 24.5602C32.8438 24.2788 33.0019 23.8973 33.0019 23.4994V19.4992C33.0019 19.1014 32.8438 18.7198 32.5625 18.4385C32.2812 18.1572 31.8996 17.9991 31.5018 17.9991H31.0017V14.999H31.5018ZM5.01523 10.9987L17.0009 2.1207L28.9866 10.9987H5.01523ZM24.0013 17.4991C24.0013 17.3665 24.054 17.2393 24.1478 17.1455C24.2416 17.0517 24.3688 16.9991 24.5014 16.9991C24.634 16.9991 24.7612 17.0517 24.8549 17.1455C24.9487 17.2393 25.0014 17.3665 25.0014 17.4991V17.9991H24.0013V17.4991ZM3.00012 31.9999C2.73488 31.9999 2.48052 31.8946 2.29297 31.707C2.10542 31.5195 2.00006 31.2651 2.00006 30.9999C2.00006 30.7346 2.10542 30.4803 2.29297 30.2927C2.48052 30.1052 2.73488 29.9998 3.00012 29.9998C3.15881 30.0014 3.31476 30.0414 3.45464 30.1163C3.51478 30.1474 3.58059 30.1659 3.64808 30.1707C3.71557 30.1755 3.78335 30.1666 3.8473 30.1445C3.91126 30.1224 3.97006 30.0876 4.02014 30.0421C4.07023 29.9966 4.11055 29.9414 4.13868 29.8798C4.25672 29.6175 4.44801 29.3949 4.68956 29.2387C4.9311 29.0825 5.21262 28.9994 5.50026 28.9994C5.7879 28.9994 6.06942 29.0825 6.31097 29.2387C6.55251 29.3949 6.7438 29.6175 6.86184 29.8798C6.88997 29.9414 6.9303 29.9966 6.98038 30.0421C7.03047 30.0876 7.08927 30.1224 7.15322 30.1445C7.21717 30.1666 7.28495 30.1755 7.35244 30.1707C7.41994 30.1659 7.48575 30.1474 7.54588 30.1163C7.6802 30.0469 7.82856 30.0088 7.97974 30.0051C8.13091 30.0014 8.28096 30.0321 8.41852 30.095C8.55608 30.1578 8.67756 30.251 8.77377 30.3677C8.86999 30.4844 8.93842 30.6214 8.97389 30.7684C9.00936 30.9154 9.01095 31.0685 8.97853 31.2162C8.94611 31.364 8.88053 31.5024 8.78676 31.621C8.69298 31.7396 8.57346 31.8354 8.43723 31.901C8.301 31.9667 8.15163 32.0005 8.00041 31.9999H3.00012ZM14.0008 31.9999V20.4993C14.0008 20.3667 14.0534 20.2395 14.1472 20.1457C14.241 20.0519 14.3682 19.9992 14.5008 19.9992H16.0009V23.4994C16.0009 23.8973 16.1589 24.2788 16.4402 24.5602C16.7216 24.8415 17.1031 24.9995 17.501 24.9995H23.0013V31.9999H21.0012V26.4996C21.0012 26.367 20.9485 26.2398 20.8547 26.146C20.7609 26.0523 20.6338 25.9996 20.5011 25.9996C20.3685 25.9996 20.2413 26.0523 20.1476 26.146C20.0538 26.2398 20.0011 26.367 20.0011 26.4996V31.9999H14.0008ZM24.0013 31.9999V24.9995H25.0014V31.9999H24.0013ZM30.0017 31.9999H26.0015V24.9995H30.0017V31.9999ZM32.0018 19.4992V23.4994C32.0018 23.6321 31.9491 23.7592 31.8554 23.853C31.7616 23.9468 31.6344 23.9995 31.5018 23.9995H17.501C17.3683 23.9995 17.2412 23.9468 17.1474 23.853C17.0536 23.7592 17.0009 23.6321 17.0009 23.4994V19.4992C17.0009 19.3666 17.0536 19.2394 17.1474 19.1456C17.2412 19.0519 17.3683 18.9992 17.501 18.9992H31.5018C31.6344 18.9992 31.7616 19.0519 31.8554 19.1456C31.9491 19.2394 32.0018 19.3666 32.0018 19.4992Z" stroke="#2E90FA" stroke-width="0.2" mask="url(#path-1-outside-1_1091_9320)"/>
<mask id="path-2-outside-2_1091_9320" maskUnits="userSpaceOnUse" x="4.00024" y="17.9993" width="28" height="9" fill="black">
<rect fill="white" x="4.00024" y="17.9993" width="28" height="9"/>
<path d="M19.5011 19.4993H18.501C18.3684 19.4993 18.2412 19.552 18.1475 19.6458C18.0537 19.7395 18.001 19.8667 18.001 19.9993V22.9995C18.001 23.1321 18.0537 23.2593 18.1475 23.3531C18.2412 23.4468 18.3684 23.4995 18.501 23.4995C18.6336 23.4995 18.7608 23.4468 18.8546 23.3531C18.9484 23.2593 19.0011 23.1321 19.0011 22.9995V22.4995H19.5011C19.5619 22.4971 19.6225 22.4909 19.6826 22.481L20.0536 23.223C20.1129 23.3417 20.2169 23.432 20.3427 23.474C20.4686 23.516 20.606 23.5063 20.7247 23.447C20.8434 23.3877 20.9336 23.2837 20.9756 23.1579C21.0177 23.0321 21.008 22.8947 20.9487 22.776L20.5792 22.0379C20.7839 21.8266 20.9218 21.5595 20.9756 21.2702C21.0294 20.9809 20.9968 20.6821 20.8818 20.4112C20.7667 20.1403 20.5744 19.9094 20.3289 19.7472C20.0833 19.585 19.7954 19.4988 19.5011 19.4993V19.4993ZM19.0011 21.4994V20.4994H19.5011C19.6337 20.4994 19.7609 20.552 19.8547 20.6458C19.9484 20.7396 20.0011 20.8668 20.0011 20.9994C20.0011 21.132 19.9484 21.2592 19.8547 21.353C19.7609 21.4467 19.6337 21.4994 19.5011 21.4994H19.0011ZM23.5013 20.4994C23.6339 20.4994 23.7611 20.4467 23.8549 20.3529C23.9487 20.2591 24.0014 20.1319 24.0014 19.9993C24.0014 19.8667 23.9487 19.7395 23.8549 19.6458C23.7611 19.552 23.6339 19.4993 23.5013 19.4993H22.0012C21.8686 19.4993 21.7414 19.552 21.6477 19.6458C21.5539 19.7395 21.5012 19.8667 21.5012 19.9993V22.9995C21.5012 23.1321 21.5539 23.2593 21.6477 23.3531C21.7414 23.4468 21.8686 23.4995 22.0012 23.4995H23.5013C23.6339 23.4995 23.7611 23.4468 23.8549 23.3531C23.9487 23.2593 24.0014 23.1321 24.0014 22.9995C24.0014 22.8669 23.9487 22.7397 23.8549 22.6459C23.7611 22.5522 23.6339 22.4995 23.5013 22.4995H22.5013V21.9994H23.0013C23.1339 21.9994 23.2611 21.9468 23.3549 21.853C23.4486 21.7592 23.5013 21.632 23.5013 21.4994C23.5013 21.3668 23.4486 21.2396 23.3549 21.1458C23.2611 21.0521 23.1339 20.9994 23.0013 20.9994H22.5013V20.4994H23.5013ZM27.0015 19.4993C26.8689 19.4993 26.7417 19.552 26.648 19.6458C26.5542 19.7395 26.5015 19.8667 26.5015 19.9993V21.3494L25.4174 19.7233C25.358 19.6341 25.2714 19.5664 25.1705 19.5301C25.0697 19.4939 24.9598 19.491 24.8572 19.5219C24.7545 19.5529 24.6645 19.616 24.6005 19.7019C24.5364 19.7879 24.5017 19.8921 24.5014 19.9993V22.9995C24.5014 23.1321 24.5541 23.2593 24.6478 23.3531C24.7416 23.4468 24.8688 23.4995 25.0014 23.4995C25.134 23.4995 25.2612 23.4468 25.355 23.3531C25.4488 23.2593 25.5014 23.1321 25.5014 22.9995V21.6494L26.5855 23.2755C26.645 23.3647 26.7315 23.4324 26.8324 23.4687C26.9333 23.5049 27.0431 23.5078 27.1458 23.4769C27.2484 23.446 27.3384 23.3829 27.4025 23.2969C27.4665 23.211 27.5013 23.1067 27.5016 22.9995V19.9993C27.5016 19.8667 27.4489 19.7395 27.3551 19.6458C27.2613 19.552 27.1341 19.4993 27.0015 19.4993ZM28.5016 19.4993C28.369 19.4993 28.2418 19.552 28.148 19.6458C28.0543 19.7395 28.0016 19.8667 28.0016 19.9993C28.0016 20.1319 28.0543 20.2591 28.148 20.3529C28.2418 20.4467 28.369 20.4994 28.5016 20.4994H29.0016V22.9995C29.0016 23.1321 29.0543 23.2593 29.1481 23.3531C29.2419 23.4468 29.3691 23.4995 29.5017 23.4995C29.6343 23.4995 29.7615 23.4468 29.8552 23.3531C29.949 23.2593 30.0017 23.1321 30.0017 22.9995V20.4994H30.5017C30.6343 20.4994 30.7615 20.4467 30.8553 20.3529C30.9491 20.2591 31.0018 20.1319 31.0018 19.9993C31.0018 19.8667 30.9491 19.7395 30.8553 19.6458C30.7615 19.552 30.6343 19.4993 30.5017 19.4993H28.5016ZM8.50045 25.9997H11.5006C11.6332 25.9997 11.7604 25.947 11.8542 25.8532C11.948 25.7594 12.0007 25.6323 12.0007 25.4996V19.4993C12.0007 19.3667 11.948 19.2395 11.8542 19.1457C11.7604 19.0519 11.6332 18.9993 11.5006 18.9993H5.50027C5.36766 18.9993 5.24047 19.0519 5.1467 19.1457C5.05293 19.2395 5.00024 19.3667 5.00024 19.4993V25.4996C5.00024 25.6323 5.05293 25.7594 5.1467 25.8532C5.24047 25.947 5.36766 25.9997 5.50027 25.9997H8.50045ZM6.0003 22.9995H8.00042V24.9996H6.0003V22.9995ZM11.0006 24.9996H9.00048V22.9995H11.0006V24.9996ZM11.0006 21.9994H9.00048V19.9993H11.0006V21.9994ZM6.0003 19.9993H8.00042V21.9994H6.0003V19.9993Z"/>
</mask>
<path d="M19.5011 19.4993H18.501C18.3684 19.4993 18.2412 19.552 18.1475 19.6458C18.0537 19.7395 18.001 19.8667 18.001 19.9993V22.9995C18.001 23.1321 18.0537 23.2593 18.1475 23.3531C18.2412 23.4468 18.3684 23.4995 18.501 23.4995C18.6336 23.4995 18.7608 23.4468 18.8546 23.3531C18.9484 23.2593 19.0011 23.1321 19.0011 22.9995V22.4995H19.5011C19.5619 22.4971 19.6225 22.4909 19.6826 22.481L20.0536 23.223C20.1129 23.3417 20.2169 23.432 20.3427 23.474C20.4686 23.516 20.606 23.5063 20.7247 23.447C20.8434 23.3877 20.9336 23.2837 20.9756 23.1579C21.0177 23.0321 21.008 22.8947 20.9487 22.776L20.5792 22.0379C20.7839 21.8266 20.9218 21.5595 20.9756 21.2702C21.0294 20.9809 20.9968 20.6821 20.8818 20.4112C20.7667 20.1403 20.5744 19.9094 20.3289 19.7472C20.0833 19.585 19.7954 19.4988 19.5011 19.4993V19.4993ZM19.0011 21.4994V20.4994H19.5011C19.6337 20.4994 19.7609 20.552 19.8547 20.6458C19.9484 20.7396 20.0011 20.8668 20.0011 20.9994C20.0011 21.132 19.9484 21.2592 19.8547 21.353C19.7609 21.4467 19.6337 21.4994 19.5011 21.4994H19.0011ZM23.5013 20.4994C23.6339 20.4994 23.7611 20.4467 23.8549 20.3529C23.9487 20.2591 24.0014 20.1319 24.0014 19.9993C24.0014 19.8667 23.9487 19.7395 23.8549 19.6458C23.7611 19.552 23.6339 19.4993 23.5013 19.4993H22.0012C21.8686 19.4993 21.7414 19.552 21.6477 19.6458C21.5539 19.7395 21.5012 19.8667 21.5012 19.9993V22.9995C21.5012 23.1321 21.5539 23.2593 21.6477 23.3531C21.7414 23.4468 21.8686 23.4995 22.0012 23.4995H23.5013C23.6339 23.4995 23.7611 23.4468 23.8549 23.3531C23.9487 23.2593 24.0014 23.1321 24.0014 22.9995C24.0014 22.8669 23.9487 22.7397 23.8549 22.6459C23.7611 22.5522 23.6339 22.4995 23.5013 22.4995H22.5013V21.9994H23.0013C23.1339 21.9994 23.2611 21.9468 23.3549 21.853C23.4486 21.7592 23.5013 21.632 23.5013 21.4994C23.5013 21.3668 23.4486 21.2396 23.3549 21.1458C23.2611 21.0521 23.1339 20.9994 23.0013 20.9994H22.5013V20.4994H23.5013ZM27.0015 19.4993C26.8689 19.4993 26.7417 19.552 26.648 19.6458C26.5542 19.7395 26.5015 19.8667 26.5015 19.9993V21.3494L25.4174 19.7233C25.358 19.6341 25.2714 19.5664 25.1705 19.5301C25.0697 19.4939 24.9598 19.491 24.8572 19.5219C24.7545 19.5529 24.6645 19.616 24.6005 19.7019C24.5364 19.7879 24.5017 19.8921 24.5014 19.9993V22.9995C24.5014 23.1321 24.5541 23.2593 24.6478 23.3531C24.7416 23.4468 24.8688 23.4995 25.0014 23.4995C25.134 23.4995 25.2612 23.4468 25.355 23.3531C25.4488 23.2593 25.5014 23.1321 25.5014 22.9995V21.6494L26.5855 23.2755C26.645 23.3647 26.7315 23.4324 26.8324 23.4687C26.9333 23.5049 27.0431 23.5078 27.1458 23.4769C27.2484 23.446 27.3384 23.3829 27.4025 23.2969C27.4665 23.211 27.5013 23.1067 27.5016 22.9995V19.9993C27.5016 19.8667 27.4489 19.7395 27.3551 19.6458C27.2613 19.552 27.1341 19.4993 27.0015 19.4993ZM28.5016 19.4993C28.369 19.4993 28.2418 19.552 28.148 19.6458C28.0543 19.7395 28.0016 19.8667 28.0016 19.9993C28.0016 20.1319 28.0543 20.2591 28.148 20.3529C28.2418 20.4467 28.369 20.4994 28.5016 20.4994H29.0016V22.9995C29.0016 23.1321 29.0543 23.2593 29.1481 23.3531C29.2419 23.4468 29.3691 23.4995 29.5017 23.4995C29.6343 23.4995 29.7615 23.4468 29.8552 23.3531C29.949 23.2593 30.0017 23.1321 30.0017 22.9995V20.4994H30.5017C30.6343 20.4994 30.7615 20.4467 30.8553 20.3529C30.9491 20.2591 31.0018 20.1319 31.0018 19.9993C31.0018 19.8667 30.9491 19.7395 30.8553 19.6458C30.7615 19.552 30.6343 19.4993 30.5017 19.4993H28.5016ZM8.50045 25.9997H11.5006C11.6332 25.9997 11.7604 25.947 11.8542 25.8532C11.948 25.7594 12.0007 25.6323 12.0007 25.4996V19.4993C12.0007 19.3667 11.948 19.2395 11.8542 19.1457C11.7604 19.0519 11.6332 18.9993 11.5006 18.9993H5.50027C5.36766 18.9993 5.24047 19.0519 5.1467 19.1457C5.05293 19.2395 5.00024 19.3667 5.00024 19.4993V25.4996C5.00024 25.6323 5.05293 25.7594 5.1467 25.8532C5.24047 25.947 5.36766 25.9997 5.50027 25.9997H8.50045ZM6.0003 22.9995H8.00042V24.9996H6.0003V22.9995ZM11.0006 24.9996H9.00048V22.9995H11.0006V24.9996ZM11.0006 21.9994H9.00048V19.9993H11.0006V21.9994ZM6.0003 19.9993H8.00042V21.9994H6.0003V19.9993Z" fill="#2E90FA"/>
<path d="M19.5011 19.4993H18.501C18.3684 19.4993 18.2412 19.552 18.1475 19.6458C18.0537 19.7395 18.001 19.8667 18.001 19.9993V22.9995C18.001 23.1321 18.0537 23.2593 18.1475 23.3531C18.2412 23.4468 18.3684 23.4995 18.501 23.4995C18.6336 23.4995 18.7608 23.4468 18.8546 23.3531C18.9484 23.2593 19.0011 23.1321 19.0011 22.9995V22.4995H19.5011C19.5619 22.4971 19.6225 22.4909 19.6826 22.481L20.0536 23.223C20.1129 23.3417 20.2169 23.432 20.3427 23.474C20.4686 23.516 20.606 23.5063 20.7247 23.447C20.8434 23.3877 20.9336 23.2837 20.9756 23.1579C21.0177 23.0321 21.008 22.8947 20.9487 22.776L20.5792 22.0379C20.7839 21.8266 20.9218 21.5595 20.9756 21.2702C21.0294 20.9809 20.9968 20.6821 20.8818 20.4112C20.7667 20.1403 20.5744 19.9094 20.3289 19.7472C20.0833 19.585 19.7954 19.4988 19.5011 19.4993V19.4993ZM19.0011 21.4994V20.4994H19.5011C19.6337 20.4994 19.7609 20.552 19.8547 20.6458C19.9484 20.7396 20.0011 20.8668 20.0011 20.9994C20.0011 21.132 19.9484 21.2592 19.8547 21.353C19.7609 21.4467 19.6337 21.4994 19.5011 21.4994H19.0011ZM23.5013 20.4994C23.6339 20.4994 23.7611 20.4467 23.8549 20.3529C23.9487 20.2591 24.0014 20.1319 24.0014 19.9993C24.0014 19.8667 23.9487 19.7395 23.8549 19.6458C23.7611 19.552 23.6339 19.4993 23.5013 19.4993H22.0012C21.8686 19.4993 21.7414 19.552 21.6477 19.6458C21.5539 19.7395 21.5012 19.8667 21.5012 19.9993V22.9995C21.5012 23.1321 21.5539 23.2593 21.6477 23.3531C21.7414 23.4468 21.8686 23.4995 22.0012 23.4995H23.5013C23.6339 23.4995 23.7611 23.4468 23.8549 23.3531C23.9487 23.2593 24.0014 23.1321 24.0014 22.9995C24.0014 22.8669 23.9487 22.7397 23.8549 22.6459C23.7611 22.5522 23.6339 22.4995 23.5013 22.4995H22.5013V21.9994H23.0013C23.1339 21.9994 23.2611 21.9468 23.3549 21.853C23.4486 21.7592 23.5013 21.632 23.5013 21.4994C23.5013 21.3668 23.4486 21.2396 23.3549 21.1458C23.2611 21.0521 23.1339 20.9994 23.0013 20.9994H22.5013V20.4994H23.5013ZM27.0015 19.4993C26.8689 19.4993 26.7417 19.552 26.648 19.6458C26.5542 19.7395 26.5015 19.8667 26.5015 19.9993V21.3494L25.4174 19.7233C25.358 19.6341 25.2714 19.5664 25.1705 19.5301C25.0697 19.4939 24.9598 19.491 24.8572 19.5219C24.7545 19.5529 24.6645 19.616 24.6005 19.7019C24.5364 19.7879 24.5017 19.8921 24.5014 19.9993V22.9995C24.5014 23.1321 24.5541 23.2593 24.6478 23.3531C24.7416 23.4468 24.8688 23.4995 25.0014 23.4995C25.134 23.4995 25.2612 23.4468 25.355 23.3531C25.4488 23.2593 25.5014 23.1321 25.5014 22.9995V21.6494L26.5855 23.2755C26.645 23.3647 26.7315 23.4324 26.8324 23.4687C26.9333 23.5049 27.0431 23.5078 27.1458 23.4769C27.2484 23.446 27.3384 23.3829 27.4025 23.2969C27.4665 23.211 27.5013 23.1067 27.5016 22.9995V19.9993C27.5016 19.8667 27.4489 19.7395 27.3551 19.6458C27.2613 19.552 27.1341 19.4993 27.0015 19.4993ZM28.5016 19.4993C28.369 19.4993 28.2418 19.552 28.148 19.6458C28.0543 19.7395 28.0016 19.8667 28.0016 19.9993C28.0016 20.1319 28.0543 20.2591 28.148 20.3529C28.2418 20.4467 28.369 20.4994 28.5016 20.4994H29.0016V22.9995C29.0016 23.1321 29.0543 23.2593 29.1481 23.3531C29.2419 23.4468 29.3691 23.4995 29.5017 23.4995C29.6343 23.4995 29.7615 23.4468 29.8552 23.3531C29.949 23.2593 30.0017 23.1321 30.0017 22.9995V20.4994H30.5017C30.6343 20.4994 30.7615 20.4467 30.8553 20.3529C30.9491 20.2591 31.0018 20.1319 31.0018 19.9993C31.0018 19.8667 30.9491 19.7395 30.8553 19.6458C30.7615 19.552 30.6343 19.4993 30.5017 19.4993H28.5016ZM8.50045 25.9997H11.5006C11.6332 25.9997 11.7604 25.947 11.8542 25.8532C11.948 25.7594 12.0007 25.6323 12.0007 25.4996V19.4993C12.0007 19.3667 11.948 19.2395 11.8542 19.1457C11.7604 19.0519 11.6332 18.9993 11.5006 18.9993H5.50027C5.36766 18.9993 5.24047 19.0519 5.1467 19.1457C5.05293 19.2395 5.00024 19.3667 5.00024 19.4993V25.4996C5.00024 25.6323 5.05293 25.7594 5.1467 25.8532C5.24047 25.947 5.36766 25.9997 5.50027 25.9997H8.50045ZM6.0003 22.9995H8.00042V24.9996H6.0003V22.9995ZM11.0006 24.9996H9.00048V22.9995H11.0006V24.9996ZM11.0006 21.9994H9.00048V19.9993H11.0006V21.9994ZM6.0003 19.9993H8.00042V21.9994H6.0003V19.9993Z" stroke="#2E90FA" stroke-width="0.2" mask="url(#path-2-outside-2_1091_9320)"/>
<path d="M19.001 27.0496C19.3048 27.0496 19.551 26.8033 19.551 26.4995C19.551 26.1958 19.3048 25.9495 19.001 25.9495C18.6972 25.9495 18.451 26.1958 18.451 26.4995C18.451 26.8033 18.6972 27.0496 19.001 27.0496Z" fill="#667085" stroke="#667085" stroke-width="0.1"/>
</svg>
