<svg width="13" height="14" viewBox="0 0 13 14" fill="none" xmlns="http://www.w3.org/2000/svg">
<path d="M12.9031 1.2622V5.67702C12.9031 6.044 12.6078 6.33924 12.2409 6.33924H7.82603C7.46181 6.33924 7.16381 6.044 7.16381 5.67702C7.16381 5.31004 7.46043 5.0148 7.82603 5.0148H10.5991C9.77959 3.4227 8.11576 2.3659 6.28085 2.3659C3.57953 2.3659 1.42454 4.52089 1.42454 7.22221C1.42454 9.92352 3.60353 12.0785 6.28085 12.0785C7.41463 12.0785 8.51833 11.6792 9.38778 10.9541C9.66812 10.7196 10.0861 10.7567 10.3207 11.0386C10.5552 11.3198 10.5173 11.737 10.2362 11.9715C9.12807 12.8942 7.72057 13.4 6.27665 13.4C2.8704 13.4002 0.100098 10.6299 0.100098 7.22221C0.100098 3.81452 2.8704 1.04422 6.27809 1.04422C8.48136 1.04422 10.4832 2.24339 11.5786 4.05457V1.2622C11.5786 0.896596 11.8753 0.599976 12.2409 0.599976C12.6065 0.599976 12.9031 0.896596 12.9031 1.2622Z" fill="currentColor"/>
</svg>
