<svg width="65" height="64" viewBox="0 0 65 64" fill="none" xmlns="http://www.w3.org/2000/svg">
<g clip-path="url(#clip0_303_1587)">
<path d="M50.0484 45.4194H47.9839V35.0968H37.6613V33.0323H56.2419C60.7952 33.0323 64.5 29.3275 64.5 24.7742C64.5 20.5708 61.3413 17.0983 57.2742 16.5874V16.5161C57.2742 7.40955 49.8646 0 40.7581 0C35.1746 0 29.9627 2.85419 26.9248 7.50968C25.1214 6.64568 23.1426 6.19355 21.1452 6.19355C14.8587 6.19355 9.50026 10.497 8.09329 16.5419C3.84968 16.8815 0.5 20.4449 0.5 24.7742C0.5 28.5512 3.10748 31.8369 6.69355 32.7659V36.129C6.69355 37.473 7.55961 38.6085 8.75806 39.0359V41.4813C7.55961 41.9076 6.69355 43.0431 6.69355 44.3871V48.5161C6.69355 49.8601 7.55961 50.9956 8.75806 51.423V53.8684C7.55961 54.2947 6.69355 55.4302 6.69355 56.7742V60.9032C6.69355 62.6106 8.08297 64 9.79032 64H34.5645C36.2719 64 37.6613 62.6106 37.6613 60.9032V57.8064H47.9839V47.4839H50.0484V57.8064H64.5V35.0968H50.0484V45.4194ZM33.5323 35.0968V45.4194H31.4677V35.0968H27.3387V30.9677H34.5645C35.1333 30.9677 35.5968 31.4302 35.5968 32V35.0968H33.5323ZM17.0161 51.6129V53.6774H10.8226V51.6129H17.0161ZM19.0806 35.0968V30.9677H25.2742V35.0968H19.0806ZM17.0161 37.1613H9.79032C9.22155 37.1613 8.75806 36.6988 8.75806 36.129V32C8.75806 31.4302 9.22155 30.9677 9.79032 30.9677H17.0161V37.1613ZM17.0161 39.2258V41.2903H10.8226V39.2258H17.0161ZM19.0806 57.8064H25.2742V61.9355H19.0806V57.8064ZM19.0806 55.7419V37.1613H29.4032V55.7419H19.0806ZM2.56452 24.7742C2.56452 21.3595 5.34026 18.5827 8.77974 18.5827H8.78387L9.81406 18.6044L9.96064 17.728C10.8794 12.2405 15.5823 8.25806 21.1452 8.25806C23.1168 8.25806 25.0677 8.78039 26.7875 9.76929L27.6866 10.2854L28.1996 9.38529C30.7689 4.86916 35.5813 2.06452 40.7581 2.06452C48.7271 2.06452 55.2097 8.5471 55.2097 16.5161V16.5874C51.1426 17.0983 47.9839 20.5708 47.9839 24.7742H50.0484C50.0484 21.3585 52.8262 18.5806 56.2419 18.5806C59.6577 18.5806 62.4355 21.3585 62.4355 24.7742C62.4355 28.1899 59.6577 30.9677 56.2419 30.9677H37.4714C37.044 29.7693 35.9085 28.9032 34.5645 28.9032H9.79032C8.55058 28.9032 7.48632 29.6403 6.99187 30.6952C4.41742 29.9241 2.56452 27.5293 2.56452 24.7742ZM8.75806 44.3871C8.75806 43.8173 9.22155 43.3548 9.79032 43.3548H17.0161V49.5484H9.79032C9.22155 49.5484 8.75806 49.0859 8.75806 48.5161V44.3871ZM8.75806 60.9032V56.7742C8.75806 56.2044 9.22155 55.7419 9.79032 55.7419H17.0161V61.9355H9.79032C9.22155 61.9355 8.75806 61.473 8.75806 60.9032ZM35.5968 60.9032C35.5968 61.473 35.1333 61.9355 34.5645 61.9355H27.3387V57.8064H31.4677V47.4839H33.5323V57.8064H35.5968V60.9032ZM45.9194 55.7419H35.5968V37.1613H45.9194V55.7419ZM52.1129 37.1613H62.4355V55.7419H52.1129V37.1613Z" fill="#516B7B"/>
<path d="M21.1451 39.2258H27.3387V41.2903H21.1451V39.2258Z" fill="#F96830"/>
<path d="M21.1451 43.3549H27.3387V45.4194H21.1451V43.3549Z" fill="#F96830"/>
<path d="M21.1451 47.4839H27.3387V49.5484H21.1451V47.4839Z" fill="#F96830"/>
<path d="M37.6613 39.2258H43.8548V41.2903H37.6613V39.2258Z" fill="#F96830"/>
<path d="M37.6613 43.3549H43.8548V45.4194H37.6613V43.3549Z" fill="#F96830"/>
<path d="M37.6613 47.4839H43.8548V49.5484H37.6613V47.4839Z" fill="#F96830"/>
<path d="M54.1774 39.2258H60.3709V41.2903H54.1774V39.2258Z" fill="#F96830"/>
<path d="M54.1774 43.3549H60.3709V45.4194H54.1774V43.3549Z" fill="#F96830"/>
<path d="M54.1774 47.4839H60.3709V49.5484H54.1774V47.4839Z" fill="#F96830"/>
<path d="M21.1451 51.6129H27.3387V53.6774H21.1451V51.6129Z" fill="#F96830"/>
<path d="M37.6613 51.6129H43.8548V53.6774H37.6613V51.6129Z" fill="#F96830"/>
<path d="M54.1774 51.6129H60.3709V53.6774H54.1774V51.6129Z" fill="#F96830"/>
<path d="M40.7581 6.19354V4.12903C36.0809 4.12903 31.8528 6.71793 29.7222 10.8852L31.5607 11.8245C33.3362 8.35096 36.8603 6.19354 40.7581 6.19354Z" fill="#516B7B"/>
<path d="M21.1452 12.3871C22.4149 12.3871 23.665 12.7206 24.7581 13.3533L25.7914 11.5675C24.3845 10.7531 22.7783 10.3226 21.1452 10.3226C17.8389 10.3226 14.7556 12.1022 13.0988 14.9668L14.8856 16.0011C16.1749 13.7724 18.5729 12.3871 21.1452 12.3871Z" fill="#516B7B"/>
<path d="M21.1451 21.6775C21.1451 23.3848 22.5345 24.7742 24.2419 24.7742C25.9492 24.7742 27.3387 23.3848 27.3387 21.6775C27.3387 19.9701 25.9492 18.5807 24.2419 18.5807C22.5345 18.5807 21.1451 19.9701 21.1451 21.6775ZM25.2741 21.6775C25.2741 22.2473 24.8107 22.7097 24.2419 22.7097C23.6731 22.7097 23.2096 22.2473 23.2096 21.6775C23.2096 21.1077 23.6731 20.6452 24.2419 20.6452C24.8107 20.6452 25.2741 21.1077 25.2741 21.6775Z" fill="#516B7B"/>
<path d="M32.5 24.7742C34.2073 24.7742 35.5967 23.3848 35.5967 21.6775C35.5967 19.9701 34.2073 18.5807 32.5 18.5807C30.7926 18.5807 29.4032 19.9701 29.4032 21.6775C29.4032 23.3848 30.7926 24.7742 32.5 24.7742ZM32.5 20.6452C33.0687 20.6452 33.5322 21.1077 33.5322 21.6775C33.5322 22.2473 33.0687 22.7097 32.5 22.7097C31.9312 22.7097 31.4677 22.2473 31.4677 21.6775C31.4677 21.1077 31.9312 20.6452 32.5 20.6452Z" fill="#516B7B"/>
<path d="M37.6613 21.6775C37.6613 23.3848 39.0507 24.7742 40.7581 24.7742C42.4654 24.7742 43.8548 23.3848 43.8548 21.6775C43.8548 19.9701 42.4654 18.5807 40.7581 18.5807C39.0507 18.5807 37.6613 19.9701 37.6613 21.6775ZM41.7903 21.6775C41.7903 22.2473 41.3268 22.7097 40.7581 22.7097C40.1893 22.7097 39.7258 22.2473 39.7258 21.6775C39.7258 21.1077 40.1893 20.6452 40.7581 20.6452C41.3268 20.6452 41.7903 21.1077 41.7903 21.6775Z" fill="#516B7B"/>
</g>
<defs>
<clipPath id="clip0_303_1587">
<rect width="64" height="64" fill="white" transform="translate(0.5)"/>
</clipPath>
</defs>
</svg>
