<svg width="65" height="64" viewBox="0 0 65 64" fill="none" xmlns="http://www.w3.org/2000/svg">
<g clip-path="url(#clip0_303_1650)">
<path d="M24.2766 25.3112C23.9095 24.7265 23.1382 24.55 22.5534 24.9171L17.1501 28.3086C16.5654 28.6756 16.3889 29.4471 16.756 30.0318C16.9934 30.4101 17.4 30.6175 17.8159 30.6175C18.0429 30.6175 18.2726 30.5556 18.4792 30.426L23.8825 27.0345C24.4672 26.6675 24.6437 25.896 24.2766 25.3112Z" fill="#F96830"/>
<path d="M15.8327 30.6137C15.4662 30.0288 14.6953 29.8515 14.1098 30.2177L14.0847 30.2335C13.4995 30.6 13.3223 31.3712 13.6887 31.9564C13.9259 32.3352 14.3329 32.5431 14.7493 32.5431C14.9759 32.5431 15.2053 32.4815 15.4115 32.3524L15.4367 32.3366C16.0218 31.9701 16.199 31.1989 15.8327 30.6137Z" fill="#F96830"/>
<path d="M64.2869 0.552501C63.9358 0.0303768 63.2512 -0.149373 62.6889 0.133127L25.686 18.714C25.2681 18.9237 25.0024 19.3491 24.997 19.8166C24.9915 20.2841 25.2474 20.7155 25.6602 20.9348L32.9493 24.809L16.3201 35.2474C15.9421 35.4847 15.7194 35.9053 15.7355 36.3512C15.7515 36.7971 16.004 37.2006 16.398 37.4099L24.4972 41.7147L0.939401 61.7986C0.450652 62.2153 0.357152 62.9344 0.723027 63.4621C0.964276 63.8099 1.35315 64 1.75115 64C1.95715 64 2.1654 63.9491 2.3569 63.8429L40.3537 42.758C40.7543 42.5357 41.0012 42.1119 40.9971 41.6537C40.9929 41.1955 40.7384 40.7762 40.3337 40.5612L32.9305 36.6262L50.2009 25.509C50.5753 25.268 50.7932 24.8458 50.7729 24.401C50.7527 23.9561 50.4973 23.5556 50.1026 23.3496L43.7093 20.014L64.073 2.19075C64.5465 1.77637 64.6383 1.07462 64.2869 0.552501ZM40.6878 19.3365C40.3773 19.6082 40.2209 20.0158 40.2698 20.4255C40.3189 20.8352 40.5669 21.1943 40.9328 21.3852L47.0392 24.5711L29.7846 35.6781C29.4117 35.9182 29.1937 36.3381 29.2123 36.7813C29.2307 37.2246 29.4828 37.6248 29.8746 37.8329L37.1285 41.6885L12.0724 55.5925L27.5177 42.4248C27.8327 42.1563 27.9943 41.7493 27.9495 41.3379C27.9046 40.9264 27.659 40.564 27.2935 40.3698L19.4789 36.2163L36.1082 25.7776C36.4861 25.5403 36.709 25.1197 36.6928 24.6738C36.6768 24.228 36.4243 23.8245 36.0303 23.6151L28.9697 19.8625L55.0487 6.76711L40.6878 19.3365Z" fill="#516B7B"/>
<path d="M47.91 43.4253C47.5744 42.8218 46.8129 42.6051 46.2101 42.9406L46.1841 42.9551C45.5808 43.2907 45.3637 44.0518 45.6994 44.6552C45.9279 45.0661 46.3538 45.2977 46.7928 45.2977C46.9986 45.2977 47.2071 45.2468 47.3994 45.1398L47.4254 45.1253C48.0287 44.7897 48.2458 44.0286 47.91 43.4253Z" fill="#F96830"/>
<path d="M44.7445 45.1825C44.4094 44.5789 43.6484 44.361 43.0449 44.6961L37.4669 47.7916C36.8633 48.1266 36.6455 48.8875 36.9804 49.4911C37.2088 49.9026 37.635 50.1348 38.0745 50.1348C38.2798 50.1348 38.4879 50.0841 38.68 49.9775L44.258 46.882C44.8616 46.547 45.0794 45.7861 44.7445 45.1825Z" fill="#F96830"/>
</g>
<defs>
<clipPath id="clip0_303_1650">
<rect width="64" height="64" fill="white" transform="translate(0.5)"/>
</clipPath>
</defs>
</svg>
