<svg width="20" height="21" viewBox="0 0 20 21" fill="none" xmlns="http://www.w3.org/2000/svg">
<path d="M7.03344 16.563C13.0697 16.563 16.3722 11.5608 16.3722 7.22423C16.3722 7.0836 16.3691 6.93985 16.3628 6.79923C17.0052 6.33463 17.5597 5.75916 18 5.09985C17.4017 5.36605 16.7664 5.53991 16.1159 5.61548C16.8009 5.20493 17.3137 4.55997 17.5594 3.80017C16.915 4.18203 16.2104 4.4514 15.4756 4.59673C14.9806 4.0707 14.326 3.7224 13.6131 3.60569C12.9003 3.48898 12.1688 3.61036 11.5318 3.95105C10.8949 4.29175 10.3879 4.83279 10.0892 5.49053C9.7906 6.14827 9.71695 6.88606 9.87969 7.58985C8.575 7.52438 7.29862 7.18546 6.13332 6.59505C4.96802 6.00465 3.9398 5.17595 3.11531 4.16267C2.69627 4.88515 2.56804 5.74008 2.75669 6.55372C2.94534 7.36735 3.43671 8.07862 4.13094 8.54298C3.60975 8.52643 3.09998 8.38611 2.64375 8.1336V8.17423C2.64328 8.93242 2.9054 9.66738 3.38554 10.2542C3.86568 10.841 4.53422 11.2434 5.2775 11.393C4.7947 11.5251 4.28799 11.5443 3.79656 11.4492C4.0063 12.1013 4.41438 12.6716 4.96385 13.0805C5.51331 13.4895 6.17675 13.7167 6.86156 13.7305C5.69895 14.6437 4.26278 15.1391 2.78438 15.1367C2.52219 15.1363 2.26027 15.1203 2 15.0886C3.5019 16.0522 5.24902 16.5639 7.03344 16.563Z" fill="currentColor"/>
</svg>
