<svg width="65" height="64" viewBox="0 0 65 64" fill="none" xmlns="http://www.w3.org/2000/svg">
<path d="M58.25 0H6.75C3.29822 0 0.5 2.79822 0.5 6.25V57.75C0.5 61.2018 3.29822 64 6.75 64H58.25C61.7018 64 64.5 61.2018 64.5 57.75V6.25C64.5 2.79822 61.7018 0 58.25 0Z" fill="#3178C6"/>
<path fill-rule="evenodd" clip-rule="evenodd" d="M40.1166 50.9285V57.1861C41.1339 57.7076 42.337 58.0986 43.726 58.3594C45.115 58.6201 46.5789 58.7505 48.1179 58.7505C49.6178 58.7505 51.0425 58.6071 52.3924 58.3202C53.7423 58.0335 54.9259 57.5609 55.9431 56.9025C56.9604 56.2442 57.7658 55.3837 58.3591 54.3212C58.9525 53.2587 59.2493 51.9454 59.2493 50.381C59.2493 49.2467 59.0798 48.2527 58.7406 47.3989C58.4015 46.545 57.9125 45.7856 57.2734 45.1207C56.6344 44.4559 55.8681 43.8594 54.9748 43.3314C54.0814 42.8034 53.0739 42.3047 51.9523 41.8355C51.1306 41.4965 50.3938 41.1674 49.7416 40.848C49.0895 40.5285 48.5353 40.2026 48.0788 39.8702C47.6223 39.5377 47.2701 39.1857 47.0224 38.8142C46.7746 38.4426 46.6506 38.0222 46.6506 37.5529C46.6506 37.1227 46.7615 36.7349 46.9833 36.3894C47.205 36.0439 47.518 35.7474 47.9223 35.4996C48.3266 35.252 48.8221 35.0596 49.409 34.9227C49.996 34.7859 50.648 34.7175 51.3654 34.7175C51.887 34.7175 52.438 34.7566 53.0184 34.8347C53.5988 34.913 54.1824 35.0336 54.7694 35.1965C55.3563 35.3595 55.9268 35.5649 56.4811 35.8125C57.0354 36.0602 57.5473 36.347 58.0168 36.673V30.826C57.0648 30.461 56.0246 30.1905 54.8965 30.0145C53.7684 29.8385 52.4739 29.7505 51.0133 29.7505C49.5264 29.7505 48.1179 29.9102 46.7876 30.2296C45.4574 30.549 44.2869 31.0476 43.276 31.7255C42.2653 32.4035 41.4665 33.2671 40.8796 34.3166C40.2928 35.366 39.9993 36.6207 39.9993 38.0809C39.9993 39.9451 40.5373 41.5356 41.6133 42.8524C42.6891 44.169 44.3226 45.2836 46.5138 46.1962C47.3745 46.5482 48.1766 46.8936 48.92 47.2326C49.6634 47.5716 50.3058 47.9236 50.8469 48.2886C51.3881 48.6536 51.8153 49.0512 52.1284 49.4815C52.4414 49.9116 52.5979 50.4005 52.5979 50.9481C52.5979 51.3522 52.5 51.727 52.3044 52.0725C52.1088 52.418 51.812 52.7177 51.4143 52.972C51.0165 53.2262 50.5209 53.425 49.9275 53.5684C49.334 53.7119 48.6396 53.7835 47.844 53.7835C46.4876 53.7835 45.1444 53.5456 43.814 53.0697C42.4838 52.594 41.2513 51.8802 40.1166 50.9285ZM29.5968 35.5107H37.6243V30.3755H15.2493V35.5107H23.2375V58.3755H29.5968V35.5107Z" fill="white"/>
</svg>
